<?xml version="1.0" encoding="UTF-8"?>
<svg id="_图层_2" data-name="图层_2" xmlns="http://www.w3.org/2000/svg" xmlns:xlink="http://www.w3.org/1999/xlink" viewBox="0 0 1366 768.85">
  <defs>
    <style>
      .cls-1 {
        fill: #a2ecf7;
      }

      .cls-1, .cls-2, .cls-3, .cls-4, .cls-5, .cls-6, .cls-7, .cls-8, .cls-9, .cls-10, .cls-11, .cls-12, .cls-13, .cls-14, .cls-15, .cls-16, .cls-17, .cls-18, .cls-19, .cls-20, .cls-21, .cls-22, .cls-23, .cls-24, .cls-25, .cls-26, .cls-27, .cls-28, .cls-29, .cls-30, .cls-31, .cls-32, .cls-33, .cls-34, .cls-35, .cls-36, .cls-37, .cls-38, .cls-39, .cls-40, .cls-41, .cls-42, .cls-43, .cls-44 {
        stroke-miterlimit: 10;
      }

      .cls-1, .cls-2, .cls-3, .cls-4, .cls-5, .cls-6, .cls-7, .cls-8, .cls-9, .cls-10, .cls-11, .cls-12, .cls-13, .cls-14, .cls-15, .cls-16, .cls-17, .cls-18, .cls-19, .cls-20, .cls-21, .cls-22, .cls-23, .cls-24, .cls-25, .cls-26, .cls-27, .cls-28, .cls-29, .cls-30, .cls-31, .cls-32, .cls-33, .cls-34, .cls-35, .cls-36, .cls-37, .cls-38, .cls-40, .cls-41, .cls-42, .cls-43, .cls-44 {
        stroke-width: .25px;
      }

      .cls-1, .cls-2, .cls-4, .cls-8, .cls-17, .cls-20, .cls-25, .cls-27, .cls-32, .cls-39, .cls-40, .cls-41 {
        stroke: red;
      }

      .cls-45 {
        fill: none;
      }

      .cls-2 {
        fill: #ff98b2;
      }

      .cls-3 {
        stroke: #ffb9c9;
      }

      .cls-3, .cls-34 {
        fill: #faf3fb;
      }

      .cls-4 {
        fill: #fff8fa;
      }

      .cls-5 {
        fill: #fbf4fb;
        stroke: #ffb5c7;
      }

      .cls-6 {
        stroke: #ffa9be;
      }

      .cls-6, .cls-38 {
        fill: #fdf9fd;
      }

      .cls-7 {
        stroke: #ffc6d3;
      }

      .cls-7, .cls-42 {
        fill: #f8eef9;
      }

      .cls-8 {
        fill: #28fdfa;
      }

      .cls-9 {
        fill: #fbf6fc;
        stroke: #ffb1c4;
      }

      .cls-10 {
        stroke: #ff9ab3;
      }

      .cls-10, .cls-22 {
        fill: #fffeff;
      }

      .cls-11 {
        stroke: #ff9eb6;
      }

      .cls-11, .cls-28 {
        fill: #fefdfe;
      }

      .cls-12 {
        stroke: #ffbaca;
      }

      .cls-12, .cls-43 {
        fill: #faf2fb;
      }

      .cls-13 {
        stroke: #ffc2d0;
      }

      .cls-13, .cls-30 {
        fill: #f9effa;
      }

      .cls-14 {
        fill: #fdfbfe;
        stroke: #ffa3ba;
      }

      .cls-15 {
        stroke: #ffbfcd;
      }

      .cls-15, .cls-44 {
        fill: #f9f0fa;
      }

      .cls-16 {
        stroke: #ffaec1;
      }

      .cls-16, .cls-18 {
        fill: #fcf7fc;
      }

      .cls-17 {
        fill: #f0e2f2;
      }

      .cls-18 {
        stroke: #ffacc0;
      }

      .cls-19 {
        stroke: #ffb2c5;
      }

      .cls-19, .cls-35 {
        fill: #fbf5fc;
      }

      .cls-20 {
        fill: #03c390;
      }

      .cls-21 {
        stroke: #ffa1b9;
      }

      .cls-21, .cls-24 {
        fill: #fefcfe;
      }

      .cls-22 {
        stroke: #ff9bb4;
      }

      .cls-23 {
        fill: #fcf8fd;
        stroke: #ffabbf;
      }

      .cls-24 {
        stroke: #ffa0b7;
      }

      .cls-25 {
        fill: #02f9c4;
      }

      .cls-26 {
        stroke: #ff98b2;
      }

      .cls-26, .cls-39 {
        fill: #fff;
      }

      .cls-27 {
        fill: #feedf1;
      }

      .cls-28 {
        stroke: #ff9db5;
      }

      .cls-29 {
        fill: #f8edf9;
        stroke: #ffc8d4;
      }

      .cls-30 {
        stroke: #ffc3d1;
      }

      .cls-46 {
        fill: #ff5a89;
      }

      .cls-31 {
        fill: #fcf6fc;
        stroke: #ffafc2;
      }

      .cls-32 {
        fill: url(#_新建图案_8);
      }

      .cls-33 {
        stroke: #ffa6bc;
      }

      .cls-33, .cls-36 {
        fill: #fdfafd;
      }

      .cls-34 {
        stroke: #ffb7c8;
      }

      .cls-35 {
        stroke: #ffb4c6;
      }

      .cls-36 {
        stroke: #ffa4bb;
      }

      .cls-37 {
        fill: #faf1fa;
        stroke: #ffbdcc;
      }

      .cls-38 {
        stroke: #ffa7bd;
      }

      .cls-39 {
        stroke-width: .5px;
      }

      .cls-40 {
        fill: #96ede1;
      }

      .cls-41 {
        fill: #ffc8d4;
      }

      .cls-42 {
        stroke: #ffc5d2;
      }

      .cls-43 {
        stroke: #ffbccb;
      }

      .cls-44 {
        stroke: #ffc0cf;
      }
    </style>
    <pattern id="_新建图案_8" data-name="新建图案 8" x="0" y="0" width="81.85" height="73.72" patternTransform="translate(-5534.92 624.4)" patternUnits="userSpaceOnUse" viewBox="0 0 81.85 73.72">
      <g>
        <rect class="cls-45" x="0" width="81.85" height="73.72"/>
        <g>
          <rect class="cls-27" x=".12" y="55.42" width="40.8" height="18.31"/>
          <rect class="cls-41" x="40.93" y="55.42" width="40.8" height="18.31"/>
          <rect class="cls-41" x=".12" y="73.72" width="40.8" height="18.31"/>
          <rect class="cls-27" x="40.93" y="73.72" width="40.8" height="18.31"/>
        </g>
        <g>
          <rect class="cls-27" x=".12" y="18.56" width="40.8" height="18.31"/>
          <rect class="cls-41" x="40.93" y="18.56" width="40.8" height="18.31"/>
          <rect class="cls-41" x=".12" y="36.86" width="40.8" height="18.31"/>
          <rect class="cls-27" x="40.93" y="36.86" width="40.8" height="18.31"/>
        </g>
        <g>
          <rect class="cls-27" x=".12" y="-18.31" width="40.8" height="18.31"/>
          <rect class="cls-41" x="40.93" y="-18.31" width="40.8" height="18.31"/>
          <rect class="cls-41" x=".12" width="40.8" height="18.31"/>
          <rect class="cls-27" x="40.93" width="40.8" height="18.31"/>
        </g>
      </g>
    </pattern>
  </defs>
  <g id="_图层_1-2" data-name="图层_1">
    <rect class="cls-46" width="1366" height="768.85"/>
    <rect class="cls-39" x="21.21" y="22.88" width="1326.93" height="727.57"/>
    <g>
      <rect class="cls-26" x="21.21" y="22.88" width="1326.93" height="727.57"/>
      <rect class="cls-10" x="23.34" y="30.32" width="1321.9" height="717.13"/>
      <rect class="cls-22" x="25.46" y="37.76" width="1316.87" height="706.7"/>
      <rect class="cls-28" x="27.58" y="45.2" width="1311.84" height="696.26"/>
      <rect class="cls-11" x="29.7" y="52.65" width="1306.8" height="685.82"/>
      <rect class="cls-24" x="31.83" y="60.09" width="1301.77" height="675.39"/>
      <rect class="cls-21" x="33.95" y="67.53" width="1296.74" height="664.95"/>
      <rect class="cls-14" x="36.07" y="74.97" width="1291.71" height="654.51"/>
      <rect class="cls-36" x="38.19" y="82.42" width="1286.68" height="644.08"/>
      <rect class="cls-33" x="40.32" y="89.86" width="1281.65" height="633.64"/>
      <rect class="cls-38" x="42.44" y="97.3" width="1276.62" height="623.2"/>
      <rect class="cls-6" x="44.56" y="104.74" width="1271.59" height="612.77"/>
      <rect class="cls-23" x="46.68" y="112.19" width="1266.56" height="602.33"/>
      <rect class="cls-18" x="48.81" y="119.63" width="1261.53" height="591.89"/>
      <rect class="cls-16" x="50.93" y="127.07" width="1256.5" height="581.46"/>
      <rect class="cls-31" x="53.05" y="134.52" width="1251.47" height="571.02"/>
      <rect class="cls-9" x="55.17" y="141.96" width="1246.43" height="560.58"/>
      <rect class="cls-19" x="57.3" y="149.4" width="1241.4" height="550.15"/>
      <rect class="cls-35" x="59.42" y="156.84" width="1236.37" height="539.71"/>
      <rect class="cls-5" x="61.54" y="164.29" width="1231.34" height="529.27"/>
      <rect class="cls-34" x="63.66" y="171.73" width="1226.31" height="518.84"/>
      <rect class="cls-3" x="65.79" y="179.17" width="1221.28" height="508.4"/>
      <rect class="cls-12" x="67.91" y="186.61" width="1216.25" height="497.96"/>
      <rect class="cls-43" x="70.03" y="194.06" width="1211.22" height="487.53"/>
      <rect class="cls-37" x="72.15" y="201.5" width="1206.19" height="477.09"/>
      <rect class="cls-15" x="74.28" y="208.94" width="1201.16" height="466.65"/>
      <rect class="cls-44" x="76.4" y="216.38" width="1196.13" height="456.22"/>
      <rect class="cls-13" x="78.52" y="223.83" width="1191.1" height="445.78"/>
      <rect class="cls-30" x="80.64" y="231.27" width="1186.07" height="435.34"/>
      <rect class="cls-42" x="82.77" y="238.71" width="1181.03" height="424.91"/>
      <rect class="cls-7" x="84.89" y="246.16" width="1176" height="414.47"/>
      <rect class="cls-29" x="87.01" y="253.6" width="1170.97" height="404.03"/>
    </g>
    <g>
      <rect class="cls-41" x="278.66" y="22.76" width="87.5" height="231.34"/>
      <g>
        <g>
          <rect class="cls-27" x="325.12" y="29.72" width="36.61" height="14.36"/>
          <rect class="cls-27" x="283.09" y="29.72" width="36.61" height="14.36"/>
        </g>
        <g>
          <rect class="cls-27" x="325.12" y="47.73" width="36.61" height="14.36"/>
          <rect class="cls-27" x="283.09" y="47.73" width="36.61" height="14.36"/>
        </g>
        <g>
          <rect class="cls-27" x="325.12" y="65.73" width="36.61" height="14.36"/>
          <rect class="cls-27" x="283.09" y="65.73" width="36.61" height="14.36"/>
        </g>
        <g>
          <rect class="cls-27" x="325.12" y="83.74" width="36.61" height="14.36"/>
          <rect class="cls-27" x="283.09" y="83.74" width="36.61" height="14.36"/>
        </g>
        <g>
          <rect class="cls-27" x="325.12" y="101.75" width="36.61" height="14.36"/>
          <rect class="cls-27" x="283.09" y="101.75" width="36.61" height="14.36"/>
        </g>
        <g>
          <rect class="cls-27" x="325.12" y="119.75" width="36.61" height="14.36"/>
          <rect class="cls-27" x="283.09" y="119.75" width="36.61" height="14.36"/>
        </g>
        <g>
          <rect class="cls-27" x="325.12" y="137.76" width="36.61" height="14.36"/>
          <rect class="cls-27" x="283.09" y="137.76" width="36.61" height="14.36"/>
        </g>
        <g>
          <rect class="cls-27" x="325.12" y="155.76" width="36.61" height="14.36"/>
          <rect class="cls-27" x="283.09" y="155.76" width="36.61" height="14.36"/>
        </g>
        <g>
          <rect class="cls-27" x="325.12" y="173.77" width="36.61" height="14.36"/>
          <rect class="cls-27" x="283.09" y="173.77" width="36.61" height="14.36"/>
        </g>
        <g>
          <rect class="cls-27" x="325.12" y="191.77" width="36.61" height="14.36"/>
          <rect class="cls-27" x="283.09" y="191.77" width="36.61" height="14.36"/>
        </g>
        <g>
          <rect class="cls-27" x="325.12" y="209.78" width="36.61" height="14.36"/>
          <rect class="cls-27" x="283.09" y="209.78" width="36.61" height="14.36"/>
        </g>
        <g>
          <rect class="cls-27" x="325.12" y="227.79" width="36.61" height="14.36"/>
          <rect class="cls-27" x="283.09" y="227.79" width="36.61" height="14.36"/>
        </g>
      </g>
    </g>
    <g>
      <rect class="cls-41" x="390.26" y="67.47" width="452.9" height="93.52"/>
      <g>
        <path class="cls-41" d="M764.83,59.14v67.08h43.68V59.14h-43.68ZM786.67,72.33c-2.26,0-4.1-1.83-4.1-4.1s1.83-4.1,4.1-4.1,4.1,1.83,4.1,4.1-1.83,4.1-4.1,4.1Z"/>
        <rect class="cls-41" x="796.68" y="121.69" width="21.49" height="45.92"/>
        <rect class="cls-41" x="815.05" y="84.64" width="21.49" height="16.07"/>
        <rect class="cls-41" x="832.41" y="105.61" width="21.49" height="16.07"/>
        <rect class="cls-41" x="739" y="125.29" width="43.68" height="67.08"/>
        <path class="cls-41" d="M554.61,139.05v102.58h62.1v-102.58h-62.1ZM585.66,152.76c-2.36,0-4.27-1.91-4.27-4.27s1.91-4.27,4.27-4.27,4.27,1.91,4.27,4.27-1.91,4.27-4.27,4.27Z"/>
        <path class="cls-41" d="M494.32,151.88v51.76h33.3v-51.76h-33.3ZM510.97,159.82c-1.35,0-2.44-1.09-2.44-2.44s1.09-2.44,2.44-2.44,2.44,1.09,2.44,2.44-1.09,2.44-2.44,2.44Z"/>
        <rect class="cls-41" x="400.35" y="76.22" width="15.35" height="21.46"/>
        <rect class="cls-41" x="408.03" y="89.52" width="15.35" height="21.46"/>
        <rect class="cls-41" x="433.26" y="76.22" width="15.35" height="21.46"/>
        <rect class="cls-41" x="440.94" y="110.98" width="15.35" height="21.46"/>
        <rect class="cls-41" x="483.57" y="92.68" width="21.49" height="32.15"/>
        <rect class="cls-41" x="726.86" y="89.54" width="21.49" height="32.15"/>
        <rect class="cls-41" x="676.13" y="92.68" width="21.49" height="32.15"/>
        <rect class="cls-41" x="527.62" y="102.25" width="16.65" height="33.68"/>
        <rect class="cls-41" x="461.87" y="127.05" width="21.49" height="16.07"/>
        <rect class="cls-41" x="593.87" y="131.26" width="15.35" height="21.46"/>
        <rect class="cls-41" x="605.96" y="98.15" width="21.49" height="32.15"/>
        <rect class="cls-41" x="607.13" y="148.49" width="21.49" height="16.07"/>
        <rect class="cls-41" x="475.63" y="119.02" width="21.49" height="16.07"/>
        <path class="cls-41" d="M379.77,124.83v72.33h46.94v-72.33h-46.94ZM403.24,137.76c-2.13,0-3.86-1.73-3.86-3.86s1.73-3.86,3.86-3.86,3.86,1.73,3.86,3.86-1.73,3.86-3.86,3.86Z"/>
        <path class="cls-41" d="M569.77,49.38v72.33h46.94V49.38h-46.94ZM593.24,62.37c-2.36,0-4.28-1.92-4.28-4.28s1.92-4.28,4.28-4.28,4.28,1.92,4.28,4.28-1.92,4.28-4.28,4.28Z"/>
      </g>
    </g>
    <rect class="cls-17" x="87.01" y="253.6" width="1170.97" height="404.03"/>
    <rect class="cls-17" x="490.48" y="-109.87" width="364.03" height="1130.97" transform="translate(1128.11 -216.88) rotate(90)"/>
    <polygon class="cls-32" points="127.01 622.63 127.01 295.92 1217.98 295.92 1217.98 622.63 127.01 622.63"/>
    <g>
      <rect class="cls-41" x="183.95" y="22.27" width="49.88" height="231"/>
      <g>
        <g>
          <rect class="cls-4" x="210.43" y="29.22" width="20.87" height="14.34"/>
          <rect class="cls-4" x="186.48" y="29.22" width="20.87" height="14.34"/>
        </g>
        <g>
          <rect class="cls-4" x="210.43" y="45.7" width="20.87" height="14.34"/>
          <rect class="cls-4" x="186.48" y="45.7" width="20.87" height="14.34"/>
        </g>
        <g>
          <rect class="cls-4" x="210.43" y="62.18" width="20.87" height="14.34"/>
          <rect class="cls-4" x="186.48" y="62.18" width="20.87" height="14.34"/>
        </g>
        <g>
          <rect class="cls-4" x="210.43" y="78.66" width="20.87" height="14.34"/>
          <rect class="cls-4" x="186.48" y="78.66" width="20.87" height="14.34"/>
        </g>
        <g>
          <rect class="cls-4" x="210.43" y="95.14" width="20.87" height="14.34"/>
          <rect class="cls-4" x="186.48" y="95.14" width="20.87" height="14.34"/>
        </g>
        <g>
          <rect class="cls-4" x="210.43" y="111.62" width="20.87" height="14.34"/>
          <rect class="cls-4" x="186.48" y="111.62" width="20.87" height="14.34"/>
        </g>
        <g>
          <rect class="cls-4" x="210.43" y="128.1" width="20.87" height="14.34"/>
          <rect class="cls-4" x="186.48" y="128.1" width="20.87" height="14.34"/>
        </g>
        <g>
          <rect class="cls-4" x="210.43" y="144.59" width="20.87" height="14.34"/>
          <rect class="cls-4" x="186.48" y="144.59" width="20.87" height="14.34"/>
        </g>
        <g>
          <rect class="cls-4" x="210.43" y="161.07" width="20.87" height="14.34"/>
          <rect class="cls-4" x="186.48" y="161.07" width="20.87" height="14.34"/>
        </g>
        <g>
          <rect class="cls-4" x="210.43" y="177.55" width="20.87" height="14.34"/>
          <rect class="cls-4" x="186.48" y="177.55" width="20.87" height="14.34"/>
        </g>
        <g>
          <rect class="cls-4" x="210.43" y="194.03" width="20.87" height="14.34"/>
          <rect class="cls-4" x="186.48" y="194.03" width="20.87" height="14.34"/>
        </g>
        <g>
          <rect class="cls-4" x="210.43" y="210.51" width="20.87" height="14.34"/>
          <rect class="cls-4" x="186.48" y="210.51" width="20.87" height="14.34"/>
        </g>
        <g>
          <rect class="cls-4" x="210.43" y="226.99" width="20.87" height="14.34"/>
          <rect class="cls-4" x="186.48" y="226.99" width="20.87" height="14.34"/>
        </g>
      </g>
    </g>
    <rect class="cls-27" x="44.72" y="306.26" width="57.14" height="308.51"/>
    <g>
      <rect class="cls-41" x="860.36" y="101.45" width="452.9" height="93.52"/>
      <g>
        <path class="cls-41" d="M1278.61,203.3v-67.08h-43.68v67.08h43.68ZM1260.87,194.21c0,2.26-1.83,4.1-4.1,4.1s-4.1-1.83-4.1-4.1,1.83-4.1,4.1-4.1,4.1,1.83,4.1,4.1Z"/>
        <rect class="cls-41" x="1266.78" y="94.83" width="21.49" height="45.92"/>
        <rect class="cls-41" x="1285.15" y="161.73" width="21.49" height="16.07"/>
        <rect class="cls-41" x="1302.51" y="140.75" width="21.49" height="16.07"/>
        <rect class="cls-41" x="1209.1" y="70.07" width="43.68" height="67.08"/>
        <path class="cls-41" d="M997.72,110.56v-51.76h-33.3v51.76h33.3ZM983.51,105.06c0,1.35-1.09,2.44-2.44,2.44s-2.44-1.09-2.44-2.44,1.09-2.44,2.44-2.44,2.44,1.09,2.44,2.44Z"/>
        <rect class="cls-41" x="870.45" y="164.77" width="15.35" height="21.46"/>
        <rect class="cls-41" x="878.13" y="151.46" width="15.35" height="21.46"/>
        <rect class="cls-41" x="903.36" y="164.77" width="15.35" height="21.46"/>
        <rect class="cls-41" x="911.04" y="130.01" width="15.35" height="21.46"/>
        <rect class="cls-41" x="953.67" y="137.61" width="21.49" height="32.15"/>
        <rect class="cls-41" x="1196.96" y="140.75" width="21.49" height="32.15"/>
        <rect class="cls-41" x="1146.23" y="137.61" width="21.49" height="32.15"/>
        <rect class="cls-41" x="997.72" y="126.51" width="16.65" height="33.68"/>
        <rect class="cls-41" x="931.97" y="119.32" width="21.49" height="16.07"/>
        <rect class="cls-41" x="1063.97" y="109.73" width="15.35" height="21.46"/>
        <rect class="cls-41" x="1076.06" y="132.14" width="21.49" height="32.15"/>
        <rect class="cls-41" x="1077.23" y="97.88" width="21.49" height="16.07"/>
        <rect class="cls-41" x="945.73" y="127.35" width="21.49" height="16.07"/>
        <path class="cls-41" d="M896.81,137.61v-72.33h-46.94v72.33h46.94ZM877.2,128.54c0,2.13-1.73,3.86-3.86,3.86s-3.86-1.73-3.86-3.86,1.73-3.86,3.86-3.86,3.86,1.73,3.86,3.86Z"/>
        <path class="cls-41" d="M1086.81,213.06v-72.33h-46.94v72.33h46.94ZM1067.62,204.35c0,2.36-1.92,4.28-4.28,4.28s-4.28-1.92-4.28-4.28,1.92-4.28,4.28-4.28,4.28,1.92,4.28,4.28Z"/>
      </g>
    </g>
    <g>
      <g>
        <rect class="cls-2" x="837.02" y="215.51" width="428.01" height="5.92"/>
        <rect class="cls-2" x="846.17" y="221.43" width="407.09" height="5.92"/>
        <rect class="cls-2" x="1051.02" y="227.36" width="11.63" height="36.23"/>
        <rect class="cls-2" x="855.42" y="227.36" width="11.63" height="36.23"/>
        <rect class="cls-2" x="1235.65" y="227.36" width="11.63" height="36.23"/>
      </g>
      <path class="cls-2" d="M1015.7,170.76l-9.25,6.76v37.82h18.49v-37.82l-9.25-6.76ZM1015.7,178.48c-1.31,0-2.37-1.06-2.37-2.37s1.06-2.37,2.37-2.37,2.37,1.06,2.37,2.37-1.06,2.37-2.37,2.37Z"/>
      <rect class="cls-2" x="896.7" y="202.72" width="78.55" height="12.75"/>
      <path class="cls-20" d="M1124.32,195.63v16.42l9.4,3.85h23.58v-25.04h-23.58l-9.4,4.76ZM1129.76,203.38c0,1.07-.87,1.94-1.94,1.94s-1.94-.87-1.94-1.94.87-1.94,1.94-1.94,1.94.87,1.94,1.94Z"/>
      <path class="cls-2" d="M854.39,200.38h-6.24l-4.41,4.41v6.24l4.41,4.41h6.24l4.41-4.41v-6.24l-4.41-4.41ZM851.27,207.09c-1.35,0-2.45-1.1-2.45-2.45s1.1-2.45,2.45-2.45,2.45,1.1,2.45,2.45-1.1,2.45-2.45,2.45Z"/>
      <path class="cls-40" d="M1073.65,228.71c-1.28-3.58-3.38-8.29-6.77-7.81-1.56.22-2.71,1.44-3.42,3.62-.46,1.43-.77,3.37-.93,5.76-.29,4.68.04,10.77.94,17.15.9,6.38,2.27,12.33,3.85,16.74,1.28,3.58,3.38,8.29,6.77,7.81,1.56-.22,2.71-1.44,3.42-3.62.46-1.43.77-3.37.93-5.76.29-4.68-.04-10.77-.94-17.15s-2.27-12.33-3.85-16.74ZM1073.79,269.79c-2.66.38-6.28-9.77-8.1-22.66-1.82-12.89-1.14-23.64,1.51-24.02,2.66-.38,6.28,9.77,8.1,22.66,1.82,12.89,1.14,23.64-1.51,24.02Z"/>
      <path class="cls-40" d="M1043.5,262.26c3.33-.93,7.73-2.52,7.52-5.63-.1-1.43-1.13-2.55-3.05-3.33-1.27-.51-3-.92-5.16-1.21-4.22-.57-9.76-.67-15.6-.27-5.84.4-11.31,1.25-15.42,2.39-3.33.93-7.73,2.52-7.52,5.63.1,1.43,1.13,2.55,3.05,3.33,1.27.51,3,.92,5.16,1.21,4.22.57,9.76.67,15.6.27s11.31-1.25,15.42-2.39ZM1006.28,259.7c-.17-2.43,9.26-5.06,21.06-5.86,11.8-.81,21.49.5,21.66,2.93s-9.26,5.06-21.06,5.86c-11.8.81-21.49-.5-21.66-2.93Z"/>
      <path class="cls-2" d="M965.29,181.37h-14.19l-3.33,21.63h21.63l-4.11-21.63ZM958.59,188.74c-1.4,0-2.53-1.13-2.53-2.53s1.13-2.53,2.53-2.53,2.53,1.13,2.53,2.53-1.13,2.53-2.53,2.53Z"/>
      <path class="cls-2" d="M1158.32,169.3h-14.19l-3.33,21.63h21.63l-4.11-21.63ZM1151.62,176.68c-1.4,0-2.53-1.13-2.53-2.53s1.13-2.53,2.53-2.53,2.53,1.13,2.53,2.53-1.13,2.53-2.53,2.53Z"/>
      <path class="cls-2" d="M994.09,163.14l-11.15,8.16v45.62h22.31v-45.62l-11.15-8.16ZM994.09,172.13c-1.49,0-2.7-1.21-2.7-2.7s1.21-2.7,2.7-2.7,2.7,1.21,2.7,2.7-1.21,2.7-2.7,2.7Z"/>
    </g>
    <g>
      <g>
        <rect class="cls-2" x="410.97" y="215.51" width="428.01" height="5.92"/>
        <rect class="cls-2" x="420.13" y="221.43" width="407.09" height="5.92"/>
        <rect class="cls-2" x="624.98" y="227.36" width="11.63" height="36.23"/>
        <rect class="cls-2" x="429.37" y="227.36" width="11.63" height="36.23"/>
        <rect class="cls-2" x="809.6" y="227.36" width="11.63" height="36.23"/>
      </g>
      <path class="cls-2" d="M589.65,170.76l-9.25,6.76v37.82h18.49v-37.82l-9.25-6.76ZM589.65,178.48c-1.31,0-2.37-1.06-2.37-2.37s1.06-2.37,2.37-2.37,2.37,1.06,2.37,2.37-1.06,2.37-2.37,2.37Z"/>
      <rect class="cls-2" x="470.65" y="202.72" width="78.55" height="12.75"/>
      <path class="cls-40" d="M698.27,195.63v16.42l9.4,3.85h23.58v-25.04h-23.58l-9.4,4.76ZM703.71,203.38c0,1.07-.87,1.94-1.94,1.94s-1.94-.87-1.94-1.94.87-1.94,1.94-1.94,1.94.87,1.94,1.94Z"/>
      <path class="cls-2" d="M428.34,200.38h-6.24l-4.41,4.41v6.24l4.41,4.41h6.24l4.41-4.41v-6.24l-4.41-4.41ZM425.22,207.09c-1.35,0-2.45-1.1-2.45-2.45s1.1-2.45,2.45-2.45,2.45,1.1,2.45,2.45-1.1,2.45-2.45,2.45Z"/>
      <path class="cls-40" d="M647.6,228.71c-1.28-3.58-3.38-8.29-6.77-7.81-1.56.22-2.71,1.44-3.42,3.62-.46,1.43-.77,3.37-.93,5.76-.29,4.68.04,10.77.94,17.15s2.27,12.33,3.85,16.74c1.28,3.58,3.38,8.29,6.77,7.81,1.56-.22,2.71-1.44,3.42-3.62.46-1.43.77-3.37.93-5.76.29-4.68-.04-10.77-.94-17.15-.9-6.38-2.27-12.33-3.85-16.74ZM647.74,269.79c-2.66.38-6.28-9.77-8.1-22.66-1.82-12.89-1.14-23.64,1.51-24.02,2.66-.38,6.28,9.77,8.1,22.66s1.14,23.64-1.51,24.02Z"/>
      <path class="cls-40" d="M617.45,262.26c3.33-.93,7.73-2.52,7.52-5.63-.1-1.43-1.13-2.55-3.05-3.33-1.27-.51-3-.92-5.16-1.21-4.22-.57-9.76-.67-15.6-.27-5.84.4-11.31,1.25-15.42,2.39-3.33.93-7.73,2.52-7.52,5.63.1,1.43,1.13,2.55,3.05,3.33,1.27.51,3,.92,5.16,1.21,4.22.57,9.76.67,15.6.27s11.31-1.25,15.42-2.39ZM580.23,259.7c-.17-2.43,9.26-5.06,21.06-5.86,11.8-.81,21.49.5,21.66,2.93s-9.26,5.06-21.06,5.86c-11.8.81-21.49-.5-21.66-2.93Z"/>
      <path class="cls-2" d="M539.25,181.37h-14.19l-3.33,21.63h21.63l-4.11-21.63ZM532.55,188.74c-1.4,0-2.53-1.13-2.53-2.53s1.13-2.53,2.53-2.53,2.53,1.13,2.53,2.53-1.13,2.53-2.53,2.53Z"/>
      <path class="cls-2" d="M732.27,169.3h-14.19l-3.33,21.63h21.63l-4.11-21.63ZM725.57,176.68c-1.4,0-2.53-1.13-2.53-2.53s1.13-2.53,2.53-2.53,2.53,1.13,2.53,2.53-1.13,2.53-2.53,2.53Z"/>
      <path class="cls-2" d="M568.04,163.14l-11.15,8.16v45.62h22.31v-45.62l-11.15-8.16ZM568.04,172.13c-1.49,0-2.7-1.21-2.7-2.7s1.21-2.7,2.7-2.7,2.7,1.21,2.7,2.7-1.21,2.7-2.7,2.7Z"/>
    </g>
    <g>
      <g>
        <rect class="cls-2" x="1078.81" y="452.43" width="428.01" height="5.92" transform="translate(1748.2 -837.42) rotate(90)"/>
        <rect class="cls-2" x="1083.34" y="451.12" width="407.09" height="5.92" transform="translate(1740.97 -832.8) rotate(90)"/>
        <rect class="cls-2" x="1260" y="443.09" width="11.63" height="36.23" transform="translate(1727.02 -804.61) rotate(90)"/>
        <rect class="cls-2" x="1260" y="247.48" width="11.63" height="36.23" transform="translate(1531.41 -1000.21) rotate(90)"/>
        <rect class="cls-2" x="1260" y="627.72" width="11.63" height="36.23" transform="translate(1911.64 -619.98) rotate(90)"/>
      </g>
      <path class="cls-2" d="M1340.52,420.07l-6.76-9.25h-37.82v18.49h37.82l6.76-9.25ZM1332.8,420.07c0-1.31,1.06-2.37,2.37-2.37s2.37,1.06,2.37,2.37-1.06,2.37-2.37,2.37-2.37-1.06-2.37-2.37Z"/>
      <rect class="cls-2" x="1262.92" y="333.97" width="78.55" height="12.75" transform="translate(1642.53 -961.85) rotate(90)"/>
      <path class="cls-40" d="M1315.66,528.68h-16.42l-3.85,9.4v23.58h25.04v-23.58l-4.76-9.4ZM1307.9,534.12c-1.07,0-1.94-.87-1.94-1.94s.87-1.94,1.94-1.94,1.94.87,1.94,1.94-.87,1.94-1.94,1.94Z"/>
      <path class="cls-2" d="M1310.91,258.76v-6.24l-4.41-4.41h-6.24l-4.41,4.41v6.24l4.41,4.41h6.24l4.41-4.41ZM1304.2,255.64c0-1.35,1.1-2.45,2.45-2.45s2.45,1.1,2.45,2.45-1.1,2.45-2.45,2.45-2.45-1.1-2.45-2.45Z"/>
      <path class="cls-40" d="M1282.57,478.02c3.58-1.28,8.29-3.38,7.81-6.77-.22-1.56-1.44-2.71-3.62-3.42-1.43-.46-3.37-.77-5.76-.93-4.68-.29-10.77.04-17.15.94-6.38.9-12.33,2.27-16.74,3.85-3.58,1.28-8.29,3.38-7.81,6.77.22,1.56,1.44,2.71,3.62,3.42,1.43.46,3.37.77,5.76.93,4.68.29,10.77-.04,17.15-.94s12.33-2.27,16.74-3.85ZM1241.49,478.15c-.38-2.66,9.77-6.28,22.66-8.1,12.89-1.82,23.64-1.14,24.02,1.51.38,2.66-9.77,6.28-22.66,8.1-12.89,1.82-23.64,1.14-24.02-1.51Z"/>
      <path class="cls-40" d="M1249.02,447.87c.93,3.33,2.52,7.73,5.63,7.52,1.43-.1,2.55-1.13,3.33-3.05.51-1.27.92-3,1.21-5.16.57-4.22.67-9.76.27-15.6-.4-5.84-1.25-11.31-2.39-15.42-.93-3.33-2.52-7.73-5.63-7.52-1.43.1-2.55,1.13-3.33,3.05-.51,1.27-.92,3-1.21,5.16-.57,4.22-.67,9.76-.27,15.6s1.25,11.31,2.39,15.42ZM1251.58,410.65c2.43-.17,5.06,9.26,5.86,21.06.81,11.8-.5,21.49-2.93,21.66s-5.06-9.26-5.86-21.06c-.81-11.8.5-21.49,2.93-21.66Z"/>
      <path class="cls-2" d="M1329.91,369.66v-14.19l-21.63-3.33v21.63l21.63-4.11ZM1322.54,362.96c0-1.4,1.13-2.53,2.53-2.53s2.53,1.13,2.53,2.53-1.13,2.53-2.53,2.53-2.53-1.13-2.53-2.53Z"/>
      <path class="cls-2" d="M1341.98,562.68v-14.19l-21.63-3.33v21.63l21.63-4.11ZM1334.6,555.98c0-1.4,1.13-2.53,2.53-2.53s2.53,1.13,2.53,2.53-1.13,2.53-2.53,2.53-2.53-1.13-2.53-2.53Z"/>
      <path class="cls-2" d="M1348.14,398.46l-8.16-11.15h-45.62v22.31h45.62l8.16-11.15ZM1339.16,398.46c0-1.49,1.21-2.7,2.7-2.7s2.7,1.21,2.7,2.7-1.21,2.7-2.7,2.7-2.7-1.21-2.7-2.7Z"/>
    </g>
    <g>
      <g>
        <rect class="cls-2" x="837.02" y="692.15" width="428.01" height="5.92"/>
        <rect class="cls-2" x="846.17" y="686.23" width="407.09" height="5.92"/>
        <rect class="cls-2" x="1051.02" y="650" width="11.63" height="36.23"/>
        <rect class="cls-2" x="855.42" y="650" width="11.63" height="36.23"/>
        <rect class="cls-2" x="1235.65" y="650" width="11.63" height="36.23"/>
      </g>
      <path class="cls-2" d="M1024.95,736.06v-37.82h-18.49v37.82l9.25,6.76,9.25-6.76ZM1018.07,737.47c0,1.31-1.06,2.37-2.37,2.37s-2.37-1.06-2.37-2.37,1.06-2.37,2.37-2.37,2.37,1.06,2.37,2.37Z"/>
      <rect class="cls-2" x="896.7" y="698.12" width="78.55" height="12.75"/>
      <path class="cls-40" d="M1133.72,722.72h23.58v-25.04h-23.58l-9.4,3.85v16.42l9.4,4.76ZM1127.82,712.14c-1.07,0-1.94-.87-1.94-1.94s.87-1.94,1.94-1.94,1.94.87,1.94,1.94-.87,1.94-1.94,1.94Z"/>
      <path class="cls-2" d="M858.8,708.8v-6.24l-4.41-4.41h-6.24l-4.41,4.41v6.24l4.41,4.41h6.24l4.41-4.41ZM853.72,708.95c0,1.35-1.1,2.45-2.45,2.45s-2.45-1.1-2.45-2.45,1.1-2.45,2.45-2.45,2.45,1.1,2.45,2.45Z"/>
      <path class="cls-40" d="M1077.5,668.13c.9-6.38,1.24-12.47.94-17.15-.15-2.39-.46-4.33-.93-5.76-.71-2.18-1.86-3.4-3.42-3.62-3.4-.48-5.49,4.23-6.77,7.81-1.58,4.42-2.95,10.36-3.85,16.74-.9,6.38-1.24,12.47-.94,17.15.15,2.39.46,4.33.93,5.76.71,2.18,1.86,3.4,3.42,3.62,3.4.48,5.49-4.23,6.77-7.81,1.58-4.42,2.95-10.36,3.85-16.74ZM1075.3,667.82c-1.82,12.89-5.45,23.04-8.1,22.66-2.66-.38-3.33-11.13-1.51-24.02,1.82-12.89,5.45-23.04,8.1-22.66,2.66.38,3.33,11.13,1.51,24.02Z"/>
      <path class="cls-40" d="M1028.08,648.93c-5.84-.4-11.38-.31-15.6.27-2.16.29-3.89.7-5.16,1.21-1.93.78-2.96,1.9-3.05,3.33-.21,3.11,4.19,4.7,7.52,5.63,4.11,1.14,9.58,1.99,15.42,2.39,5.84.4,11.38.31,15.6-.27,2.16-.29,3.89-.7,5.16-1.21,1.93-.78,2.96-1.9,3.05-3.33.21-3.11-4.19-4.7-7.52-5.63-4.11-1.14-9.58-1.99-15.42-2.39ZM1027.94,650.95c11.8.81,21.22,3.44,21.06,5.86s-9.86,3.74-21.66,2.93c-11.8-.81-21.22-3.44-21.06-5.86s9.86-3.74,21.66-2.93Z"/>
      <path class="cls-2" d="M969.41,710.59h-21.63l3.33,21.63h14.19l4.11-21.63ZM961.12,727.37c0,1.4-1.13,2.53-2.53,2.53s-2.53-1.13-2.53-2.53,1.13-2.53,2.53-2.53,2.53,1.13,2.53,2.53Z"/>
      <path class="cls-2" d="M1162.43,722.65h-21.63l3.33,21.63h14.19l4.11-21.63ZM1154.15,739.44c0,1.4-1.13,2.53-2.53,2.53s-2.53-1.13-2.53-2.53,1.13-2.53,2.53-2.53,2.53,1.13,2.53,2.53Z"/>
      <path class="cls-2" d="M1005.25,742.29v-45.62h-22.31v45.62l11.15,8.16,11.15-8.16ZM996.79,744.16c0,1.49-1.21,2.7-2.7,2.7s-2.7-1.21-2.7-2.7,1.21-2.7,2.7-2.7,2.7,1.21,2.7,2.7Z"/>
    </g>
    <g>
      <g>
        <rect class="cls-2" x="396.68" y="667.88" width="428.01" height="5.92" transform="translate(-60.18 60.18) rotate(-5.38)"/>
        <rect class="cls-2" x="405.28" y="662.1" width="407.09" height="5.92" transform="translate(-59.64 59.98) rotate(-5.38)"/>
        <rect class="cls-2" x="608.13" y="625.3" width="11.63" height="36.23" transform="translate(-57.59 60.36) rotate(-5.38)"/>
        <rect class="cls-2" x="413.38" y="643.63" width="11.63" height="36.23" transform="translate(-60.17 42.19) rotate(-5.38)"/>
        <rect class="cls-2" x="791.94" y="608" width="11.63" height="36.23" transform="translate(-55.16 77.51) rotate(-5.38)"/>
      </g>
      <path class="cls-40" d="M695.6,690.58l23.47-2.21-2.35-24.93-23.47,2.21-9,4.72,1.54,16.35,9.81,3.86ZM688.74,680.59c-1.06.1-2.01-.68-2.11-1.75s.68-2.01,1.75-2.11,2.01.68,2.11,1.75-.68,2.01-1.75,2.11Z"/>
      <path class="cls-40" d="M634.51,641.49c.3-6.44.06-12.53-.67-17.17-.37-2.37-.87-4.27-1.46-5.65-.91-2.1-2.17-3.21-3.74-3.28-3.43-.16-5.07,4.72-6.01,8.41-1.16,4.55-1.96,10.59-2.26,17.03s-.06,12.53.67,17.17c.37,2.37.87,4.27,1.46,5.65.91,2.1,2.17,3.21,3.74,3.28,3.43.16,5.07-4.72,6.01-8.41,1.16-4.55,1.96-10.59,2.26-17.03ZM632.29,641.39c-.61,13-3.27,23.45-5.95,23.32-2.68-.12-4.36-10.77-3.75-23.77.61-13,3.27-23.45,5.95-23.32s4.36,10.77,3.75,23.77Z"/>
      <path class="cls-40" d="M583.51,627.01c-5.85.15-11.36.76-15.51,1.73-2.12.49-3.81,1.06-5.02,1.69-1.85.96-2.77,2.17-2.73,3.61.08,3.11,4.61,4.29,8.01,4.9,4.19.75,9.73,1.09,15.58.94,5.85-.15,11.36-.76,15.51-1.73,2.12-.49,3.81-1.06,5.02-1.69,1.85-.96,2.77-2.17,2.73-3.61-.08-3.11-4.61-4.29-8.01-4.9-4.19-.75-9.73-1.09-15.58-.94ZM583.56,629.03c11.82-.3,21.45,1.43,21.51,3.87.06,2.43-9.47,4.65-21.29,4.95-11.82.3-21.45-1.43-21.51-3.87s9.47-4.65,21.29-4.95Z"/>
      <path class="cls-2" d="M724.18,687.82l-21.53,2.03,5.34,21.22,14.13-1.33,2.07-21.92ZM717.51,705.3c.13,1.39-.89,2.63-2.28,2.76s-2.63-.89-2.76-2.28.89-2.63,2.28-2.76,2.63.89,2.76,2.28Z"/>
    </g>
    <g>
      <path class="cls-41" d="M941.09,225.73l-14.17-3.03v-7.94h-9.45l-1.07,6.87-12.24,4.11,7.94,29.17-3.65,10.52v21.68h26.62l.43-16.96-4.94-15.03,10.52-29.38ZM922.02,226.98c-1.88,0-3.4-1.52-3.4-3.4s1.52-3.4,3.4-3.4,3.4,1.52,3.4,3.4-1.52,3.4-3.4,3.4Z"/>
      <rect class="cls-41" x="918.56" y="285.08" width="6.94" height="39.77"/>
    </g>
    <g>
      <rect class="cls-41" x="803.66" y="265.99" width="6.94" height="54.66"/>
      <path class="cls-41" d="M822.05,223.07l-10.59-2.27v-5.94h-7.06l-.8,5.14-9.15,3.07,5.94,21.8-2.73,7.86v16.21h19.9l.32-12.68-3.69-11.23,7.86-21.96ZM807.13,225.31c-1.44,0-2.61-1.17-2.61-2.61s1.17-2.61,2.61-2.61,2.61,1.17,2.61,2.61-1.17,2.61-2.61,2.61Z"/>
    </g>
    <g>
      <rect class="cls-8" x="853.01" y="280.88" width="6.94" height="39.77"/>
      <path class="cls-8" d="M874.94,221.53l-14.17-3.03v-7.94h-9.45l-1.07,6.87-12.24,4.11,7.94,29.17-3.65,10.52v21.68h26.62l.43-16.96-4.94-15.03,10.52-29.38ZM855.21,226.11c-2.24,0-4.06-1.82-4.06-4.06s1.82-4.06,4.06-4.06,4.06,1.82,4.06,4.06-1.82,4.06-4.06,4.06Z"/>
    </g>
    <g>
      <rect class="cls-41" x="1150.01" y="606.97" width="6.94" height="54.66"/>
      <path class="cls-41" d="M1160.54,682.58l3.69-11.23-.32-12.68h-19.9v16.21l2.73,7.86-5.94,21.8,9.15,3.07.8,5.14h7.06v-5.94l10.59-2.27-7.86-21.96ZM1156.09,704.91c0,1.44-1.17,2.61-2.61,2.61s-2.61-1.17-2.61-2.61,1.17-2.61,2.61-2.61,2.61,1.17,2.61,2.61Z"/>
    </g>
    <g>
      <rect class="cls-41" x="1199.36" y="606.97" width="6.94" height="39.77"/>
      <path class="cls-41" d="M1210.77,676.69l4.94-15.03-.43-16.96h-26.62v21.68l3.65,10.52-7.94,29.17,12.24,4.11,1.07,6.87h9.45v-7.94l14.17-3.03-10.52-29.38ZM1205.63,705.57c0,2.24-1.82,4.06-4.06,4.06s-4.06-1.82-4.06-4.06,1.82-4.06,4.06-4.06,4.06,1.82,4.06,4.06Z"/>
    </g>
    <rect class="cls-41" x="59.67" y="391.85" width="54.68" height="127.09"/>
    <g>
      <rect class="cls-40" x="994.42" y="322.46" width="200.68" height="6.15"/>
      <rect class="cls-40" x="991.89" y="328.46" width="190.59" height="6.15"/>
      <rect class="cls-40" x="1154.68" y="348.19" width="37.7" height="10.24" transform="translate(1526.84 -820.22) rotate(90)"/>
      <rect class="cls-40" x="998.79" y="348.19" width="37.7" height="10.24" transform="translate(1370.95 -664.33) rotate(90)"/>
      <path class="cls-40" d="M1205.98,327.99c-1.33-3.72-3.51-8.61-7.03-8.11-1.62.23-2.82,1.49-3.55,3.76-.48,1.49-.8,3.5-.96,5.98-.31,4.86.04,11.19.98,17.81.94,6.62,2.35,12.8,3.99,17.38,1.33,3.72,3.51,8.61,7.03,8.11,1.62-.23,2.82-1.49,3.55-3.76.48-1.49.8-3.5.96-5.98.31-4.86-.04-11.19-.98-17.81-.94-6.62-2.35-12.8-3.99-17.38ZM1206.12,370.63c-2.76.39-6.52-10.14-8.41-23.53-1.89-13.38-1.19-24.55,1.57-24.94,2.76-.39,6.52,10.14,8.41,23.53,1.89,13.38,1.19,24.55-1.57,24.94Z"/>
    </g>
    <path class="cls-40" d="M1069.97,635.94l4.14-37.05h-27.71l3.97,37.05-3.97,27.31h27.71l-4.14-27.31ZM1063.21,656.56c0,1.63-1.32,2.96-2.96,2.96s-2.96-1.32-2.96-2.96,1.32-2.96,2.96-2.96,2.96,1.32,2.96,2.96Z"/>
    <path class="cls-8" d="M1090.44,627.5l4.14-37.05h-27.71l3.97,37.05-3.97,27.31h27.71l-4.14-27.31ZM1083.68,648.12c0,1.63-1.32,2.96-2.96,2.96s-2.96-1.32-2.96-2.96,1.32-2.96,2.96-2.96,2.96,1.32,2.96,2.96Z"/>
    <path class="cls-40" d="M776.45,259.53h-27.71l3.97,27.31-3.97,37.05h27.71l-4.14-37.05,4.14-27.31ZM762.59,269.17c-1.63,0-2.96-1.32-2.96-2.96s1.32-2.96,2.96-2.96,2.96,1.32,2.96,2.96-1.32,2.96-2.96,2.96Z"/>
    <path class="cls-8" d="M796.92,267.96h-27.71l3.97,27.31-3.97,37.05h27.71l-4.14-37.05,4.14-27.31ZM783.06,277.61c-1.63,0-2.96-1.32-2.96-2.96s1.32-2.96,2.96-2.96,2.96,1.32,2.96,2.96-1.32,2.96-2.96,2.96Z"/>
    <g>
      <path class="cls-20" d="M1155.24,712.56l8.98-22.12-23.09-5.67-28.28-15.17-8.98,22.12,30.91,8.69,20.46,12.15ZM1148.25,696.84c.97-2.39,3.69-3.54,6.09-2.57,2.39.97,3.54,3.69,2.57,6.09s-3.69,3.54-6.09,2.57c-2.39-.97-3.54-3.69-2.57-6.09Z"/>
      <rect class="cls-40" x="1218.26" y="656.2" width="4.67" height="140" transform="translate(2352.44 -131.79) rotate(112.09)"/>
    </g>
    <g>
      <path class="cls-40" d="M662.54,122.16l-25.8,5.49,9.1,24.64,3.63,35.28,25.8-5.49-11.19-33.68-1.55-26.25ZM652.48,138.29c-2.79.59-5.53-1.19-6.12-3.98-.59-2.79,1.19-5.53,3.98-6.12,2.79-.59,5.53,1.19,6.12,3.98.59,2.79-1.19,5.53-3.98,6.12Z"/>
      <rect class="cls-40" x="636.23" y="9.52" width="3.7" height="122.06" transform="translate(-.72 134.22) rotate(-12)"/>
    </g>
    <g>
      <path class="cls-25" d="M1203.37,122.84h-18.92l2.71,18.65-2.71,25.3h18.92l-2.83-25.3,2.83-18.65ZM1193.91,132.66c-2.05,0-3.7-1.66-3.7-3.7s1.66-3.7,3.7-3.7,3.7,1.66,3.7,3.7-1.66,3.7-3.7,3.7Z"/>
      <path class="cls-41" d="M1198.48,122.38h-9.13l-6.46,6.46v9.13l6.46,6.46h9.13l6.46-6.46v-9.13l-6.46-6.46ZM1193.91,132.2c-1.98,0-3.59-1.61-3.59-3.59s1.61-3.59,3.59-3.59,3.59,1.61,3.59,3.59-1.61,3.59-3.59,3.59Z"/>
      <rect class="cls-40" x="1192.06" y="5.19" width="3.7" height="122.06"/>
    </g>
    <g>
      <path class="cls-41" d="M1093.04,130.02h-20.77l-4.87,31.66h31.66l-6.02-31.66ZM1083.24,140.81c-2.05,0-3.7-1.66-3.7-3.7s1.66-3.7,3.7-3.7,3.7,1.66,3.7,3.7-1.66,3.7-3.7,3.7Z"/>
      <path class="cls-1" d="M1092.7,131.46h-18.92l2.71,18.65-2.71,25.3h18.92l-2.83-25.3,2.83-18.65ZM1083.24,141.28c-2.05,0-3.7-1.66-3.7-3.7s1.66-3.7,3.7-3.7,3.7,1.66,3.7,3.7-1.66,3.7-3.7,3.7Z"/>
      <rect class="cls-40" x="1081.38" y="12.64" width="3.7" height="122.06"/>
    </g>
    <g>
      <path class="cls-20" d="M762.72,611.01h-31.66l4.87,31.66h20.77l6.02-31.66ZM750.59,635.58c0,2.05-1.66,3.7-3.7,3.7s-3.7-1.66-3.7-3.7,1.66-3.7,3.7-3.7,3.7,1.66,3.7,3.7Z"/>
      <path class="cls-1" d="M753.52,622.58l2.83-25.3h-18.92l2.71,25.3-2.71,18.65h18.92l-2.83-18.65ZM750.59,635.11c0,2.05-1.66,3.7-3.7,3.7s-3.7-1.66-3.7-3.7,1.66-3.7,3.7-3.7,3.7,1.66,3.7,3.7Z"/>
      <rect class="cls-40" x="745.04" y="637.99" width="3.7" height="122.06"/>
    </g>
    <g>
      <rect class="cls-40" x="883.99" y="277.98" width="8.34" height="47.82"/>
      <path class="cls-40" d="M911.92,206.61l-17.04-3.65v-9.55h-11.36l-1.29,8.26-14.71,4.94,9.55,35.08-4.39,12.65v26.08h32.01l.52-20.4-5.94-18.07,12.65-35.34ZM888.16,212.18c-2.3,0-4.17-1.87-4.17-4.17s1.87-4.17,4.17-4.17,4.17,1.87,4.17,4.17-1.87,4.17-4.17,4.17Z"/>
    </g>
    <path class="cls-41" d="M193.77,104.36h-68.31l9.79,67.33-9.79,91.33h68.31l-10.2-91.33,10.2-67.33ZM159.61,128.14c-4.03,0-7.29-3.27-7.29-7.29s3.27-7.29,7.29-7.29,7.29,3.27,7.29,7.29-3.27,7.29-7.29,7.29Z"/>
  </g>
</svg>