<?xml version="1.0" encoding="UTF-8"?>
<svg id="_图层_2" data-name="图层_2" xmlns="http://www.w3.org/2000/svg" viewBox="0 0 1302.88 732.23">
  <defs>
    <style>
      .cls-1 {
        fill: #ffffd9;
      }

      .cls-2 {
        fill: #f9fdb5;
      }
    </style>
  </defs>
  <g id="_图层_1-2" data-name="图层_1">
    <g>
      <g>
        <rect class="cls-1" width="93.06" height="18.31"/>
        <rect class="cls-2" x="93.06" width="93.06" height="18.31"/>
        <rect class="cls-2" y="18.31" width="93.06" height="18.31"/>
        <rect class="cls-1" x="93.06" y="18.31" width="93.06" height="18.31"/>
      </g>
      <g>
        <rect class="cls-1" x="186.13" width="93.06" height="18.31"/>
        <rect class="cls-2" x="279.19" width="93.06" height="18.31"/>
        <rect class="cls-2" x="186.13" y="18.31" width="93.06" height="18.31"/>
        <rect class="cls-1" x="279.19" y="18.31" width="93.06" height="18.31"/>
      </g>
      <g>
        <rect class="cls-1" x="372.25" width="93.06" height="18.31"/>
        <rect class="cls-2" x="465.31" width="93.06" height="18.31"/>
        <rect class="cls-2" x="372.25" y="18.31" width="93.06" height="18.31"/>
        <rect class="cls-1" x="465.31" y="18.31" width="93.06" height="18.31"/>
      </g>
      <g>
        <rect class="cls-1" x="558.38" width="93.06" height="18.31"/>
        <rect class="cls-2" x="651.44" width="93.06" height="18.31"/>
        <rect class="cls-2" x="558.38" y="18.31" width="93.06" height="18.31"/>
        <rect class="cls-1" x="651.44" y="18.31" width="93.06" height="18.31"/>
      </g>
      <g>
        <rect class="cls-1" x="744.5" width="93.06" height="18.31"/>
        <rect class="cls-2" x="837.57" width="93.06" height="18.31"/>
        <rect class="cls-2" x="744.5" y="18.31" width="93.06" height="18.31"/>
        <rect class="cls-1" x="837.57" y="18.31" width="93.06" height="18.31"/>
      </g>
      <g>
        <rect class="cls-1" x="930.63" width="93.06" height="18.31"/>
        <rect class="cls-2" x="1023.69" width="93.06" height="18.31"/>
        <rect class="cls-2" x="930.63" y="18.31" width="93.06" height="18.31"/>
        <rect class="cls-1" x="1023.69" y="18.31" width="93.06" height="18.31"/>
      </g>
      <g>
        <rect class="cls-1" x="1116.75" width="93.06" height="18.31"/>
        <rect class="cls-2" x="1209.82" width="93.06" height="18.31"/>
        <rect class="cls-2" x="1116.75" y="18.31" width="93.06" height="18.31"/>
        <rect class="cls-1" x="1209.82" y="18.31" width="93.06" height="18.31"/>
      </g>
      <g>
        <rect class="cls-1" y="36.61" width="93.06" height="18.31"/>
        <rect class="cls-2" x="93.06" y="36.61" width="93.06" height="18.31"/>
        <rect class="cls-2" y="54.92" width="93.06" height="18.31"/>
        <rect class="cls-1" x="93.06" y="54.92" width="93.06" height="18.31"/>
      </g>
      <g>
        <rect class="cls-1" x="186.13" y="36.61" width="93.06" height="18.31"/>
        <rect class="cls-2" x="279.19" y="36.61" width="93.06" height="18.31"/>
        <rect class="cls-2" x="186.13" y="54.92" width="93.06" height="18.31"/>
        <rect class="cls-1" x="279.19" y="54.92" width="93.06" height="18.31"/>
      </g>
      <g>
        <rect class="cls-1" x="372.25" y="36.61" width="93.06" height="18.31"/>
        <rect class="cls-2" x="465.31" y="36.61" width="93.06" height="18.31"/>
        <rect class="cls-2" x="372.25" y="54.92" width="93.06" height="18.31"/>
        <rect class="cls-1" x="465.31" y="54.92" width="93.06" height="18.31"/>
      </g>
      <g>
        <rect class="cls-1" x="558.38" y="36.61" width="93.06" height="18.31"/>
        <rect class="cls-2" x="651.44" y="36.61" width="93.06" height="18.31"/>
        <rect class="cls-2" x="558.38" y="54.92" width="93.06" height="18.31"/>
        <rect class="cls-1" x="651.44" y="54.92" width="93.06" height="18.31"/>
      </g>
      <g>
        <rect class="cls-1" x="744.5" y="36.61" width="93.06" height="18.31"/>
        <rect class="cls-2" x="837.57" y="36.61" width="93.06" height="18.31"/>
        <rect class="cls-2" x="744.5" y="54.92" width="93.06" height="18.31"/>
        <rect class="cls-1" x="837.57" y="54.92" width="93.06" height="18.31"/>
      </g>
      <g>
        <rect class="cls-1" x="930.63" y="36.61" width="93.06" height="18.31"/>
        <rect class="cls-2" x="1023.69" y="36.61" width="93.06" height="18.31"/>
        <rect class="cls-2" x="930.63" y="54.92" width="93.06" height="18.31"/>
        <rect class="cls-1" x="1023.69" y="54.92" width="93.06" height="18.31"/>
      </g>
      <g>
        <rect class="cls-1" x="1116.75" y="36.61" width="93.06" height="18.31"/>
        <rect class="cls-2" x="1209.82" y="36.61" width="93.06" height="18.31"/>
        <rect class="cls-2" x="1116.75" y="54.92" width="93.06" height="18.31"/>
        <rect class="cls-1" x="1209.82" y="54.92" width="93.06" height="18.31"/>
      </g>
      <g>
        <rect class="cls-1" y="73.22" width="93.06" height="18.31"/>
        <rect class="cls-2" x="93.06" y="73.22" width="93.06" height="18.31"/>
        <rect class="cls-2" y="91.53" width="93.06" height="18.31"/>
        <rect class="cls-1" x="93.06" y="91.53" width="93.06" height="18.31"/>
      </g>
      <g>
        <rect class="cls-1" x="186.13" y="73.22" width="93.06" height="18.31"/>
        <rect class="cls-2" x="279.19" y="73.22" width="93.06" height="18.31"/>
        <rect class="cls-2" x="186.13" y="91.53" width="93.06" height="18.31"/>
        <rect class="cls-1" x="279.19" y="91.53" width="93.06" height="18.31"/>
      </g>
      <g>
        <rect class="cls-1" x="372.25" y="73.22" width="93.06" height="18.31"/>
        <rect class="cls-2" x="465.31" y="73.22" width="93.06" height="18.31"/>
        <rect class="cls-2" x="372.25" y="91.53" width="93.06" height="18.31"/>
        <rect class="cls-1" x="465.31" y="91.53" width="93.06" height="18.31"/>
      </g>
      <g>
        <rect class="cls-1" x="558.38" y="73.22" width="93.06" height="18.31"/>
        <rect class="cls-2" x="651.44" y="73.22" width="93.06" height="18.31"/>
        <rect class="cls-2" x="558.38" y="91.53" width="93.06" height="18.31"/>
        <rect class="cls-1" x="651.44" y="91.53" width="93.06" height="18.31"/>
      </g>
      <g>
        <rect class="cls-1" x="744.5" y="73.22" width="93.06" height="18.31"/>
        <rect class="cls-2" x="837.57" y="73.22" width="93.06" height="18.31"/>
        <rect class="cls-2" x="744.5" y="91.53" width="93.06" height="18.31"/>
        <rect class="cls-1" x="837.57" y="91.53" width="93.06" height="18.31"/>
      </g>
      <g>
        <rect class="cls-1" x="930.63" y="73.22" width="93.06" height="18.31"/>
        <rect class="cls-2" x="1023.69" y="73.22" width="93.06" height="18.31"/>
        <rect class="cls-2" x="930.63" y="91.53" width="93.06" height="18.31"/>
        <rect class="cls-1" x="1023.69" y="91.53" width="93.06" height="18.31"/>
      </g>
      <g>
        <rect class="cls-1" x="1116.75" y="73.22" width="93.06" height="18.31"/>
        <rect class="cls-2" x="1209.82" y="73.22" width="93.06" height="18.31"/>
        <rect class="cls-2" x="1116.75" y="91.53" width="93.06" height="18.31"/>
        <rect class="cls-1" x="1209.82" y="91.53" width="93.06" height="18.31"/>
      </g>
      <g>
        <rect class="cls-1" y="109.83" width="93.06" height="18.31"/>
        <rect class="cls-2" x="93.06" y="109.83" width="93.06" height="18.31"/>
        <rect class="cls-2" y="128.14" width="93.06" height="18.31"/>
        <rect class="cls-1" x="93.06" y="128.14" width="93.06" height="18.31"/>
      </g>
      <g>
        <rect class="cls-1" x="186.13" y="109.83" width="93.06" height="18.31"/>
        <rect class="cls-2" x="279.19" y="109.83" width="93.06" height="18.31"/>
        <rect class="cls-2" x="186.13" y="128.14" width="93.06" height="18.31"/>
        <rect class="cls-1" x="279.19" y="128.14" width="93.06" height="18.31"/>
      </g>
      <g>
        <rect class="cls-1" x="372.25" y="109.83" width="93.06" height="18.31"/>
        <rect class="cls-2" x="465.31" y="109.83" width="93.06" height="18.31"/>
        <rect class="cls-2" x="372.25" y="128.14" width="93.06" height="18.31"/>
        <rect class="cls-1" x="465.31" y="128.14" width="93.06" height="18.31"/>
      </g>
      <g>
        <rect class="cls-1" x="558.38" y="109.83" width="93.06" height="18.31"/>
        <rect class="cls-2" x="651.44" y="109.83" width="93.06" height="18.31"/>
        <rect class="cls-2" x="558.38" y="128.14" width="93.06" height="18.31"/>
        <rect class="cls-1" x="651.44" y="128.14" width="93.06" height="18.31"/>
      </g>
      <g>
        <rect class="cls-1" x="744.5" y="109.83" width="93.06" height="18.31"/>
        <rect class="cls-2" x="837.57" y="109.83" width="93.06" height="18.31"/>
        <rect class="cls-2" x="744.5" y="128.14" width="93.06" height="18.31"/>
        <rect class="cls-1" x="837.57" y="128.14" width="93.06" height="18.31"/>
      </g>
      <g>
        <rect class="cls-1" x="930.63" y="109.83" width="93.06" height="18.31"/>
        <rect class="cls-2" x="1023.69" y="109.83" width="93.06" height="18.31"/>
        <rect class="cls-2" x="930.63" y="128.14" width="93.06" height="18.31"/>
        <rect class="cls-1" x="1023.69" y="128.14" width="93.06" height="18.31"/>
      </g>
      <g>
        <rect class="cls-1" x="1116.75" y="109.83" width="93.06" height="18.31"/>
        <rect class="cls-2" x="1209.82" y="109.83" width="93.06" height="18.31"/>
        <rect class="cls-2" x="1116.75" y="128.14" width="93.06" height="18.31"/>
        <rect class="cls-1" x="1209.82" y="128.14" width="93.06" height="18.31"/>
      </g>
      <g>
        <rect class="cls-1" y="146.45" width="93.06" height="18.31"/>
        <rect class="cls-2" x="93.06" y="146.45" width="93.06" height="18.31"/>
        <rect class="cls-2" y="164.75" width="93.06" height="18.31"/>
        <rect class="cls-1" x="93.06" y="164.75" width="93.06" height="18.31"/>
      </g>
      <g>
        <rect class="cls-1" x="186.13" y="146.45" width="93.06" height="18.31"/>
        <rect class="cls-2" x="279.19" y="146.45" width="93.06" height="18.31"/>
        <rect class="cls-2" x="186.13" y="164.75" width="93.06" height="18.31"/>
        <rect class="cls-1" x="279.19" y="164.75" width="93.06" height="18.31"/>
      </g>
      <g>
        <rect class="cls-1" x="372.25" y="146.45" width="93.06" height="18.31"/>
        <rect class="cls-2" x="465.31" y="146.45" width="93.06" height="18.31"/>
        <rect class="cls-2" x="372.25" y="164.75" width="93.06" height="18.31"/>
        <rect class="cls-1" x="465.31" y="164.75" width="93.06" height="18.31"/>
      </g>
      <g>
        <rect class="cls-1" x="558.38" y="146.45" width="93.06" height="18.31"/>
        <rect class="cls-2" x="651.44" y="146.45" width="93.06" height="18.31"/>
        <rect class="cls-2" x="558.38" y="164.75" width="93.06" height="18.31"/>
        <rect class="cls-1" x="651.44" y="164.75" width="93.06" height="18.31"/>
      </g>
      <g>
        <rect class="cls-1" x="744.5" y="146.45" width="93.06" height="18.31"/>
        <rect class="cls-2" x="837.57" y="146.45" width="93.06" height="18.31"/>
        <rect class="cls-2" x="744.5" y="164.75" width="93.06" height="18.31"/>
        <rect class="cls-1" x="837.57" y="164.75" width="93.06" height="18.31"/>
      </g>
      <g>
        <rect class="cls-1" x="930.63" y="146.45" width="93.06" height="18.31"/>
        <rect class="cls-2" x="1023.69" y="146.45" width="93.06" height="18.31"/>
        <rect class="cls-2" x="930.63" y="164.75" width="93.06" height="18.31"/>
        <rect class="cls-1" x="1023.69" y="164.75" width="93.06" height="18.31"/>
      </g>
      <g>
        <rect class="cls-1" x="1116.75" y="146.45" width="93.06" height="18.31"/>
        <rect class="cls-2" x="1209.82" y="146.45" width="93.06" height="18.31"/>
        <rect class="cls-2" x="1116.75" y="164.75" width="93.06" height="18.31"/>
        <rect class="cls-1" x="1209.82" y="164.75" width="93.06" height="18.31"/>
      </g>
      <g>
        <rect class="cls-1" y="183.06" width="93.06" height="18.31"/>
        <rect class="cls-2" x="93.06" y="183.06" width="93.06" height="18.31"/>
        <rect class="cls-2" y="201.36" width="93.06" height="18.31"/>
        <rect class="cls-1" x="93.06" y="201.36" width="93.06" height="18.31"/>
      </g>
      <g>
        <rect class="cls-1" x="186.13" y="183.06" width="93.06" height="18.31"/>
        <rect class="cls-2" x="279.19" y="183.06" width="93.06" height="18.31"/>
        <rect class="cls-2" x="186.13" y="201.36" width="93.06" height="18.31"/>
        <rect class="cls-1" x="279.19" y="201.36" width="93.06" height="18.31"/>
      </g>
      <g>
        <rect class="cls-1" x="372.25" y="183.06" width="93.06" height="18.31"/>
        <rect class="cls-2" x="465.31" y="183.06" width="93.06" height="18.31"/>
        <rect class="cls-2" x="372.25" y="201.36" width="93.06" height="18.31"/>
        <rect class="cls-1" x="465.31" y="201.36" width="93.06" height="18.31"/>
      </g>
      <g>
        <rect class="cls-1" x="558.38" y="183.06" width="93.06" height="18.31"/>
        <rect class="cls-2" x="651.44" y="183.06" width="93.06" height="18.31"/>
        <rect class="cls-2" x="558.38" y="201.36" width="93.06" height="18.31"/>
        <rect class="cls-1" x="651.44" y="201.36" width="93.06" height="18.31"/>
      </g>
      <g>
        <rect class="cls-1" x="744.5" y="183.06" width="93.06" height="18.31"/>
        <rect class="cls-2" x="837.57" y="183.06" width="93.06" height="18.31"/>
        <rect class="cls-2" x="744.5" y="201.36" width="93.06" height="18.31"/>
        <rect class="cls-1" x="837.57" y="201.36" width="93.06" height="18.31"/>
      </g>
      <g>
        <rect class="cls-1" x="930.63" y="183.06" width="93.06" height="18.31"/>
        <rect class="cls-2" x="1023.69" y="183.06" width="93.06" height="18.31"/>
        <rect class="cls-2" x="930.63" y="201.36" width="93.06" height="18.31"/>
        <rect class="cls-1" x="1023.69" y="201.36" width="93.06" height="18.31"/>
      </g>
      <g>
        <rect class="cls-1" x="1116.75" y="183.06" width="93.06" height="18.31"/>
        <rect class="cls-2" x="1209.82" y="183.06" width="93.06" height="18.31"/>
        <rect class="cls-2" x="1116.75" y="201.36" width="93.06" height="18.31"/>
        <rect class="cls-1" x="1209.82" y="201.36" width="93.06" height="18.31"/>
      </g>
      <g>
        <rect class="cls-1" y="219.67" width="93.06" height="18.31"/>
        <rect class="cls-2" x="93.06" y="219.67" width="93.06" height="18.31"/>
        <rect class="cls-2" y="237.97" width="93.06" height="18.31"/>
        <rect class="cls-1" x="93.06" y="237.97" width="93.06" height="18.31"/>
      </g>
      <g>
        <rect class="cls-1" x="186.13" y="219.67" width="93.06" height="18.31"/>
        <rect class="cls-2" x="279.19" y="219.67" width="93.06" height="18.31"/>
        <rect class="cls-2" x="186.13" y="237.97" width="93.06" height="18.31"/>
        <rect class="cls-1" x="279.19" y="237.97" width="93.06" height="18.31"/>
      </g>
      <g>
        <rect class="cls-1" x="372.25" y="219.67" width="93.06" height="18.31"/>
        <rect class="cls-2" x="465.31" y="219.67" width="93.06" height="18.31"/>
        <rect class="cls-2" x="372.25" y="237.97" width="93.06" height="18.31"/>
        <rect class="cls-1" x="465.31" y="237.97" width="93.06" height="18.31"/>
      </g>
      <g>
        <rect class="cls-1" x="558.38" y="219.67" width="93.06" height="18.31"/>
        <rect class="cls-2" x="651.44" y="219.67" width="93.06" height="18.31"/>
        <rect class="cls-2" x="558.38" y="237.97" width="93.06" height="18.31"/>
        <rect class="cls-1" x="651.44" y="237.97" width="93.06" height="18.31"/>
      </g>
      <g>
        <rect class="cls-1" x="744.5" y="219.67" width="93.06" height="18.31"/>
        <rect class="cls-2" x="837.57" y="219.67" width="93.06" height="18.31"/>
        <rect class="cls-2" x="744.5" y="237.97" width="93.06" height="18.31"/>
        <rect class="cls-1" x="837.57" y="237.97" width="93.06" height="18.31"/>
      </g>
      <g>
        <rect class="cls-1" x="930.63" y="219.67" width="93.06" height="18.31"/>
        <rect class="cls-2" x="1023.69" y="219.67" width="93.06" height="18.31"/>
        <rect class="cls-2" x="930.63" y="237.97" width="93.06" height="18.31"/>
        <rect class="cls-1" x="1023.69" y="237.97" width="93.06" height="18.31"/>
      </g>
      <g>
        <rect class="cls-1" x="1116.75" y="219.67" width="93.06" height="18.31"/>
        <rect class="cls-2" x="1209.82" y="219.67" width="93.06" height="18.31"/>
        <rect class="cls-2" x="1116.75" y="237.97" width="93.06" height="18.31"/>
        <rect class="cls-1" x="1209.82" y="237.97" width="93.06" height="18.31"/>
      </g>
      <g>
        <rect class="cls-1" y="256.28" width="93.06" height="18.31"/>
        <rect class="cls-2" x="93.06" y="256.28" width="93.06" height="18.31"/>
        <rect class="cls-2" y="274.59" width="93.06" height="18.31"/>
        <rect class="cls-1" x="93.06" y="274.59" width="93.06" height="18.31"/>
      </g>
      <g>
        <rect class="cls-1" x="186.13" y="256.28" width="93.06" height="18.31"/>
        <rect class="cls-2" x="279.19" y="256.28" width="93.06" height="18.31"/>
        <rect class="cls-2" x="186.13" y="274.59" width="93.06" height="18.31"/>
        <rect class="cls-1" x="279.19" y="274.59" width="93.06" height="18.31"/>
      </g>
      <g>
        <rect class="cls-1" x="372.25" y="256.28" width="93.06" height="18.31"/>
        <rect class="cls-2" x="465.31" y="256.28" width="93.06" height="18.31"/>
        <rect class="cls-2" x="372.25" y="274.59" width="93.06" height="18.31"/>
        <rect class="cls-1" x="465.31" y="274.59" width="93.06" height="18.31"/>
      </g>
      <g>
        <rect class="cls-1" x="558.38" y="256.28" width="93.06" height="18.31"/>
        <rect class="cls-2" x="651.44" y="256.28" width="93.06" height="18.31"/>
        <rect class="cls-2" x="558.38" y="274.59" width="93.06" height="18.31"/>
        <rect class="cls-1" x="651.44" y="274.59" width="93.06" height="18.31"/>
      </g>
      <g>
        <rect class="cls-1" x="744.5" y="256.28" width="93.06" height="18.31"/>
        <rect class="cls-2" x="837.57" y="256.28" width="93.06" height="18.31"/>
        <rect class="cls-2" x="744.5" y="274.59" width="93.06" height="18.31"/>
        <rect class="cls-1" x="837.57" y="274.59" width="93.06" height="18.31"/>
      </g>
      <g>
        <rect class="cls-1" x="930.63" y="256.28" width="93.06" height="18.31"/>
        <rect class="cls-2" x="1023.69" y="256.28" width="93.06" height="18.31"/>
        <rect class="cls-2" x="930.63" y="274.59" width="93.06" height="18.31"/>
        <rect class="cls-1" x="1023.69" y="274.59" width="93.06" height="18.31"/>
      </g>
      <g>
        <rect class="cls-1" x="1116.75" y="256.28" width="93.06" height="18.31"/>
        <rect class="cls-2" x="1209.82" y="256.28" width="93.06" height="18.31"/>
        <rect class="cls-2" x="1116.75" y="274.59" width="93.06" height="18.31"/>
        <rect class="cls-1" x="1209.82" y="274.59" width="93.06" height="18.31"/>
      </g>
      <g>
        <rect class="cls-1" y="292.89" width="93.06" height="18.31"/>
        <rect class="cls-2" x="93.06" y="292.89" width="93.06" height="18.31"/>
        <rect class="cls-2" y="311.2" width="93.06" height="18.31"/>
        <rect class="cls-1" x="93.06" y="311.2" width="93.06" height="18.31"/>
      </g>
      <g>
        <rect class="cls-1" x="186.13" y="292.89" width="93.06" height="18.31"/>
        <rect class="cls-2" x="279.19" y="292.89" width="93.06" height="18.31"/>
        <rect class="cls-2" x="186.13" y="311.2" width="93.06" height="18.31"/>
        <rect class="cls-1" x="279.19" y="311.2" width="93.06" height="18.31"/>
      </g>
      <g>
        <rect class="cls-1" x="372.25" y="292.89" width="93.06" height="18.31"/>
        <rect class="cls-2" x="465.31" y="292.89" width="93.06" height="18.31"/>
        <rect class="cls-2" x="372.25" y="311.2" width="93.06" height="18.31"/>
        <rect class="cls-1" x="465.31" y="311.2" width="93.06" height="18.31"/>
      </g>
      <g>
        <rect class="cls-1" x="558.38" y="292.89" width="93.06" height="18.31"/>
        <rect class="cls-2" x="651.44" y="292.89" width="93.06" height="18.31"/>
        <rect class="cls-2" x="558.38" y="311.2" width="93.06" height="18.31"/>
        <rect class="cls-1" x="651.44" y="311.2" width="93.06" height="18.31"/>
      </g>
      <g>
        <rect class="cls-1" x="744.5" y="292.89" width="93.06" height="18.31"/>
        <rect class="cls-2" x="837.57" y="292.89" width="93.06" height="18.31"/>
        <rect class="cls-2" x="744.5" y="311.2" width="93.06" height="18.31"/>
        <rect class="cls-1" x="837.57" y="311.2" width="93.06" height="18.31"/>
      </g>
      <g>
        <rect class="cls-1" x="930.63" y="292.89" width="93.06" height="18.31"/>
        <rect class="cls-2" x="1023.69" y="292.89" width="93.06" height="18.31"/>
        <rect class="cls-2" x="930.63" y="311.2" width="93.06" height="18.31"/>
        <rect class="cls-1" x="1023.69" y="311.2" width="93.06" height="18.31"/>
      </g>
      <g>
        <rect class="cls-1" x="1116.75" y="292.89" width="93.06" height="18.31"/>
        <rect class="cls-2" x="1209.82" y="292.89" width="93.06" height="18.31"/>
        <rect class="cls-2" x="1116.75" y="311.2" width="93.06" height="18.31"/>
        <rect class="cls-1" x="1209.82" y="311.2" width="93.06" height="18.31"/>
      </g>
      <g>
        <rect class="cls-1" y="329.5" width="93.06" height="18.31"/>
        <rect class="cls-2" x="93.06" y="329.5" width="93.06" height="18.31"/>
        <rect class="cls-2" y="347.81" width="93.06" height="18.31"/>
        <rect class="cls-1" x="93.06" y="347.81" width="93.06" height="18.31"/>
      </g>
      <g>
        <rect class="cls-1" x="186.13" y="329.5" width="93.06" height="18.31"/>
        <rect class="cls-2" x="279.19" y="329.5" width="93.06" height="18.31"/>
        <rect class="cls-2" x="186.13" y="347.81" width="93.06" height="18.31"/>
        <rect class="cls-1" x="279.19" y="347.81" width="93.06" height="18.31"/>
      </g>
      <g>
        <rect class="cls-1" x="372.25" y="329.5" width="93.06" height="18.31"/>
        <rect class="cls-2" x="465.31" y="329.5" width="93.06" height="18.31"/>
        <rect class="cls-2" x="372.25" y="347.81" width="93.06" height="18.31"/>
        <rect class="cls-1" x="465.31" y="347.81" width="93.06" height="18.31"/>
      </g>
      <g>
        <rect class="cls-1" x="558.38" y="329.5" width="93.06" height="18.31"/>
        <rect class="cls-2" x="651.44" y="329.5" width="93.06" height="18.31"/>
        <rect class="cls-2" x="558.38" y="347.81" width="93.06" height="18.31"/>
        <rect class="cls-1" x="651.44" y="347.81" width="93.06" height="18.31"/>
      </g>
      <g>
        <rect class="cls-1" x="744.5" y="329.5" width="93.06" height="18.31"/>
        <rect class="cls-2" x="837.57" y="329.5" width="93.06" height="18.31"/>
        <rect class="cls-2" x="744.5" y="347.81" width="93.06" height="18.31"/>
        <rect class="cls-1" x="837.57" y="347.81" width="93.06" height="18.31"/>
      </g>
      <g>
        <rect class="cls-1" x="930.63" y="329.5" width="93.06" height="18.31"/>
        <rect class="cls-2" x="1023.69" y="329.5" width="93.06" height="18.31"/>
        <rect class="cls-2" x="930.63" y="347.81" width="93.06" height="18.31"/>
        <rect class="cls-1" x="1023.69" y="347.81" width="93.06" height="18.31"/>
      </g>
      <g>
        <rect class="cls-1" x="1116.75" y="329.5" width="93.06" height="18.31"/>
        <rect class="cls-2" x="1209.82" y="329.5" width="93.06" height="18.31"/>
        <rect class="cls-2" x="1116.75" y="347.81" width="93.06" height="18.31"/>
        <rect class="cls-1" x="1209.82" y="347.81" width="93.06" height="18.31"/>
      </g>
      <g>
        <rect class="cls-1" y="366.11" width="93.06" height="18.31"/>
        <rect class="cls-2" x="93.06" y="366.11" width="93.06" height="18.31"/>
        <rect class="cls-2" y="384.42" width="93.06" height="18.31"/>
        <rect class="cls-1" x="93.06" y="384.42" width="93.06" height="18.31"/>
      </g>
      <g>
        <rect class="cls-1" x="186.13" y="366.11" width="93.06" height="18.31"/>
        <rect class="cls-2" x="279.19" y="366.11" width="93.06" height="18.31"/>
        <rect class="cls-2" x="186.13" y="384.42" width="93.06" height="18.31"/>
        <rect class="cls-1" x="279.19" y="384.42" width="93.06" height="18.31"/>
      </g>
      <g>
        <rect class="cls-1" x="372.25" y="366.11" width="93.06" height="18.31"/>
        <rect class="cls-2" x="465.31" y="366.11" width="93.06" height="18.31"/>
        <rect class="cls-2" x="372.25" y="384.42" width="93.06" height="18.31"/>
        <rect class="cls-1" x="465.31" y="384.42" width="93.06" height="18.31"/>
      </g>
      <g>
        <rect class="cls-1" x="558.38" y="366.11" width="93.06" height="18.31"/>
        <rect class="cls-2" x="651.44" y="366.11" width="93.06" height="18.31"/>
        <rect class="cls-2" x="558.38" y="384.42" width="93.06" height="18.31"/>
        <rect class="cls-1" x="651.44" y="384.42" width="93.06" height="18.31"/>
      </g>
      <g>
        <rect class="cls-1" x="744.5" y="366.11" width="93.06" height="18.31"/>
        <rect class="cls-2" x="837.57" y="366.11" width="93.06" height="18.31"/>
        <rect class="cls-2" x="744.5" y="384.42" width="93.06" height="18.31"/>
        <rect class="cls-1" x="837.57" y="384.42" width="93.06" height="18.31"/>
      </g>
      <g>
        <rect class="cls-1" x="930.63" y="366.11" width="93.06" height="18.31"/>
        <rect class="cls-2" x="1023.69" y="366.11" width="93.06" height="18.31"/>
        <rect class="cls-2" x="930.63" y="384.42" width="93.06" height="18.31"/>
        <rect class="cls-1" x="1023.69" y="384.42" width="93.06" height="18.31"/>
      </g>
      <g>
        <rect class="cls-1" x="1116.75" y="366.11" width="93.06" height="18.31"/>
        <rect class="cls-2" x="1209.82" y="366.11" width="93.06" height="18.31"/>
        <rect class="cls-2" x="1116.75" y="384.42" width="93.06" height="18.31"/>
        <rect class="cls-1" x="1209.82" y="384.42" width="93.06" height="18.31"/>
      </g>
      <g>
        <rect class="cls-1" y="402.73" width="93.06" height="18.31"/>
        <rect class="cls-2" x="93.06" y="402.73" width="93.06" height="18.31"/>
        <rect class="cls-2" y="421.03" width="93.06" height="18.31"/>
        <rect class="cls-1" x="93.06" y="421.03" width="93.06" height="18.31"/>
      </g>
      <g>
        <rect class="cls-1" x="186.13" y="402.73" width="93.06" height="18.31"/>
        <rect class="cls-2" x="279.19" y="402.73" width="93.06" height="18.31"/>
        <rect class="cls-2" x="186.13" y="421.03" width="93.06" height="18.31"/>
        <rect class="cls-1" x="279.19" y="421.03" width="93.06" height="18.31"/>
      </g>
      <g>
        <rect class="cls-1" x="372.25" y="402.73" width="93.06" height="18.31"/>
        <rect class="cls-2" x="465.31" y="402.73" width="93.06" height="18.31"/>
        <rect class="cls-2" x="372.25" y="421.03" width="93.06" height="18.31"/>
        <rect class="cls-1" x="465.31" y="421.03" width="93.06" height="18.31"/>
      </g>
      <g>
        <rect class="cls-1" x="558.38" y="402.73" width="93.06" height="18.31"/>
        <rect class="cls-2" x="651.44" y="402.73" width="93.06" height="18.31"/>
        <rect class="cls-2" x="558.38" y="421.03" width="93.06" height="18.31"/>
        <rect class="cls-1" x="651.44" y="421.03" width="93.06" height="18.31"/>
      </g>
      <g>
        <rect class="cls-1" x="744.5" y="402.73" width="93.06" height="18.31"/>
        <rect class="cls-2" x="837.57" y="402.73" width="93.06" height="18.31"/>
        <rect class="cls-2" x="744.5" y="421.03" width="93.06" height="18.31"/>
        <rect class="cls-1" x="837.57" y="421.03" width="93.06" height="18.31"/>
      </g>
      <g>
        <rect class="cls-1" x="930.63" y="402.73" width="93.06" height="18.31"/>
        <rect class="cls-2" x="1023.69" y="402.73" width="93.06" height="18.31"/>
        <rect class="cls-2" x="930.63" y="421.03" width="93.06" height="18.31"/>
        <rect class="cls-1" x="1023.69" y="421.03" width="93.06" height="18.31"/>
      </g>
      <g>
        <rect class="cls-1" x="1116.75" y="402.73" width="93.06" height="18.31"/>
        <rect class="cls-2" x="1209.82" y="402.73" width="93.06" height="18.31"/>
        <rect class="cls-2" x="1116.75" y="421.03" width="93.06" height="18.31"/>
        <rect class="cls-1" x="1209.82" y="421.03" width="93.06" height="18.31"/>
      </g>
      <g>
        <rect class="cls-1" y="439.34" width="93.06" height="18.31"/>
        <rect class="cls-2" x="93.06" y="439.34" width="93.06" height="18.31"/>
        <rect class="cls-2" y="457.64" width="93.06" height="18.31"/>
        <rect class="cls-1" x="93.06" y="457.64" width="93.06" height="18.31"/>
      </g>
      <g>
        <rect class="cls-1" x="186.13" y="439.34" width="93.06" height="18.31"/>
        <rect class="cls-2" x="279.19" y="439.34" width="93.06" height="18.31"/>
        <rect class="cls-2" x="186.13" y="457.64" width="93.06" height="18.31"/>
        <rect class="cls-1" x="279.19" y="457.64" width="93.06" height="18.31"/>
      </g>
      <g>
        <rect class="cls-1" x="372.25" y="439.34" width="93.06" height="18.31"/>
        <rect class="cls-2" x="465.31" y="439.34" width="93.06" height="18.31"/>
        <rect class="cls-2" x="372.25" y="457.64" width="93.06" height="18.31"/>
        <rect class="cls-1" x="465.31" y="457.64" width="93.06" height="18.31"/>
      </g>
      <g>
        <rect class="cls-1" x="558.38" y="439.34" width="93.06" height="18.31"/>
        <rect class="cls-2" x="651.44" y="439.34" width="93.06" height="18.31"/>
        <rect class="cls-2" x="558.38" y="457.64" width="93.06" height="18.31"/>
        <rect class="cls-1" x="651.44" y="457.64" width="93.06" height="18.31"/>
      </g>
      <g>
        <rect class="cls-1" x="744.5" y="439.34" width="93.06" height="18.31"/>
        <rect class="cls-2" x="837.57" y="439.34" width="93.06" height="18.31"/>
        <rect class="cls-2" x="744.5" y="457.64" width="93.06" height="18.31"/>
        <rect class="cls-1" x="837.57" y="457.64" width="93.06" height="18.31"/>
      </g>
      <g>
        <rect class="cls-1" x="930.63" y="439.34" width="93.06" height="18.31"/>
        <rect class="cls-2" x="1023.69" y="439.34" width="93.06" height="18.31"/>
        <rect class="cls-2" x="930.63" y="457.64" width="93.06" height="18.31"/>
        <rect class="cls-1" x="1023.69" y="457.64" width="93.06" height="18.31"/>
      </g>
      <g>
        <rect class="cls-1" x="1116.75" y="439.34" width="93.06" height="18.31"/>
        <rect class="cls-2" x="1209.82" y="439.34" width="93.06" height="18.31"/>
        <rect class="cls-2" x="1116.75" y="457.64" width="93.06" height="18.31"/>
        <rect class="cls-1" x="1209.82" y="457.64" width="93.06" height="18.31"/>
      </g>
      <g>
        <rect class="cls-1" y="475.95" width="93.06" height="18.31"/>
        <rect class="cls-2" x="93.06" y="475.95" width="93.06" height="18.31"/>
        <rect class="cls-2" y="494.25" width="93.06" height="18.31"/>
        <rect class="cls-1" x="93.06" y="494.25" width="93.06" height="18.31"/>
      </g>
      <g>
        <rect class="cls-1" x="186.13" y="475.95" width="93.06" height="18.31"/>
        <rect class="cls-2" x="279.19" y="475.95" width="93.06" height="18.31"/>
        <rect class="cls-2" x="186.13" y="494.25" width="93.06" height="18.31"/>
        <rect class="cls-1" x="279.19" y="494.25" width="93.06" height="18.31"/>
      </g>
      <g>
        <rect class="cls-1" x="372.25" y="475.95" width="93.06" height="18.31"/>
        <rect class="cls-2" x="465.31" y="475.95" width="93.06" height="18.31"/>
        <rect class="cls-2" x="372.25" y="494.25" width="93.06" height="18.31"/>
        <rect class="cls-1" x="465.31" y="494.25" width="93.06" height="18.31"/>
      </g>
      <g>
        <rect class="cls-1" x="558.38" y="475.95" width="93.06" height="18.31"/>
        <rect class="cls-2" x="651.44" y="475.95" width="93.06" height="18.31"/>
        <rect class="cls-2" x="558.38" y="494.25" width="93.06" height="18.31"/>
        <rect class="cls-1" x="651.44" y="494.25" width="93.06" height="18.31"/>
      </g>
      <g>
        <rect class="cls-1" x="744.5" y="475.95" width="93.06" height="18.31"/>
        <rect class="cls-2" x="837.57" y="475.95" width="93.06" height="18.31"/>
        <rect class="cls-2" x="744.5" y="494.25" width="93.06" height="18.31"/>
        <rect class="cls-1" x="837.57" y="494.25" width="93.06" height="18.31"/>
      </g>
      <g>
        <rect class="cls-1" x="930.63" y="475.95" width="93.06" height="18.31"/>
        <rect class="cls-2" x="1023.69" y="475.95" width="93.06" height="18.31"/>
        <rect class="cls-2" x="930.63" y="494.25" width="93.06" height="18.31"/>
        <rect class="cls-1" x="1023.69" y="494.25" width="93.06" height="18.31"/>
      </g>
      <g>
        <rect class="cls-1" x="1116.75" y="475.95" width="93.06" height="18.31"/>
        <rect class="cls-2" x="1209.82" y="475.95" width="93.06" height="18.31"/>
        <rect class="cls-2" x="1116.75" y="494.25" width="93.06" height="18.31"/>
        <rect class="cls-1" x="1209.82" y="494.25" width="93.06" height="18.31"/>
      </g>
      <g>
        <rect class="cls-1" y="512.56" width="93.06" height="18.31"/>
        <rect class="cls-2" x="93.06" y="512.56" width="93.06" height="18.31"/>
        <rect class="cls-2" y="530.87" width="93.06" height="18.31"/>
        <rect class="cls-1" x="93.06" y="530.87" width="93.06" height="18.31"/>
      </g>
      <g>
        <rect class="cls-1" x="186.13" y="512.56" width="93.06" height="18.31"/>
        <rect class="cls-2" x="279.19" y="512.56" width="93.06" height="18.31"/>
        <rect class="cls-2" x="186.13" y="530.87" width="93.06" height="18.31"/>
        <rect class="cls-1" x="279.19" y="530.87" width="93.06" height="18.31"/>
      </g>
      <g>
        <rect class="cls-1" x="372.25" y="512.56" width="93.06" height="18.31"/>
        <rect class="cls-2" x="465.31" y="512.56" width="93.06" height="18.31"/>
        <rect class="cls-2" x="372.25" y="530.87" width="93.06" height="18.31"/>
        <rect class="cls-1" x="465.31" y="530.87" width="93.06" height="18.31"/>
      </g>
      <g>
        <rect class="cls-1" x="558.38" y="512.56" width="93.06" height="18.31"/>
        <rect class="cls-2" x="651.44" y="512.56" width="93.06" height="18.31"/>
        <rect class="cls-2" x="558.38" y="530.87" width="93.06" height="18.31"/>
        <rect class="cls-1" x="651.44" y="530.87" width="93.06" height="18.31"/>
      </g>
      <g>
        <rect class="cls-1" x="744.5" y="512.56" width="93.06" height="18.31"/>
        <rect class="cls-2" x="837.57" y="512.56" width="93.06" height="18.31"/>
        <rect class="cls-2" x="744.5" y="530.87" width="93.06" height="18.31"/>
        <rect class="cls-1" x="837.57" y="530.87" width="93.06" height="18.31"/>
      </g>
      <g>
        <rect class="cls-1" x="930.63" y="512.56" width="93.06" height="18.31"/>
        <rect class="cls-2" x="1023.69" y="512.56" width="93.06" height="18.31"/>
        <rect class="cls-2" x="930.63" y="530.87" width="93.06" height="18.31"/>
        <rect class="cls-1" x="1023.69" y="530.87" width="93.06" height="18.31"/>
      </g>
      <g>
        <rect class="cls-1" x="1116.75" y="512.56" width="93.06" height="18.31"/>
        <rect class="cls-2" x="1209.82" y="512.56" width="93.06" height="18.31"/>
        <rect class="cls-2" x="1116.75" y="530.87" width="93.06" height="18.31"/>
        <rect class="cls-1" x="1209.82" y="530.87" width="93.06" height="18.31"/>
      </g>
      <g>
        <rect class="cls-1" y="549.17" width="93.06" height="18.31"/>
        <rect class="cls-2" x="93.06" y="549.17" width="93.06" height="18.31"/>
        <rect class="cls-2" y="567.48" width="93.06" height="18.31"/>
        <rect class="cls-1" x="93.06" y="567.48" width="93.06" height="18.31"/>
      </g>
      <g>
        <rect class="cls-1" x="186.13" y="549.17" width="93.06" height="18.31"/>
        <rect class="cls-2" x="279.19" y="549.17" width="93.06" height="18.31"/>
        <rect class="cls-2" x="186.13" y="567.48" width="93.06" height="18.31"/>
        <rect class="cls-1" x="279.19" y="567.48" width="93.06" height="18.31"/>
      </g>
      <g>
        <rect class="cls-1" x="372.25" y="549.17" width="93.06" height="18.31"/>
        <rect class="cls-2" x="465.31" y="549.17" width="93.06" height="18.31"/>
        <rect class="cls-2" x="372.25" y="567.48" width="93.06" height="18.31"/>
        <rect class="cls-1" x="465.31" y="567.48" width="93.06" height="18.31"/>
      </g>
      <g>
        <rect class="cls-1" x="558.38" y="549.17" width="93.06" height="18.31"/>
        <rect class="cls-2" x="651.44" y="549.17" width="93.06" height="18.31"/>
        <rect class="cls-2" x="558.38" y="567.48" width="93.06" height="18.31"/>
        <rect class="cls-1" x="651.44" y="567.48" width="93.06" height="18.31"/>
      </g>
      <g>
        <rect class="cls-1" x="744.5" y="549.17" width="93.06" height="18.31"/>
        <rect class="cls-2" x="837.57" y="549.17" width="93.06" height="18.31"/>
        <rect class="cls-2" x="744.5" y="567.48" width="93.06" height="18.31"/>
        <rect class="cls-1" x="837.57" y="567.48" width="93.06" height="18.31"/>
      </g>
      <g>
        <rect class="cls-1" x="930.63" y="549.17" width="93.06" height="18.31"/>
        <rect class="cls-2" x="1023.69" y="549.17" width="93.06" height="18.31"/>
        <rect class="cls-2" x="930.63" y="567.48" width="93.06" height="18.31"/>
        <rect class="cls-1" x="1023.69" y="567.48" width="93.06" height="18.31"/>
      </g>
      <g>
        <rect class="cls-1" x="1116.75" y="549.17" width="93.06" height="18.31"/>
        <rect class="cls-2" x="1209.82" y="549.17" width="93.06" height="18.31"/>
        <rect class="cls-2" x="1116.75" y="567.48" width="93.06" height="18.31"/>
        <rect class="cls-1" x="1209.82" y="567.48" width="93.06" height="18.31"/>
      </g>
      <g>
        <rect class="cls-1" y="585.78" width="93.06" height="18.31"/>
        <rect class="cls-2" x="93.06" y="585.78" width="93.06" height="18.31"/>
        <rect class="cls-2" y="604.09" width="93.06" height="18.31"/>
        <rect class="cls-1" x="93.06" y="604.09" width="93.06" height="18.31"/>
      </g>
      <g>
        <rect class="cls-1" x="186.13" y="585.78" width="93.06" height="18.31"/>
        <rect class="cls-2" x="279.19" y="585.78" width="93.06" height="18.31"/>
        <rect class="cls-2" x="186.13" y="604.09" width="93.06" height="18.31"/>
        <rect class="cls-1" x="279.19" y="604.09" width="93.06" height="18.31"/>
      </g>
      <g>
        <rect class="cls-1" x="372.25" y="585.78" width="93.06" height="18.31"/>
        <rect class="cls-2" x="465.31" y="585.78" width="93.06" height="18.31"/>
        <rect class="cls-2" x="372.25" y="604.09" width="93.06" height="18.31"/>
        <rect class="cls-1" x="465.31" y="604.09" width="93.06" height="18.31"/>
      </g>
      <g>
        <rect class="cls-1" x="558.38" y="585.78" width="93.06" height="18.31"/>
        <rect class="cls-2" x="651.44" y="585.78" width="93.06" height="18.31"/>
        <rect class="cls-2" x="558.38" y="604.09" width="93.06" height="18.31"/>
        <rect class="cls-1" x="651.44" y="604.09" width="93.06" height="18.31"/>
      </g>
      <g>
        <rect class="cls-1" x="744.5" y="585.78" width="93.06" height="18.31"/>
        <rect class="cls-2" x="837.57" y="585.78" width="93.06" height="18.31"/>
        <rect class="cls-2" x="744.5" y="604.09" width="93.06" height="18.31"/>
        <rect class="cls-1" x="837.57" y="604.09" width="93.06" height="18.31"/>
      </g>
      <g>
        <rect class="cls-1" x="930.63" y="585.78" width="93.06" height="18.31"/>
        <rect class="cls-2" x="1023.69" y="585.78" width="93.06" height="18.31"/>
        <rect class="cls-2" x="930.63" y="604.09" width="93.06" height="18.31"/>
        <rect class="cls-1" x="1023.69" y="604.09" width="93.06" height="18.31"/>
      </g>
      <g>
        <rect class="cls-1" x="1116.75" y="585.78" width="93.06" height="18.31"/>
        <rect class="cls-2" x="1209.82" y="585.78" width="93.06" height="18.31"/>
        <rect class="cls-2" x="1116.75" y="604.09" width="93.06" height="18.31"/>
        <rect class="cls-1" x="1209.82" y="604.09" width="93.06" height="18.31"/>
      </g>
      <g>
        <rect class="cls-1" y="622.39" width="93.06" height="18.31"/>
        <rect class="cls-2" x="93.06" y="622.39" width="93.06" height="18.31"/>
        <rect class="cls-2" y="640.7" width="93.06" height="18.31"/>
        <rect class="cls-1" x="93.06" y="640.7" width="93.06" height="18.31"/>
      </g>
      <g>
        <rect class="cls-1" x="186.13" y="622.39" width="93.06" height="18.31"/>
        <rect class="cls-2" x="279.19" y="622.39" width="93.06" height="18.31"/>
        <rect class="cls-2" x="186.13" y="640.7" width="93.06" height="18.31"/>
        <rect class="cls-1" x="279.19" y="640.7" width="93.06" height="18.31"/>
      </g>
      <g>
        <rect class="cls-1" x="372.25" y="622.39" width="93.06" height="18.31"/>
        <rect class="cls-2" x="465.31" y="622.39" width="93.06" height="18.31"/>
        <rect class="cls-2" x="372.25" y="640.7" width="93.06" height="18.31"/>
        <rect class="cls-1" x="465.31" y="640.7" width="93.06" height="18.31"/>
      </g>
      <g>
        <rect class="cls-1" x="558.38" y="622.39" width="93.06" height="18.31"/>
        <rect class="cls-2" x="651.44" y="622.39" width="93.06" height="18.31"/>
        <rect class="cls-2" x="558.38" y="640.7" width="93.06" height="18.31"/>
        <rect class="cls-1" x="651.44" y="640.7" width="93.06" height="18.31"/>
      </g>
      <g>
        <rect class="cls-1" x="744.5" y="622.39" width="93.06" height="18.31"/>
        <rect class="cls-2" x="837.57" y="622.39" width="93.06" height="18.31"/>
        <rect class="cls-2" x="744.5" y="640.7" width="93.06" height="18.31"/>
        <rect class="cls-1" x="837.57" y="640.7" width="93.06" height="18.31"/>
      </g>
      <g>
        <rect class="cls-1" x="930.63" y="622.39" width="93.06" height="18.31"/>
        <rect class="cls-2" x="1023.69" y="622.39" width="93.06" height="18.31"/>
        <rect class="cls-2" x="930.63" y="640.7" width="93.06" height="18.31"/>
        <rect class="cls-1" x="1023.69" y="640.7" width="93.06" height="18.31"/>
      </g>
      <g>
        <rect class="cls-1" x="1116.75" y="622.39" width="93.06" height="18.31"/>
        <rect class="cls-2" x="1209.82" y="622.39" width="93.06" height="18.31"/>
        <rect class="cls-2" x="1116.75" y="640.7" width="93.06" height="18.31"/>
        <rect class="cls-1" x="1209.82" y="640.7" width="93.06" height="18.31"/>
      </g>
      <g>
        <rect class="cls-1" y="659.01" width="93.06" height="18.31"/>
        <rect class="cls-2" x="93.06" y="659.01" width="93.06" height="18.31"/>
        <rect class="cls-2" y="677.31" width="93.06" height="18.31"/>
        <rect class="cls-1" x="93.06" y="677.31" width="93.06" height="18.31"/>
      </g>
      <g>
        <rect class="cls-1" x="186.13" y="659.01" width="93.06" height="18.31"/>
        <rect class="cls-2" x="279.19" y="659.01" width="93.06" height="18.31"/>
        <rect class="cls-2" x="186.13" y="677.31" width="93.06" height="18.31"/>
        <rect class="cls-1" x="279.19" y="677.31" width="93.06" height="18.31"/>
      </g>
      <g>
        <rect class="cls-1" x="372.25" y="659.01" width="93.06" height="18.31"/>
        <rect class="cls-2" x="465.31" y="659.01" width="93.06" height="18.31"/>
        <rect class="cls-2" x="372.25" y="677.31" width="93.06" height="18.31"/>
        <rect class="cls-1" x="465.31" y="677.31" width="93.06" height="18.31"/>
      </g>
      <g>
        <rect class="cls-1" x="558.38" y="659.01" width="93.06" height="18.31"/>
        <rect class="cls-2" x="651.44" y="659.01" width="93.06" height="18.31"/>
        <rect class="cls-2" x="558.38" y="677.31" width="93.06" height="18.31"/>
        <rect class="cls-1" x="651.44" y="677.31" width="93.06" height="18.31"/>
      </g>
      <g>
        <rect class="cls-1" x="744.5" y="659.01" width="93.06" height="18.31"/>
        <rect class="cls-2" x="837.57" y="659.01" width="93.06" height="18.31"/>
        <rect class="cls-2" x="744.5" y="677.31" width="93.06" height="18.31"/>
        <rect class="cls-1" x="837.57" y="677.31" width="93.06" height="18.31"/>
      </g>
      <g>
        <rect class="cls-1" x="930.63" y="659.01" width="93.06" height="18.31"/>
        <rect class="cls-2" x="1023.69" y="659.01" width="93.06" height="18.31"/>
        <rect class="cls-2" x="930.63" y="677.31" width="93.06" height="18.31"/>
        <rect class="cls-1" x="1023.69" y="677.31" width="93.06" height="18.31"/>
      </g>
      <g>
        <rect class="cls-1" x="1116.75" y="659.01" width="93.06" height="18.31"/>
        <rect class="cls-2" x="1209.82" y="659.01" width="93.06" height="18.31"/>
        <rect class="cls-2" x="1116.75" y="677.31" width="93.06" height="18.31"/>
        <rect class="cls-1" x="1209.82" y="677.31" width="93.06" height="18.31"/>
      </g>
      <g>
        <rect class="cls-1" y="695.62" width="93.06" height="18.31"/>
        <rect class="cls-2" x="93.06" y="695.62" width="93.06" height="18.31"/>
        <rect class="cls-2" y="713.92" width="93.06" height="18.31"/>
        <rect class="cls-1" x="93.06" y="713.92" width="93.06" height="18.31"/>
      </g>
      <g>
        <rect class="cls-1" x="186.13" y="695.62" width="93.06" height="18.31"/>
        <rect class="cls-2" x="279.19" y="695.62" width="93.06" height="18.31"/>
        <rect class="cls-2" x="186.13" y="713.92" width="93.06" height="18.31"/>
        <rect class="cls-1" x="279.19" y="713.92" width="93.06" height="18.31"/>
      </g>
      <g>
        <rect class="cls-1" x="372.25" y="695.62" width="93.06" height="18.31"/>
        <rect class="cls-2" x="465.31" y="695.62" width="93.06" height="18.31"/>
        <rect class="cls-2" x="372.25" y="713.92" width="93.06" height="18.31"/>
        <rect class="cls-1" x="465.31" y="713.92" width="93.06" height="18.31"/>
      </g>
      <g>
        <rect class="cls-1" x="558.38" y="695.62" width="93.06" height="18.31"/>
        <rect class="cls-2" x="651.44" y="695.62" width="93.06" height="18.31"/>
        <rect class="cls-2" x="558.38" y="713.92" width="93.06" height="18.31"/>
        <rect class="cls-1" x="651.44" y="713.92" width="93.06" height="18.31"/>
      </g>
      <g>
        <rect class="cls-1" x="744.5" y="695.62" width="93.06" height="18.31"/>
        <rect class="cls-2" x="837.57" y="695.62" width="93.06" height="18.31"/>
        <rect class="cls-2" x="744.5" y="713.92" width="93.06" height="18.31"/>
        <rect class="cls-1" x="837.57" y="713.92" width="93.06" height="18.31"/>
      </g>
      <g>
        <rect class="cls-1" x="930.63" y="695.62" width="93.06" height="18.31"/>
        <rect class="cls-2" x="1023.69" y="695.62" width="93.06" height="18.31"/>
        <rect class="cls-2" x="930.63" y="713.92" width="93.06" height="18.31"/>
        <rect class="cls-1" x="1023.69" y="713.92" width="93.06" height="18.31"/>
      </g>
      <g>
        <rect class="cls-1" x="1116.75" y="695.62" width="93.06" height="18.31"/>
        <rect class="cls-2" x="1209.82" y="695.62" width="93.06" height="18.31"/>
        <rect class="cls-2" x="1116.75" y="713.92" width="93.06" height="18.31"/>
        <rect class="cls-1" x="1209.82" y="713.92" width="93.06" height="18.31"/>
      </g>
    </g>
  </g>
</svg>