<?xml version="1.0" encoding="UTF-8"?>
<svg id="_图层_2" data-name="图层_2" xmlns="http://www.w3.org/2000/svg" viewBox="0 0 519.17 519.17">
  <defs>
    <style>
      .cls-1 {
        stroke-width: .25px;
      }

      .cls-1, .cls-2 {
        fill: #dce6ff;
        stroke: red;
        stroke-miterlimit: 10;
      }

      .cls-2 {
        stroke-width: .25px;
      }
    </style>
  </defs>
  <g id="_图层_1-2" data-name="图层_1">
    <g>
      <g>
        <g id="_x3C_径向重复_x3E_">
          <rect class="cls-2" x="231.04" y="483.85" width="54.66" height="33.87" transform="translate(514.23 1002.86) rotate(-179.71)"/>
          <rect class="cls-2" x="253.73" y="480.37" width="9.47" height="5.7" transform="translate(516.93 966.45) rotate(180)"/>
        </g>
        <g id="_x3C_径向重复_x3E_-2" data-name="_x3C_径向重复_x3E_">
          <rect class="cls-2" x="163.14" y="473.74" width="54.66" height="33.87" transform="translate(232.35 1015.35) rotate(-163.35)"/>
          <rect class="cls-2" x="190.77" y="471" width="9.47" height="5.7" transform="translate(249.58 983.58) rotate(-163.64)"/>
        </g>
        <g id="_x3C_径向重复_x3E_-3" data-name="_x3C_径向重复_x3E_">
          <rect class="cls-2" x="100.83" y="444.91" width="54.66" height="33.87" transform="translate(-16 918.94) rotate(-146.98)"/>
          <rect class="cls-2" x="133" y="444.26" width="9.47" height="5.7" transform="translate(11.87 897.72) rotate(-147.27)"/>
        </g>
        <g id="_x3C_径向重复_x3E_-4" data-name="_x3C_径向重复_x3E_">
          <rect class="cls-2" x="49.17" y="399.69" width="54.66" height="33.87" transform="translate(-189.92 745.94) rotate(-130.62)"/>
          <rect class="cls-2" x="85.1" y="402.34" width="9.47" height="5.7" transform="translate(-157.56 738.42) rotate(-130.91)"/>
        </g>
        <g id="_x3C_径向重复_x3E_-5" data-name="_x3C_径向重复_x3E_">
          <rect class="cls-2" x="12.35" y="341.75" width="54.66" height="33.87" transform="translate(-271.03 542.22) rotate(-114.26)"/>
          <rect class="cls-2" x="50.95" y="348.62" width="9.47" height="5.7" transform="translate(-240.88 548.13) rotate(-114.55)"/>
        </g>
        <g id="_x3C_径向重复_x3E_-6" data-name="_x3C_径向重复_x3E_">
          <rect class="cls-2" x="-6.66" y="275.78" width="54.66" height="33.87" transform="translate(-266.43 353.39) rotate(-97.89)"/>
          <rect class="cls-2" x="33.33" y="287.45" width="9.47" height="5.7" transform="translate(-243.87 369.29) rotate(-98.18)"/>
        </g>
        <g id="_x3C_径向重复_x3E_-7" data-name="_x3C_径向重复_x3E_">
          <rect class="cls-2" x="-6.32" y="207.13" width="54.66" height="33.87" transform="translate(-203.7 211.84) rotate(-81.53)"/>
          <rect class="cls-2" x="33.65" y="223.8" width="9.47" height="5.7" transform="translate(-191.42 232.38) rotate(-81.82)"/>
        </g>
        <g id="_x3C_径向重复_x3E_-8" data-name="_x3C_径向重复_x3E_">
          <rect class="cls-2" x="13.35" y="141.35" width="54.66" height="33.87" transform="translate(-120.05 128.73) rotate(-65.17)"/>
          <rect class="cls-2" x="51.89" y="162.81" width="9.47" height="5.7" transform="translate(-117.59 148.35) rotate(-65.45)"/>
        </g>
        <g id="_x3C_径向重复_x3E_-9" data-name="_x3C_径向重复_x3E_">
          <rect class="cls-2" x="50.76" y="83.78" width="54.66" height="33.87" transform="translate(-49.13 93.14) rotate(-48.8)"/>
          <rect class="cls-2" x="86.57" y="109.43" width="9.47" height="5.7" transform="translate(-53.35 107.76) rotate(-49.09)"/>
        </g>
        <g id="_x3C_径向重复_x3E_-10" data-name="_x3C_径向重复_x3E_">
          <rect class="cls-2" x="102.87" y="39.09" width="54.66" height="33.87" transform="translate(-9.73 78.58) rotate(-32.44)"/>
          <rect class="cls-2" x="134.89" y="67.99" width="9.47" height="5.7" transform="translate(-16.13 86.73) rotate(-32.73)"/>
        </g>
        <g id="_x3C_径向重复_x3E_-11" data-name="_x3C_径向重复_x3E_">
          <rect class="cls-2" x="165.46" y="10.88" width="54.66" height="33.87" transform="translate(-.16 54.47) rotate(-16.08)"/>
          <rect class="cls-2" x="192.92" y="41.84" width="9.47" height="5.7" transform="translate(-4.58 57.5) rotate(-16.36)"/>
        </g>
        <g id="_x3C_径向重复_x3E_-12" data-name="_x3C_径向重复_x3E_">
          <rect class="cls-2" x="233.47" y="1.45" width="54.66" height="33.87" transform="translate(.1 -1.31) rotate(.29)"/>
          <rect class="cls-2" x="255.97" y="33.1" width="9.47" height="5.7"/>
        </g>
        <g id="_x3C_径向重复_x3E_-13" data-name="_x3C_径向重复_x3E_">
          <rect class="cls-2" x="301.37" y="11.56" width="54.66" height="33.87" transform="translate(21.95 -92.99) rotate(16.65)"/>
          <rect class="cls-2" x="318.93" y="42.47" width="9.47" height="5.7" transform="translate(25.88 -89.35) rotate(16.36)"/>
        </g>
        <g id="_x3C_径向重复_x3E_-14" data-name="_x3C_径向重复_x3E_">
          <rect class="cls-2" x="363.68" y="40.4" width="54.66" height="33.87" transform="translate(94.37 -203.79) rotate(33.02)"/>
          <rect class="cls-2" x="376.7" y="69.2" width="9.47" height="5.7" transform="translate(99.51 -194.78) rotate(32.73)"/>
        </g>
        <g id="_x3C_径向重复_x3E_-15" data-name="_x3C_径向重复_x3E_">
          <rect class="cls-2" x="415.34" y="85.61" width="54.66" height="33.87" transform="translate(232.3 -300.21) rotate(49.38)"/>
          <rect class="cls-2" x="424.6" y="111.13" width="9.47" height="5.7" transform="translate(234.32 -285.13) rotate(49.09)"/>
        </g>
        <g id="_x3C_径向重复_x3E_-16" data-name="_x3C_径向重复_x3E_">
          <rect class="cls-2" x="452.16" y="143.56" width="54.66" height="33.87" transform="translate(428.82 -342.6) rotate(65.74)"/>
          <rect class="cls-2" x="458.75" y="164.85" width="9.47" height="5.7" transform="translate(423.49 -323.56) rotate(65.45)"/>
        </g>
        <g id="_x3C_径向重复_x3E_-17" data-name="_x3C_径向重复_x3E_">
          <rect class="cls-2" x="471.17" y="209.52" width="54.66" height="33.87" transform="translate(654.35 -298.42) rotate(82.11)"/>
          <rect class="cls-2" x="476.37" y="226.02" width="9.47" height="5.7" transform="translate(639.18 -279.91) rotate(81.82)"/>
        </g>
        <g id="_x3C_径向重复_x3E_-18" data-name="_x3C_径向重复_x3E_">
          <rect class="cls-2" x="470.83" y="278.18" width="54.66" height="33.87" transform="translate(863.42 -154.15) rotate(98.47)"/>
          <rect class="cls-2" x="476.05" y="289.67" width="9.47" height="5.7" transform="translate(838.76 -141.74) rotate(98.18)"/>
        </g>
        <g id="_x3C_径向重复_x3E_-19" data-name="_x3C_径向重复_x3E_">
          <rect class="cls-2" x="451.15" y="343.95" width="54.66" height="33.87" transform="translate(1006.95 78.21) rotate(114.83)"/>
          <rect class="cls-2" x="457.81" y="350.66" width="9.47" height="5.7" transform="translate(976.26 79.62) rotate(114.55)"/>
        </g>
        <g id="_x3C_径向重复_x3E_-20" data-name="_x3C_径向重复_x3E_">
          <rect class="cls-2" x="413.75" y="401.52" width="54.66" height="33.87" transform="translate(1046.46 362.18) rotate(131.2)"/>
          <rect class="cls-2" x="423.13" y="404.04" width="9.47" height="5.7" transform="translate(1015.56 349.98) rotate(130.91)"/>
        </g>
        <g id="_x3C_径向重复_x3E_-21" data-name="_x3C_径向重复_x3E_">
          <rect class="cls-2" x="361.64" y="446.22" width="54.66" height="33.87" transform="translate(965.68 645.38) rotate(147.56)"/>
          <rect class="cls-2" x="374.81" y="445.48" width="9.47" height="5.7" transform="translate(941.23 620.29) rotate(147.27)"/>
        </g>
        <g id="_x3C_径向重复_x3E_-22" data-name="_x3C_径向重复_x3E_">
          <rect class="cls-2" x="299.05" y="474.42" width="54.66" height="33.87" transform="translate(776.05 873.12) rotate(163.92)"/>
          <rect class="cls-2" x="316.78" y="471.63" width="9.47" height="5.7" transform="translate(763.68 839.16) rotate(163.64)"/>
        </g>
      </g>
      <path class="cls-1" d="M259.59,38.8c-121.94,0-220.79,98.85-220.79,220.79s98.85,220.79,220.79,220.79,220.79-98.85,220.79-220.79S381.52,38.8,259.59,38.8ZM259.59,469.66c-115.84,0-210.08-94.24-210.08-210.08S143.75,49.51,259.59,49.51s210.08,94.24,210.08,210.08-94.24,210.08-210.08,210.08Z"/>
    </g>
  </g>
</svg>