<?xml version="1.0" encoding="UTF-8"?>
<svg id="_图层_2" data-name="图层_2" xmlns="http://www.w3.org/2000/svg" viewBox="0 0 1265.1 569">
  <defs>
    <style>
      .cls-1, .cls-2, .cls-3 {
        stroke-width: .5px;
      }

      .cls-1, .cls-2, .cls-3, .cls-4, .cls-5 {
        stroke-miterlimit: 10;
      }

      .cls-1, .cls-2, .cls-3, .cls-5 {
        stroke: red;
      }

      .cls-1, .cls-5 {
        fill: #ff5c5a;
      }

      .cls-2 {
        fill: #9afffc;
      }

      .cls-3 {
        fill: #fff;
      }

      .cls-4 {
        stroke: #fd0200;
        stroke-width: .25px;
      }
    </style>
  </defs>
  <g id="_图层_1-2" data-name="图层_1">
    <g>
      <rect class="cls-1" x="658.28" y="381.25" width="606.58" height="120.6"/>
      <g>
        <rect class="cls-2" x=".25" y="484.35" width="427.82" height="29" transform="translate(428.33 997.7) rotate(180)"/>
        <rect class="cls-2" x="28.01" y="513.25" width="5" height="55"/>
        <rect class="cls-2" x="396.01" y="513.25" width="5" height="55"/>
      </g>
      <g>
        <g>
          <rect class="cls-3" x="855.01" y="366.25" width="19" height="13"/>
          <rect class="cls-3" x="861.01" y="379.25" width="8" height="17"/>
          <rect class="cls-3" x="857.01" y="396.25" width="17" height="5"/>
          <rect class="cls-3" x="857.01" y="401.25" width="17" height="5"/>
        </g>
        <g>
          <rect class="cls-3" x="757.01" y="305.25" width="88" height="63"/>
          <rect class="cls-3" x="782.01" y="368.25" width="37" height="6"/>
          <rect class="cls-3" x="774.01" y="374.25" width="54" height="9"/>
          <rect class="cls-3" x="760.01" y="383.25" width="80" height="23"/>
          <rect class="cls-3" x="779.01" y="394.25" width="44" height="3"/>
        </g>
        <g>
          <rect class="cls-3" x="716.01" y="377.25" width="27" height="29"/>
          <rect class="cls-3" x="721.01" y="374.25" width="17" height="9"/>
          <rect class="cls-3" x="732.01" y="387.25" width="7" height="14"/>
          <rect class="cls-3" x="721.01" y="378.25" width="17" height="2"/>
        </g>
      </g>
      <g>
        <rect class="cls-2" x="649.63" y="420.13" width="296.38" height="115.12"/>
        <rect class="cls-2" x="633.91" y="406.67" width="328.11" height="13.58"/>
        <rect class="cls-2" x="633.91" y="534.67" width="328.11" height="13.58"/>
      </g>
      <g>
        <g>
          <rect class="cls-2" x="467.53" y="34.91" width="289.02" height="62.49" transform="translate(1224.09 132.31) rotate(180)"/>
          <rect class="cls-2" x="381.51" y="97.19" width="217.52" height="45.06" transform="translate(980.55 239.43) rotate(180)"/>
          <rect class="cls-2" x="552.89" y=".25" width="219.67" height="34.88" transform="translate(1325.44 35.38) rotate(180)"/>
          <rect class="cls-2" x="698.48" y="97.4" width="7.24" height="409.35" transform="translate(1404.19 604.14) rotate(180)"/>
          <rect class="cls-2" x="439.43" y="97.4" width="7.24" height="409.35" transform="translate(886.09 604.15) rotate(180)"/>
          <rect class="cls-2" x="428.55" y="506.26" width="289.02" height="62.49" transform="translate(1146.12 1075) rotate(180)"/>
        </g>
        <g>
          <path class="cls-4" d="M563.96,56.42h5.47c1.1,0,2.08.16,2.92.49s1.5.84,1.99,1.54c.49.7.73,1.58.73,2.65s-.24,1.96-.71,2.65c-.47.7-1.13,1.21-1.98,1.54-.85.33-1.83.49-2.95.49h-3.89v7.44h-1.58v-16.8ZM572.44,63.55c.68-.58,1.02-1.39,1.02-2.45s-.34-1.88-1.02-2.46c-.68-.58-1.69-.88-3.04-.88h-3.86v6.65h3.86c1.34,0,2.36-.29,3.04-.86Z"/>
          <path class="cls-4" d="M582.29,56.42h1.92l5.71,16.8h-1.68l-4.37-13.22c-.3-.96-.52-1.62-.65-1.99-.11.37-.32,1.03-.62,1.99l-4.34,13.22h-1.58l5.62-16.8ZM579.39,66.62h7.78v1.34h-7.78v-1.34Z"/>
          <path class="cls-4" d="M596.86,65.95l-5.4-9.53h1.75l3.46,6.31.29.53c.14.22.38.65.72,1.27.45-.8.78-1.39,1.01-1.78l3.55-6.34h1.73l-5.52,9.53v7.27h-1.58v-7.27Z"/>
          <path class="cls-4" d="M606.48,56.42h2.26l2.76,8.74.36,1.13c.1.32.19.63.29.94.19-.64.41-1.33.65-2.06l2.69-8.74h2.21v16.8h-1.42l.05-11.93c0-1.33,0-2.41.02-3.24l-3.38,10.97h-1.7l-3.43-10.97c.02.96.02,2.02.02,3.17l.07,12h-1.44v-16.8Z"/>
          <path class="cls-4" d="M621.53,56.42h10.56v1.34h-8.98v6.22h8.57v1.37h-8.57v6.5h9.26v1.37h-10.85v-16.8Z"/>
          <path class="cls-4" d="M635.55,56.42h2.42l6.72,14.95v-14.95h1.56v16.8h-2.35l-6.79-15.17v15.17h-1.56v-16.8Z"/>
          <path class="cls-4" d="M654.51,57.76h-5.66v-1.34h12.91v1.34h-5.66v15.46h-1.58v-15.46Z"/>
        </g>
        <g>
          <rect class="cls-5" x="395.77" y="116.36" width="21.31" height="7.37" transform="translate(526.47 -286.38) rotate(90)"/>
          <rect class="cls-5" x="395.77" y="116.48" width="21.31" height="7.37" transform="translate(812.85 240.32) rotate(180)"/>
        </g>
      </g>
    </g>
  </g>
</svg>