<?xml version="1.0" encoding="UTF-8"?>
<svg id="_图层_2" data-name="图层_2" xmlns="http://www.w3.org/2000/svg" viewBox="0 0 106.15 62.76">
  <defs>
    <style>
      .cls-1 {
        fill: #fff;
      }

      .cls-2 {
        stroke: #fb281d;
        stroke-miterlimit: 10;
        stroke-width: .25px;
      }

      .cls-3 {
        fill: #fb281d;
      }
    </style>
  </defs>
  <g id="_图层_1-2" data-name="图层_1">
    <g>
      <polygon class="cls-1" points="105.65 62.18 52.44 54.42 .5 62.18 .5 7.65 52.44 .5 105.65 7.65 105.65 62.18"/>
      <path class="cls-3" d="M0,62.76V7.22L52.43,0h.07s53.65,7.22,53.65,7.22v55.55l-53.71-7.84L0,62.76ZM52.43,53.91l52.71,7.69V8.09L52.44,1.01,1,8.09v53.51l51.43-7.69Z"/>
    </g>
    <g>
      <path class="cls-2" d="M22.43,18.04h.87v1.26c.13-.45.33-.81.61-1.07.28-.26.62-.4,1.04-.4.38,0,.7.13.97.4.27.27.44.64.52,1.12.16-.47.39-.84.68-1.11.29-.27.66-.41,1.09-.41.37,0,.68.1.92.3.24.2.43.49.55.86s.18.81.18,1.33v4.93h-.88v-4.79c0-.59-.08-1.05-.23-1.38-.16-.33-.42-.5-.8-.5-.45,0-.79.24-1.02.71s-.34,1.05-.34,1.72v4.23h-.87v-4.74c0-.61-.08-1.08-.24-1.42-.16-.33-.42-.5-.79-.5-.31,0-.57.12-.77.37s-.35.55-.45.93c-.1.38-.14.76-.14,1.16v4.2h-.87v-7.21Z"/>
      <path class="cls-2" d="M33.47,25.02c-.52-.3-.92-.74-1.21-1.32s-.43-1.28-.43-2.08c0-.72.15-1.37.45-1.94s.71-1.03,1.21-1.35c.51-.32,1.08-.49,1.7-.49.68,0,1.26.16,1.75.46.48.31.85.75,1.1,1.31.25.57.38,1.22.38,1.97v.21h-5.62c0,.61.1,1.13.31,1.58s.5.77.88,1c.38.23.81.34,1.3.34.58,0,1.06-.14,1.44-.41.38-.28.62-.68.71-1.22h.94c-.07.46-.23.87-.49,1.23-.25.36-.6.65-1.04.86s-.97.31-1.58.31c-.68,0-1.28-.15-1.8-.45ZM36.81,19.28c-.39-.45-.93-.68-1.62-.68s-1.2.23-1.63.7c-.43.46-.67,1.06-.74,1.78h4.59c0-.75-.21-1.35-.6-1.8Z"/>
      <path class="cls-2" d="M42,25c-.5-.31-.89-.76-1.17-1.34-.28-.58-.42-1.25-.42-2.01s.14-1.38.41-1.96.66-1.03,1.16-1.36,1.08-.5,1.74-.5c.59,0,1.1.14,1.54.42.44.28.76.64.97,1.08v-4.58h.94v10.5h-.94v-1.32c-.24.49-.58.87-1.04,1.13s-.95.4-1.5.4c-.63,0-1.2-.16-1.69-.47ZM45.11,24.32c.37-.25.66-.61.87-1.07.21-.46.32-1,.32-1.62,0-.92-.22-1.66-.67-2.21-.45-.55-1.04-.83-1.78-.83-.48,0-.91.13-1.28.38s-.67.61-.87,1.07c-.21.46-.31.99-.31,1.59s.1,1.15.3,1.61c.2.46.49.82.86,1.07s.8.38,1.28.38.91-.13,1.28-.38Z"/>
      <path class="cls-2" d="M49.5,24.45h7.69v.81h-7.69v-.81ZM50.12,18.04h3.52v.81h-3.52v-.81ZM52.86,15.08h1.23v1.65h-1.23v-1.65ZM53.12,18.04h.93v7.21h-.93v-7.21Z"/>
      <path class="cls-2" d="M60.6,25c-.52-.31-.94-.75-1.25-1.33s-.46-1.26-.46-2.04c0-.73.16-1.38.47-1.96.31-.58.73-1.03,1.27-1.35.53-.32,1.14-.49,1.82-.49.81,0,1.49.23,2.06.69.56.46.88,1.07.97,1.84h-.96c-.08-.53-.31-.96-.68-1.28-.38-.33-.85-.49-1.42-.49-.5,0-.95.13-1.34.4-.39.27-.69.63-.9,1.08-.21.46-.31.97-.31,1.55,0,.61.1,1.15.31,1.61s.5.83.89,1.08c.38.25.82.38,1.33.38.6,0,1.09-.16,1.48-.47.39-.31.62-.75.69-1.31h.95c-.06.51-.23.96-.5,1.34s-.63.68-1.09.89c-.46.21-.98.31-1.58.31-.65,0-1.24-.16-1.76-.46Z"/>
      <path class="cls-2" d="M69.24,25.21c-.37-.17-.66-.42-.87-.74-.21-.32-.31-.69-.31-1.11,0-.63.21-1.12.64-1.48.42-.36,1-.58,1.72-.68l1.64-.24c.35-.06.61-.15.77-.28s.25-.32.25-.59c0-.45-.16-.81-.47-1.08-.31-.27-.75-.41-1.31-.41-.66,0-1.16.16-1.49.47-.33.31-.52.71-.56,1.21h-.94c.04-.44.18-.85.42-1.22.24-.38.58-.67,1.01-.89s.94-.33,1.52-.33,1.11.11,1.52.32c.42.22.73.51.93.89.2.38.31.82.31,1.32v4.89h-.9v-1.2c-.2.41-.53.75-.98,1.01s-.99.4-1.6.4c-.48,0-.9-.09-1.27-.26ZM71.9,24.41c.37-.2.66-.48.86-.84.21-.35.31-.74.31-1.16v-1.17c-.04.09-.15.17-.31.24-.17.07-.41.13-.71.18l-1.33.22c-.52.09-.93.25-1.23.49-.3.24-.45.56-.45.98s.15.74.44.99.67.38,1.15.38.91-.1,1.28-.31Z"/>
      <path class="cls-2" d="M76.46,24.45h7.77v.81h-7.77v-.81ZM77.07,14.76h3.52v.81h-3.52v-.81ZM80.12,14.76h.95v10.5h-.95v-10.5Z"/>
      <path class="cls-2" d="M24,36.04h.94v1.71c.23-.55.61-1,1.15-1.36.53-.35,1.25-.53,2.15-.53.32,0,.6.02.84.06v.92c-.32-.05-.62-.08-.9-.08-.72,0-1.32.13-1.8.38-.48.25-.84.59-1.08,1.03-.24.43-.36.93-.36,1.48v3.62h-.94v-7.21Z"/>
      <path class="cls-2" d="M33.47,43.02c-.52-.3-.92-.74-1.21-1.32s-.43-1.28-.43-2.08c0-.72.15-1.37.45-1.94s.71-1.03,1.21-1.35c.51-.32,1.08-.49,1.7-.49.68,0,1.26.16,1.75.46.48.31.85.75,1.1,1.31.25.57.38,1.22.38,1.97v.21h-5.62c0,.61.1,1.13.31,1.58s.5.77.88,1c.38.23.81.34,1.3.34.58,0,1.06-.14,1.44-.41.38-.28.62-.68.71-1.22h.94c-.07.46-.23.87-.49,1.23-.25.36-.6.65-1.04.86s-.97.31-1.58.31c-.68,0-1.28-.15-1.8-.45ZM36.81,37.28c-.39-.45-.93-.68-1.62-.68s-1.2.23-1.63.7c-.43.46-.67,1.06-.74,1.78h4.59c0-.75-.21-1.35-.6-1.8Z"/>
      <path class="cls-2" d="M42.6,43c-.52-.31-.94-.75-1.25-1.33s-.46-1.26-.46-2.04c0-.73.16-1.38.47-1.96.31-.58.73-1.03,1.27-1.35.53-.32,1.14-.49,1.82-.49.81,0,1.49.23,2.06.69.56.46.88,1.07.97,1.84h-.96c-.08-.53-.31-.96-.68-1.28-.38-.33-.85-.49-1.42-.49-.5,0-.95.13-1.34.4-.39.27-.69.63-.9,1.08-.21.46-.31.97-.31,1.55,0,.61.1,1.15.31,1.61s.5.83.89,1.08c.38.25.82.38,1.33.38.6,0,1.09-.16,1.48-.47.39-.31.62-.75.69-1.31h.95c-.06.51-.23.96-.5,1.34s-.63.68-1.09.89c-.46.21-.98.31-1.58.31-.65,0-1.24-.16-1.76-.46Z"/>
      <path class="cls-2" d="M51.28,42.99c-.52-.32-.94-.77-1.23-1.35-.29-.58-.44-1.25-.44-2s.15-1.4.44-1.97.71-1.03,1.23-1.35c.52-.32,1.12-.49,1.79-.49s1.27.16,1.79.48c.52.32.94.77,1.23,1.36s.44,1.24.44,1.97-.15,1.42-.45,2c-.3.58-.71,1.03-1.23,1.35-.52.32-1.12.48-1.79.48s-1.27-.16-1.79-.48ZM54.39,42.32c.38-.25.67-.62.87-1.08.2-.46.31-1,.31-1.6,0-.91-.23-1.64-.68-2.2-.45-.56-1.06-.84-1.81-.84-.5,0-.94.13-1.32.38-.38.25-.67.61-.87,1.07-.2.46-.3.99-.3,1.6s.1,1.13.3,1.59c.2.46.49.82.86,1.08.38.26.82.39,1.33.39s.94-.13,1.31-.38Z"/>
      <path class="cls-2" d="M60,36.04h.94v1.71c.23-.55.61-1,1.15-1.36.53-.35,1.25-.53,2.15-.53.32,0,.6.02.84.06v.92c-.32-.05-.62-.08-.9-.08-.72,0-1.32.13-1.8.38-.48.25-.84.59-1.08,1.03-.24.43-.36.93-.36,1.48v3.62h-.94v-7.21Z"/>
      <path class="cls-2" d="M69,43c-.5-.31-.89-.76-1.17-1.34-.28-.58-.42-1.25-.42-2.01s.14-1.38.41-1.96.66-1.03,1.16-1.36,1.08-.5,1.74-.5c.59,0,1.1.14,1.54.42.44.28.76.64.97,1.08v-4.58h.94v10.5h-.94v-1.32c-.24.49-.58.87-1.04,1.13s-.95.4-1.5.4c-.63,0-1.2-.16-1.69-.47ZM72.11,42.32c.37-.25.66-.61.87-1.07.21-.46.32-1,.32-1.62,0-.92-.22-1.66-.67-2.21-.45-.55-1.04-.83-1.78-.83-.48,0-.91.13-1.28.38s-.67.61-.87,1.07c-.21.46-.31.99-.31,1.59s.1,1.15.3,1.61c.2.46.49.82.86,1.07s.8.38,1.28.38.91-.13,1.28-.38Z"/>
      <path class="cls-2" d="M78.59,43.16c-.45-.21-.8-.5-1.05-.87s-.39-.81-.42-1.32h.93c.03.54.23.96.61,1.28.38.31.88.46,1.52.46.59,0,1.06-.12,1.4-.38s.51-.59.51-1.02c0-.35-.12-.62-.37-.81-.25-.19-.62-.33-1.13-.43l-1.06-.21c-.68-.13-1.21-.36-1.59-.69-.38-.33-.57-.75-.57-1.28,0-.39.11-.74.34-1.05.23-.31.55-.55.95-.73.4-.18.87-.27,1.39-.27.83,0,1.49.2,1.98.59.49.39.76.94.82,1.64h-.93c-.05-.45-.25-.81-.59-1.07-.34-.26-.79-.4-1.33-.4-.51,0-.92.12-1.23.35-.31.23-.46.53-.46.9,0,.34.12.6.38.78s.62.32,1.1.41l1.14.22c.68.13,1.2.36,1.57.67.36.32.55.76.55,1.31,0,.42-.12.8-.35,1.14-.24.34-.56.61-.99.8-.42.19-.93.29-1.51.29-.61,0-1.14-.1-1.59-.31Z"/>
    </g>
  </g>
</svg>