<?xml version="1.0" encoding="UTF-8"?>
<svg id="_图层_2" data-name="图层_2" xmlns="http://www.w3.org/2000/svg" viewBox="0 0 1311.74 581.5">
  <defs>
    <style>
      .cls-1, .cls-2 {
        fill: #9afffc;
      }

      .cls-1, .cls-2, .cls-3, .cls-4, .cls-5, .cls-6 {
        stroke-miterlimit: 10;
      }

      .cls-1, .cls-2, .cls-3, .cls-4, .cls-6 {
        stroke: red;
      }

      .cls-1, .cls-4 {
        stroke-width: .5px;
      }

      .cls-3, .cls-4 {
        fill: #fff;
      }

      .cls-5 {
        stroke: #fd0200;
        stroke-width: .25px;
      }

      .cls-6 {
        fill: #ff5c5a;
      }
    </style>
  </defs>
  <g id="_图层_1-2" data-name="图层_1">
    <g>
      <rect class="cls-6" x="727.24" y="412.25" width="584" height="137.11"/>
      <g>
        <rect class="cls-3" x="707.95" y="365.23" width="96.13" height="8.52"/>
        <rect class="cls-3" x="707.95" y="356.75" width="96.13" height="8.52"/>
        <rect class="cls-3" x="707.95" y="416.23" width="96.13" height="8.52"/>
        <rect class="cls-3" x="707.95" y="407.75" width="96.13" height="8.52"/>
        <rect class="cls-3" x="707.95" y="399.23" width="96.13" height="8.52"/>
        <rect class="cls-3" x="707.95" y="390.75" width="96.13" height="8.52"/>
        <rect class="cls-3" x="707.95" y="382.23" width="96.13" height="8.52"/>
        <rect class="cls-3" x="707.95" y="373.75" width="96.13" height="8.52"/>
      </g>
      <g>
        <rect class="cls-4" x="153.95" y="490.23" width="96.13" height="8.52"/>
        <rect class="cls-4" x="153.95" y="481.75" width="96.13" height="8.52"/>
        <rect class="cls-4" x="153.95" y="473.23" width="96.13" height="8.52"/>
        <rect class="cls-4" x="153.95" y="464.75" width="96.13" height="8.52"/>
        <rect class="cls-4" x="153.95" y="456.23" width="96.13" height="8.52"/>
      </g>
      <g>
        <rect class="cls-4" x="279.95" y="490.23" width="96.13" height="8.52"/>
        <rect class="cls-4" x="279.95" y="481.75" width="96.13" height="8.52"/>
      </g>
      <g>
        <rect class="cls-4" x="28.95" y="490.23" width="96.13" height="8.52"/>
        <rect class="cls-4" x="28.95" y="481.75" width="96.13" height="8.52"/>
        <rect class="cls-4" x="28.95" y="473.23" width="96.13" height="8.52"/>
        <rect class="cls-4" x="28.95" y="464.75" width="96.13" height="8.52"/>
      </g>
      <g>
        <rect class="cls-1" x=".25" y="497.25" width="427.82" height="29" transform="translate(428.33 1023.5) rotate(180)"/>
        <rect class="cls-1" x="13.24" y="526.25" width="5" height="55"/>
        <rect class="cls-1" x="381.24" y="526.25" width="5" height="55"/>
      </g>
      <rect class="cls-2" x="1115.24" y="426.25" width="5" height="24"/>
      <rect class="cls-2" x="1224.24" y="426.25" width="5" height="24"/>
      <g>
        <rect class="cls-1" x="614.2" y="436.88" width="296.38" height="115.12"/>
        <rect class="cls-1" x="598.48" y="423.42" width="328.11" height="13.58"/>
        <rect class="cls-1" x="598.48" y="551.42" width="328.11" height="13.58"/>
      </g>
      <g>
        <g>
          <rect class="cls-1" x="458.77" y="45.91" width="289.02" height="62.49" transform="translate(1206.55 154.31) rotate(180)"/>
          <rect class="cls-1" x="372.75" y="108.19" width="217.52" height="45.06" transform="translate(963.01 261.44) rotate(180)"/>
          <rect class="cls-1" x="528.12" y=".25" width="219.67" height="45.88" transform="translate(1275.91 46.37) rotate(180)"/>
          <rect class="cls-1" x="689.71" y="108.4" width="7.24" height="409.35" transform="translate(1386.66 626.15) rotate(180)"/>
          <rect class="cls-1" x="430.66" y="108.4" width="7.24" height="409.35" transform="translate(868.55 626.15) rotate(180)"/>
          <rect class="cls-1" x="419.78" y="517.26" width="289.02" height="62.49" transform="translate(1128.58 1097) rotate(180)"/>
        </g>
        <g>
          <path class="cls-5" d="M517.39,69.83h6.17c1.62,0,2.89.39,3.83,1.16s1.4,1.85,1.4,3.23c0,1.04-.32,1.92-.97,2.63-.65.71-1.42,1.2-2.32,1.45.88.14,1.58.54,2.11,1.2.53.66.79,1.56.79,2.71v4.42h-1.58v-4.15c0-1.33-.3-2.24-.91-2.72-.61-.49-1.54-.73-2.81-.73h-4.13v7.61h-1.58v-16.8ZM525.28,77.27c.59-.26,1.05-.63,1.38-1.13.33-.5.49-1.09.49-1.78,0-1.02-.34-1.81-1.02-2.36-.68-.55-1.64-.83-2.87-.83h-4.3v6.48h4.27c.77,0,1.45-.13,2.04-.38Z"/>
          <path class="cls-5" d="M532.29,69.83h10.56v1.34h-8.98v6.22h8.57v1.37h-8.57v6.5h9.26v1.37h-10.85v-16.8Z"/>
          <path class="cls-5" d="M548.5,85.85c-.92-.74-1.62-1.77-2.11-3.07-.49-1.3-.73-2.79-.73-4.45,0-1.78.27-3.33.8-4.67s1.29-2.37,2.27-3.1c.98-.73,2.12-1.09,3.43-1.09,1.46,0,2.66.47,3.62,1.42.96.94,1.54,2.18,1.73,3.72h-1.68c-.18-1.14-.6-2.05-1.28-2.74-.68-.69-1.49-1.03-2.44-1.03-1.01,0-1.87.31-2.59.94-.72.62-1.27,1.5-1.64,2.63s-.56,2.44-.56,3.92c0,1.36.18,2.59.53,3.7.35,1.1.88,1.98,1.57,2.63.7.65,1.54.97,2.53.97.8,0,1.51-.23,2.12-.7.62-.46,1.1-1.1,1.44-1.92.34-.82.52-1.75.52-2.81v-1.39l.72.7h-4.97v-1.34h5.76v8.47h-1.39v-2.76c-.37.98-.93,1.74-1.69,2.28-.76.54-1.67.82-2.72.82-1.23,0-2.31-.37-3.23-1.12Z"/>
          <path class="cls-5" d="M560.32,69.83h11.47v1.37h-11.47v-1.37ZM560.32,85.24h11.47v1.39h-11.47v-1.39ZM565.27,69.83h1.58v16.8h-1.58v-16.8Z"/>
          <path class="cls-5" d="M577.29,86.25c-.96-.47-1.71-1.14-2.24-1.99-.54-.86-.83-1.84-.88-2.94h1.61c.05.83.28,1.57.7,2.22.42.65.98,1.16,1.7,1.52.72.37,1.54.55,2.45.55.85,0,1.61-.14,2.28-.42.67-.28,1.2-.68,1.58-1.2.38-.52.58-1.13.58-1.84,0-.8-.28-1.44-.84-1.91-.56-.47-1.43-.87-2.62-1.19l-2.52-.67c-1.34-.37-2.4-.91-3.18-1.63-.78-.72-1.16-1.64-1.16-2.76,0-.85.24-1.62.73-2.3.49-.69,1.16-1.23,2.03-1.63.86-.4,1.84-.6,2.93-.6s2.06.21,2.93.64,1.56,1.01,2.08,1.76c.52.75.81,1.61.88,2.57h-1.61c-.06-.7-.29-1.33-.67-1.87-.38-.54-.89-.97-1.52-1.27-.63-.3-1.33-.46-2.1-.46s-1.46.13-2.08.4c-.62.26-1.1.63-1.44,1.1-.34.47-.52.99-.52,1.55,0,.78.26,1.41.79,1.87.53.46,1.34.85,2.45,1.15l2.83.79c1.38.37,2.44.9,3.18,1.61s1.12,1.63,1.12,2.78c0,.93-.27,1.76-.8,2.51-.54.74-1.27,1.32-2.21,1.74s-1.97.62-3.11.62c-1.26,0-2.38-.24-3.34-.71Z"/>
          <path class="cls-5" d="M594.07,71.17h-5.66v-1.34h12.91v1.34h-5.66v15.46h-1.58v-15.46Z"/>
          <path class="cls-5" d="M603.79,69.83h6.17c1.62,0,2.89.39,3.83,1.16s1.4,1.85,1.4,3.23c0,1.04-.32,1.92-.97,2.63-.65.71-1.42,1.2-2.32,1.45.88.14,1.58.54,2.11,1.2.53.66.79,1.56.79,2.71v4.42h-1.58v-4.15c0-1.33-.3-2.24-.91-2.72-.61-.49-1.54-.73-2.81-.73h-4.13v7.61h-1.58v-16.8ZM611.68,77.27c.59-.26,1.05-.63,1.38-1.13.33-.5.49-1.09.49-1.78,0-1.02-.34-1.81-1.02-2.36-.68-.55-1.64-.83-2.87-.83h-4.3v6.48h4.27c.77,0,1.45-.13,2.04-.38Z"/>
          <path class="cls-5" d="M622.65,69.83h1.92l5.71,16.8h-1.68l-4.37-13.22c-.3-.96-.52-1.62-.65-1.99-.11.37-.32,1.03-.62,1.99l-4.34,13.22h-1.58l5.62-16.8ZM619.75,80.03h7.78v1.34h-7.78v-1.34Z"/>
          <path class="cls-5" d="M637.27,71.17h-5.66v-1.34h12.91v1.34h-5.66v15.46h-1.58v-15.46Z"/>
          <path class="cls-5" d="M646.72,69.83h11.47v1.37h-11.47v-1.37ZM646.72,85.24h11.47v1.39h-11.47v-1.39ZM651.67,69.83h1.58v16.8h-1.58v-16.8Z"/>
          <path class="cls-5" d="M663.68,85.93c-.9-.69-1.6-1.69-2.1-3-.5-1.31-.74-2.88-.74-4.7s.25-3.4.74-4.72c.5-1.32,1.2-2.32,2.1-3.01.9-.69,1.96-1.03,3.18-1.03s2.28.34,3.18,1.03c.9.69,1.6,1.69,2.1,3.01.5,1.32.74,2.89.74,4.72s-.25,3.39-.74,4.7c-.5,1.31-1.2,2.31-2.1,3-.9.69-1.96,1.03-3.18,1.03s-2.28-.34-3.18-1.03ZM669.14,84.74c.66-.58,1.17-1.43,1.54-2.54s.55-2.44.55-3.97-.18-2.88-.55-4-.88-1.96-1.54-2.53-1.42-.86-2.28-.86-1.63.29-2.29.86c-.67.58-1.18,1.42-1.54,2.53-.36,1.11-.54,2.44-.54,4s.18,2.86.54,3.97c.36,1.11.87,1.96,1.54,2.54.66.58,1.43.88,2.29.88s1.62-.29,2.28-.88Z"/>
          <path class="cls-5" d="M675.91,69.83h2.42l6.72,14.95v-14.95h1.56v16.8h-2.35l-6.79-15.17v15.17h-1.56v-16.8Z"/>
        </g>
        <g>
          <rect class="cls-6" x="711.44" y="19.29" width="21.31" height="7.37" transform="translate(745.06 -699.12) rotate(90)"/>
          <rect class="cls-6" x="711.44" y="19.4" width="21.31" height="7.37" transform="translate(1444.18 46.17) rotate(180)"/>
        </g>
      </g>
    </g>
    <rect class="cls-2" x="1098.1" y="390.62" width="149" height="36.1" transform="translate(2345.19 817.33) rotate(180)"/>
    <g>
      <path class="cls-5" d="M1125.34,413.72c-.56-.25-.99-.64-1.29-1.16-.29-.52-.44-1.2-.44-2.03v-4.32h-3.42v-.97h3.42v-2.75h1.12v2.75h3.94v.97h-3.94v4.23c0,.66.11,1.18.32,1.56s.53.65.95.81c.42.16.95.24,1.6.24.43,0,.88-.04,1.35-.13v.99c-.5.12-1.01.18-1.53.18-.83,0-1.52-.13-2.09-.38Z"/>
      <path class="cls-5" d="M1132.34,401.3h1.12v5.49c.28-.5.68-.93,1.2-1.28.52-.35,1.14-.52,1.86-.52.66,0,1.23.14,1.72.41s.86.68,1.12,1.21c.26.53.39,1.17.39,1.93v5.36h-1.13v-5.24c0-.88-.17-1.55-.52-2.03-.35-.48-.93-.72-1.75-.72-.58,0-1.08.14-1.51.41-.43.28-.77.65-1.01,1.11-.24.46-.36.95-.36,1.47v5h-1.12v-12.6Z"/>
      <path class="cls-5" d="M1142.22,412.92h9.23v.97h-9.23v-.97ZM1142.96,405.24h4.23v.97h-4.23v-.97ZM1146.26,401.67h1.48v1.98h-1.48v-1.98ZM1146.56,405.24h1.12v8.66h-1.12v-8.66Z"/>
      <path class="cls-5" d="M1155.53,413.77c-.54-.25-.96-.6-1.26-1.04-.3-.44-.47-.97-.5-1.58h1.12c.04.65.28,1.16.73,1.53.45.37,1.06.56,1.83.56.71,0,1.27-.15,1.67-.45.41-.3.61-.71.61-1.22,0-.42-.15-.74-.44-.97-.29-.23-.75-.4-1.36-.52l-1.28-.25c-.82-.16-1.45-.43-1.91-.83-.46-.4-.68-.91-.68-1.53,0-.47.14-.89.41-1.26s.66-.67,1.14-.88c.49-.22,1.04-.32,1.66-.32,1,0,1.79.24,2.38.71.59.47.92,1.13.99,1.97h-1.12c-.06-.54-.29-.97-.7-1.29-.41-.32-.94-.48-1.6-.48-.61,0-1.1.14-1.48.41s-.56.64-.56,1.08c0,.41.15.72.45.94s.74.38,1.31.49l1.37.27c.82.16,1.44.43,1.88.81.44.38.66.91.66,1.57,0,.5-.14.96-.42,1.37-.28.41-.68.73-1.19.96-.51.23-1.11.35-1.81.35-.73,0-1.37-.13-1.91-.38Z"/>
      <path class="cls-5" d="M1174.23,405.24h1.13l1.24,6.62c.05.25.1.5.14.76l.2-.76,1.4-4.63h1.15l1.39,4.63c.07.25.14.5.22.76.07-.31.12-.56.14-.76l1.28-6.62h1.06l-1.82,8.66h-1.26l-1.42-4.77-.11-.38-.09-.29-.09.29c-.04.12-.08.25-.13.38l-1.42,4.77h-1.19l-1.84-8.66Z"/>
      <path class="cls-5" d="M1187.51,413.83c-.44-.21-.79-.51-1.04-.89s-.38-.83-.38-1.33c0-.76.25-1.35.76-1.77.51-.43,1.2-.7,2.06-.82l1.96-.29c.42-.07.73-.18.93-.33.2-.15.3-.39.3-.71,0-.54-.19-.97-.57-1.3-.38-.32-.9-.49-1.58-.49-.79,0-1.39.19-1.79.56-.4.37-.63.86-.67,1.46h-1.13c.05-.53.22-1.02.5-1.47s.69-.81,1.21-1.07c.52-.26,1.13-.4,1.83-.4s1.33.13,1.83.39c.5.26.87.62,1.12,1.07.25.46.37.98.37,1.58v5.87h-1.08v-1.44c-.24.49-.63.9-1.18,1.21-.55.32-1.18.48-1.92.48-.58,0-1.09-.11-1.53-.32ZM1190.7,412.88c.44-.25.79-.58,1.04-1.01s.37-.89.37-1.39v-1.4c-.05.11-.17.2-.38.29s-.49.16-.85.22l-1.6.27c-.62.11-1.12.3-1.48.58-.36.28-.54.67-.54,1.18s.17.89.52,1.19c.35.3.81.45,1.39.45s1.09-.12,1.53-.37Z"/>
      <path class="cls-5" d="M1200.04,413.66l-3.51-8.42h1.24l2.29,5.71c.26.66.45,1.12.56,1.39.16-.42.34-.89.56-1.4l2.14-5.69h1.19l-4.9,12.42h-1.19l1.62-4Z"/>
    </g>
    <polygon class="cls-6" points="1220.09 400.4 1231.43 408.23 1220.09 416.06 1220.09 400.4"/>
  </g>
</svg>