<?xml version="1.0" encoding="UTF-8"?>
<svg id="_图层_2" data-name="图层_2" xmlns="http://www.w3.org/2000/svg" viewBox="0 0 1295.42 468.87">
  <defs>
    <style>
      .cls-1 {
        stroke-width: .5px;
      }

      .cls-1, .cls-2, .cls-3 {
        stroke: red;
        stroke-miterlimit: 10;
      }

      .cls-1, .cls-4 {
        fill: #ffa693;
      }

      .cls-2 {
        fill: #ea1607;
      }

      .cls-5 {
        fill: #ffcdc5;
      }

      .cls-6 {
        fill: red;
      }

      .cls-3 {
        fill: #ff5c5a;
      }
    </style>
  </defs>
  <g id="_图层_1-2" data-name="图层_1">
    <g>
      <g>
        <rect class="cls-4" x=".25" y="102.6" width="1294.92" height="6.98"/>
        <path class="cls-6" d="M1295.42,109.83H0v-7.48h1295.42v7.48ZM.5,109.33h1294.42v-6.48H.5v6.48Z"/>
      </g>
      <g>
        <rect class="cls-4" x=".25" y="61.6" width="1294.92" height="6.98"/>
        <path class="cls-6" d="M1295.42,68.83H0v-7.48h1295.42v7.48ZM.5,68.33h1294.42v-6.48H.5v6.48Z"/>
      </g>
      <g>
        <rect class="cls-4" x=".82" y="378.92" width="1293.35" height="6.98"/>
        <path class="cls-6" d="M1294.42,386.15H.57v-7.48h1293.85v7.48ZM1.07,385.65h1292.85v-6.48H1.07v6.48Z"/>
      </g>
      <g>
        <rect class="cls-1" x="26.14" y=".25" width="7.06" height="379"/>
        <rect class="cls-1" x="120.5" y=".25" width="7.06" height="379"/>
        <rect class="cls-1" x="214.86" y=".25" width="7.06" height="379"/>
        <rect class="cls-1" x="309.22" y=".25" width="7.06" height="379"/>
        <rect class="cls-1" x="403.58" y=".25" width="7.06" height="379"/>
        <rect class="cls-1" x="497.93" y=".25" width="7.06" height="379"/>
        <rect class="cls-1" x="592.29" y=".25" width="7.06" height="379"/>
        <rect class="cls-1" x="686.65" y=".25" width="7.06" height="379"/>
        <rect class="cls-1" x="781.01" y=".25" width="7.06" height="379"/>
        <rect class="cls-1" x="875.37" y=".25" width="7.06" height="379"/>
        <rect class="cls-1" x="969.72" y=".25" width="7.06" height="379"/>
        <rect class="cls-1" x="1064.08" y=".25" width="7.06" height="379"/>
        <rect class="cls-1" x="1158.44" y=".25" width="7.06" height="379"/>
        <rect class="cls-1" x="1252.8" y=".25" width="7.06" height="379"/>
      </g>
    </g>
    <rect class="cls-2" x="328.7" y="170.09" width="160.28" height="298.28"/>
    <rect class="cls-2" x="733.7" y="170.09" width="160.28" height="298.28"/>
    <rect class="cls-3" x="401.11" y="209.75" width="386.25" height="216"/>
    <g>
      <path class="cls-5" d="M446.81,285.63h-3.39v-.78h7.7v.78h-3.39v9.02h-.92v-9.02Z"/>
      <path class="cls-5" d="M452.76,284.85h.87v4.27c.21-.4.51-.74.92-1,.41-.27.88-.4,1.42-.4.5,0,.94.11,1.31.31.37.21.65.52.85.93.2.41.3.91.3,1.48v4.2h-.88v-4.1c0-.68-.14-1.2-.41-1.57-.27-.36-.71-.54-1.33-.54-.43,0-.81.11-1.14.32-.33.21-.59.5-.77.85-.18.35-.27.73-.27,1.13v3.91h-.87v-9.8Z"/>
      <path class="cls-5" d="M461.91,294.43c-.48-.28-.85-.69-1.12-1.23-.27-.54-.4-1.19-.4-1.95,0-.67.14-1.28.41-1.81.28-.54.65-.96,1.13-1.26.48-.3,1.01-.46,1.6-.46.63,0,1.18.14,1.62.43.45.29.79.7,1.02,1.23s.35,1.14.35,1.84v.2h-5.25c0,.57.11,1.06.31,1.47.2.41.47.72.81.93.35.21.75.31,1.22.31.54,0,.99-.13,1.34-.38.35-.26.57-.64.64-1.14h.88c-.07.43-.22.81-.46,1.15-.24.34-.56.6-.97.8-.41.2-.9.29-1.46.29-.64,0-1.21-.14-1.69-.42ZM465.04,289.06c-.36-.42-.87-.63-1.51-.63s-1.12.22-1.53.65-.63.99-.69,1.66h4.28c0-.7-.2-1.26-.56-1.68Z"/>
      <path class="cls-5" d="M476.09,294.21c-.63-.42-1.13-1.02-1.48-1.8-.35-.77-.53-1.67-.53-2.7s.18-1.87.55-2.63c.36-.76.87-1.36,1.5-1.79.64-.43,1.37-.64,2.19-.64.67,0,1.27.14,1.8.42.53.28.95.67,1.25,1.16.31.5.5,1.05.56,1.68h-.98c-.12-.76-.42-1.36-.88-1.8s-1.06-.66-1.79-.66c-.64,0-1.21.18-1.7.53-.49.36-.87.85-1.13,1.5s-.39,1.39-.39,2.24.13,1.6.4,2.26c.27.66.64,1.17,1.13,1.53s1.05.55,1.68.55c.76,0,1.38-.22,1.85-.65.47-.43.78-1.03.92-1.8h.95c-.15,1.01-.55,1.8-1.19,2.38-.64.58-1.48.87-2.52.87-.83,0-1.56-.21-2.2-.64Z"/>
      <path class="cls-5" d="M483.94,284.85h.87v4.27c.21-.4.51-.74.92-1,.41-.27.88-.4,1.42-.4.5,0,.94.11,1.31.31.37.21.65.52.85.93.2.41.3.91.3,1.48v4.2h-.88v-4.1c0-.68-.14-1.2-.41-1.57-.27-.36-.71-.54-1.33-.54-.43,0-.81.11-1.14.32-.33.21-.59.5-.77.85-.18.35-.27.73-.27,1.13v3.91h-.87v-9.8Z"/>
      <path class="cls-5" d="M492.79,294.6c-.34-.16-.61-.4-.81-.7-.2-.3-.29-.65-.29-1.03,0-.59.2-1.05.59-1.38.4-.33.92-.55,1.58-.65l1.47-.22c.33-.05.57-.13.72-.25s.23-.3.23-.55c0-.42-.15-.76-.44-1.01s-.69-.38-1.2-.38c-.61,0-1.06.14-1.36.43-.3.29-.47.67-.5,1.13h-.88c.03-.41.15-.79.37-1.14.22-.35.53-.63.93-.83s.86-.31,1.39-.31c.55,0,1.02.1,1.4.3.38.2.67.48.87.84.2.36.29.78.29,1.25v4.54h-.85v-1.12c-.19.39-.48.71-.89.95-.41.24-.89.36-1.45.36-.44,0-.83-.08-1.17-.25ZM495.22,293.86c.34-.19.6-.45.78-.78.19-.33.28-.69.28-1.09v-1.09c-.04.08-.13.16-.29.22-.15.07-.37.12-.64.17l-1.22.21c-.49.08-.87.24-1.14.46-.28.22-.41.52-.41.92s.14.69.41.92c.27.23.63.35,1.06.35s.83-.1,1.16-.29Z"/>
      <path class="cls-5" d="M499.4,293.89h4.03v.76h-4.03v-.76ZM499.69,287.92h1.86v.76h-1.86v-.76ZM500.94,285.17h1.08v1.48h-1.08v-1.48ZM501.09,287.92h.87v6.73h-.87v-6.73Z"/>
      <path class="cls-5" d="M505.85,287.92h.88v1.47c.21-.48.53-.88.98-1.19.45-.31,1.01-.46,1.69-.46.21,0,.4.01.57.04v.84c-.3-.03-.51-.04-.63-.04-.55,0-1.02.11-1.41.32-.39.21-.69.52-.9.91-.21.39-.31.84-.31,1.34v3.5h-.88v-6.73Z"/>
      <path class="cls-5" d="M511.73,287.92h.85v1.19c.16-.41.39-.74.71-1,.31-.26.69-.38,1.14-.38.4,0,.76.13,1.06.38.31.25.52.62.63,1.09.19-.45.45-.81.78-1.07.33-.27.73-.4,1.2-.4.38,0,.71.1.99.29s.5.47.66.85c.16.37.24.82.24,1.34v4.45h-.85v-4.28c0-.62-.1-1.09-.29-1.43s-.52-.5-.97-.5c-.33,0-.61.1-.85.31-.24.21-.43.49-.55.84s-.19.73-.19,1.13v3.93h-.85v-4.3c0-.62-.1-1.09-.29-1.42-.19-.33-.51-.5-.95-.5-.34,0-.64.11-.88.34-.24.23-.42.52-.55.88s-.19.73-.19,1.13v3.86h-.85v-6.73Z"/>
      <path class="cls-5" d="M522.99,294.6c-.34-.16-.61-.4-.81-.7-.2-.3-.29-.65-.29-1.03,0-.59.2-1.05.59-1.38.4-.33.92-.55,1.58-.65l1.47-.22c.33-.05.57-.13.72-.25s.23-.3.23-.55c0-.42-.15-.76-.44-1.01s-.69-.38-1.2-.38c-.61,0-1.06.14-1.36.43-.3.29-.47.67-.5,1.13h-.88c.03-.41.15-.79.37-1.14.22-.35.53-.63.93-.83s.86-.31,1.39-.31c.55,0,1.02.1,1.4.3.38.2.67.48.87.84.2.36.29.78.29,1.25v4.54h-.85v-1.12c-.19.39-.48.71-.89.95-.41.24-.89.36-1.45.36-.44,0-.83-.08-1.17-.25ZM525.42,293.86c.34-.19.6-.45.78-.78.19-.33.28-.69.28-1.09v-1.09c-.04.08-.13.16-.29.22-.15.07-.37.12-.64.17l-1.22.21c-.49.08-.87.24-1.14.46-.28.22-.41.52-.41.92s.14.69.41.92c.27.23.63.35,1.06.35s.83-.1,1.16-.29Z"/>
      <path class="cls-5" d="M529.86,287.92h.88v1.2c.21-.39.51-.72.91-.99s.87-.41,1.41-.41c.5,0,.94.11,1.31.31.37.21.66.52.86.92.21.41.31.9.31,1.49v4.2h-.88v-4.1c0-.68-.13-1.2-.41-1.57-.27-.36-.71-.54-1.33-.54-.43,0-.81.11-1.14.32-.33.21-.59.5-.77.85-.18.35-.27.73-.27,1.13v3.91h-.88v-6.73Z"/>
      <path class="cls-5" d="M544.32,287.92h.88v1.47c.21-.48.53-.88.98-1.19.45-.31,1.01-.46,1.69-.46.21,0,.4.01.57.04v.84c-.3-.03-.51-.04-.63-.04-.55,0-1.02.11-1.41.32-.39.21-.69.52-.9.91-.21.39-.31.84-.31,1.34v3.5h-.88v-6.73Z"/>
      <path class="cls-5" d="M551.55,294.43c-.48-.28-.85-.69-1.12-1.23-.27-.54-.4-1.19-.4-1.95,0-.67.14-1.28.41-1.81.28-.54.65-.96,1.13-1.26.48-.3,1.01-.46,1.6-.46.63,0,1.18.14,1.62.43.45.29.79.7,1.02,1.23s.35,1.14.35,1.84v.2h-5.25c0,.57.11,1.06.31,1.47.2.41.47.72.81.93.35.21.75.31,1.22.31.54,0,.99-.13,1.34-.38.35-.26.57-.64.64-1.14h.88c-.07.43-.22.81-.46,1.15-.24.34-.56.6-.97.8-.41.2-.9.29-1.46.29-.64,0-1.21-.14-1.69-.42ZM554.68,289.06c-.36-.42-.87-.63-1.51-.63s-1.12.22-1.53.65-.63.99-.69,1.66h4.28c0-.7-.2-1.26-.56-1.68Z"/>
      <path class="cls-5" d="M559.59,294.41c-.49-.29-.88-.7-1.16-1.25s-.43-1.18-.43-1.9c0-.68.14-1.29.43-1.83.29-.54.68-.96,1.18-1.26.5-.3,1.06-.46,1.69-.46.77,0,1.41.21,1.93.64.52.43.82,1,.9,1.72h-.9c-.07-.5-.28-.89-.63-1.2-.35-.3-.79-.45-1.32-.45-.48,0-.9.12-1.26.37-.36.25-.64.58-.84,1.01-.2.42-.29.91-.29,1.45,0,.57.1,1.07.3,1.5.2.43.48.77.83,1.01.35.24.76.36,1.23.36.57,0,1.03-.15,1.39-.44.36-.29.58-.7.65-1.22h.87c-.06.48-.21.89-.46,1.25-.25.36-.58.64-1.01.83-.42.2-.92.29-1.48.29-.61,0-1.15-.14-1.64-.43Z"/>
      <path class="cls-5" d="M567.4,294.43c-.48-.28-.85-.69-1.12-1.23-.27-.54-.4-1.19-.4-1.95,0-.67.14-1.28.41-1.81.28-.54.65-.96,1.13-1.26.48-.3,1.01-.46,1.6-.46.63,0,1.18.14,1.62.43.45.29.79.7,1.02,1.23s.35,1.14.35,1.84v.2h-5.25c0,.57.11,1.06.31,1.47.2.41.47.72.81.93.35.21.75.31,1.22.31.54,0,.99-.13,1.34-.38.35-.26.57-.64.64-1.14h.88c-.07.43-.22.81-.46,1.15-.24.34-.56.6-.97.8-.41.2-.9.29-1.46.29-.64,0-1.21-.14-1.69-.42ZM570.53,289.06c-.36-.42-.87-.63-1.51-.63s-1.12.22-1.53.65-.63.99-.69,1.66h4.28c0-.7-.2-1.26-.56-1.68Z"/>
      <path class="cls-5" d="M574.15,287.92h.88v1.2c.21-.39.51-.72.91-.99s.87-.41,1.41-.41c.5,0,.94.11,1.31.31.37.21.66.52.86.92.21.41.31.9.31,1.49v4.2h-.88v-4.1c0-.68-.13-1.2-.41-1.57-.27-.36-.71-.54-1.33-.54-.43,0-.81.11-1.14.32-.33.21-.59.5-.77.85-.18.35-.27.73-.27,1.13v3.91h-.88v-6.73Z"/>
      <path class="cls-5" d="M583.92,294.24c-.41-.36-.62-.93-.62-1.7v-3.86h-1.99v-.76h1.99v-2.14h.88v2.14h2.27v.76h-2.27v3.79c0,.55.14.94.41,1.18.28.23.68.35,1.21.35.25,0,.52-.03.81-.1v.77c-.31.07-.63.11-.98.11-.74,0-1.31-.18-1.72-.54Z"/>
      <path class="cls-5" d="M588.31,293.89h4.06v.76h-4.06v-.76ZM588.58,284.85h1.86v.76h-1.86v-.76ZM590.01,284.85h.87v9.8h-.87v-9.8Z"/>
      <path class="cls-5" d="M596.49,294.47l-2.73-6.55h.97l1.78,4.44c.15.35.3.71.45,1.08.03-.09.05-.17.08-.22.02-.06.05-.13.09-.22.06-.15.1-.26.13-.33s.08-.18.14-.32l1.67-4.42h.91l-3.81,9.66h-.92l1.26-3.11Z"/>
      <path class="cls-5" d="M607.69,287.92h.88v1.22c.22-.42.55-.76.97-1.02s.9-.39,1.42-.39c.62,0,1.16.15,1.62.46.47.31.82.73,1.07,1.26.25.53.37,1.14.37,1.82s-.13,1.31-.38,1.85-.62.96-1.08,1.27-1,.46-1.6.46c-.5,0-.97-.12-1.4-.36-.43-.24-.76-.6-.99-1.06v4.16h-.88v-9.66ZM612.05,293.77c.35-.24.61-.57.8-1.01.19-.43.28-.94.28-1.5s-.09-1.04-.28-1.47c-.19-.43-.46-.76-.81-1-.35-.24-.75-.36-1.21-.36s-.84.12-1.19.35c-.35.23-.62.56-.81.99s-.29.92-.29,1.48.1,1.07.29,1.5.47.77.81,1.01c.34.24.75.36,1.2.36s.86-.12,1.2-.36Z"/>
      <path class="cls-5" d="M617.05,294.54c-.36-.21-.63-.51-.83-.91s-.29-.89-.29-1.47v-4.24h.88v4.09c0,.69.13,1.22.4,1.58.27.36.71.55,1.32.55.42,0,.79-.11,1.1-.34.31-.23.55-.54.71-.94.16-.4.24-.84.24-1.32v-3.61h.87v6.73h-.87v-1.23c-.19.42-.47.76-.86,1.03-.39.27-.85.4-1.38.4s-.95-.1-1.31-.31Z"/>
      <path class="cls-5" d="M625.84,294.48c-.43-.25-.77-.6-1.01-1.06v1.23h-.87v-9.8h.87v4.27c.24-.42.57-.76.99-1.02.42-.26.89-.38,1.42-.38.62,0,1.15.15,1.61.46.46.3.81.73,1.06,1.27s.38,1.15.38,1.83-.13,1.31-.38,1.85c-.26.54-.62.96-1.08,1.27-.46.3-.99.45-1.59.45-.5,0-.97-.12-1.4-.37ZM628.32,293.77c.35-.24.61-.57.8-1,.19-.43.28-.93.28-1.5s-.1-1.05-.29-1.48-.46-.76-.8-1-.75-.36-1.2-.36-.86.11-1.2.34c-.34.23-.61.56-.8.99-.19.43-.29.93-.29,1.49s.1,1.07.29,1.5.47.77.81,1.01c.34.24.75.36,1.2.36s.86-.12,1.2-.36Z"/>
      <path class="cls-5" d="M632,293.89h4.06v.76h-4.06v-.76ZM632.28,284.85h1.86v.76h-1.86v-.76ZM633.71,284.85h.87v9.8h-.87v-9.8Z"/>
      <path class="cls-5" d="M637.77,293.89h4.03v.76h-4.03v-.76ZM638.06,287.92h1.86v.76h-1.86v-.76ZM639.31,285.17h1.08v1.48h-1.08v-1.48ZM639.46,287.92h.87v6.73h-.87v-6.73Z"/>
      <path class="cls-5" d="M644.9,294.55c-.42-.2-.74-.47-.98-.81-.24-.34-.37-.76-.38-1.23h.87c.03.5.22.9.57,1.19.35.29.82.43,1.42.43.55,0,.98-.12,1.3-.35.32-.23.48-.55.48-.95,0-.33-.11-.58-.34-.76-.23-.18-.58-.31-1.06-.41l-1.01-.2c-.63-.12-1.13-.34-1.48-.64-.35-.31-.52-.7-.52-1.19,0-.36.11-.69.32-.98.21-.29.51-.52.89-.69s.81-.25,1.29-.25c.77,0,1.39.18,1.84.55.45.37.71.88.78,1.53h-.88c-.05-.42-.23-.75-.55-1s-.73-.37-1.25-.37c-.48,0-.86.11-1.14.32-.29.21-.43.5-.43.84,0,.32.12.56.35.73s.57.29,1.02.38l1.06.21c.62.12,1.11.33,1.46.63s.52.71.52,1.22c0,.39-.11.75-.33,1.06-.22.32-.53.57-.93.75s-.87.27-1.41.27c-.57,0-1.06-.1-1.48-.29Z"/>
      <path class="cls-5" d="M651.44,284.85h.87v4.27c.21-.4.51-.74.92-1,.41-.27.88-.4,1.42-.4.5,0,.94.11,1.31.31.37.21.65.52.85.93.2.41.3.91.3,1.48v4.2h-.88v-4.1c0-.68-.14-1.2-.41-1.57-.27-.36-.71-.54-1.33-.54-.43,0-.81.11-1.14.32-.33.21-.59.5-.77.85-.18.35-.27.73-.27,1.13v3.91h-.87v-9.8Z"/>
      <path class="cls-5" d="M660.59,294.43c-.48-.28-.85-.69-1.12-1.23-.27-.54-.4-1.19-.4-1.95,0-.67.14-1.28.41-1.81.28-.54.65-.96,1.13-1.26.48-.3,1.01-.46,1.6-.46.63,0,1.18.14,1.62.43.45.29.79.7,1.02,1.23s.35,1.14.35,1.84v.2h-5.25c0,.57.11,1.06.31,1.47.2.41.47.72.81.93.35.21.75.31,1.22.31.54,0,.99-.13,1.34-.38.35-.26.57-.64.64-1.14h.88c-.07.43-.22.81-.46,1.15-.24.34-.56.6-.97.8-.41.2-.9.29-1.46.29-.64,0-1.21-.14-1.69-.42ZM663.72,289.06c-.36-.42-.87-.63-1.51-.63s-1.12.22-1.53.65-.63.99-.69,1.66h4.28c0-.7-.2-1.26-.56-1.68Z"/>
      <path class="cls-5" d="M668.31,294.41c-.46-.29-.83-.71-1.09-1.25-.27-.54-.4-1.17-.4-1.88s.13-1.29.39-1.83c.26-.54.62-.96,1.09-1.27.47-.31,1.01-.46,1.62-.46.55,0,1.03.13,1.43.39s.71.6.9,1.01v-4.27h.88v9.8h-.88v-1.23c-.22.46-.55.81-.97,1.06-.42.25-.89.37-1.4.37-.59,0-1.11-.15-1.58-.44ZM671.2,293.77c.35-.24.62-.57.81-1,.19-.43.29-.93.29-1.51,0-.86-.21-1.54-.62-2.06s-.97-.77-1.66-.77c-.46,0-.86.12-1.2.36-.35.24-.61.57-.81,1s-.29.92-.29,1.48.1,1.07.29,1.5c.19.43.46.76.8,1,.34.24.74.36,1.2.36s.85-.12,1.2-.36Z"/>
      <path class="cls-5" d="M682.45,294.6c-.34-.16-.61-.4-.81-.7-.2-.3-.29-.65-.29-1.03,0-.59.2-1.05.59-1.38.4-.33.92-.55,1.58-.65l1.47-.22c.33-.05.57-.13.72-.25s.23-.3.23-.55c0-.42-.15-.76-.44-1.01s-.69-.38-1.2-.38c-.61,0-1.06.14-1.36.43-.3.29-.47.67-.5,1.13h-.88c.03-.41.15-.79.37-1.14.22-.35.53-.63.93-.83s.86-.31,1.39-.31c.55,0,1.02.1,1.4.3.38.2.67.48.87.84.2.36.29.78.29,1.25v4.54h-.85v-1.12c-.19.39-.48.71-.89.95-.41.24-.89.36-1.45.36-.44,0-.83-.08-1.17-.25ZM684.87,293.86c.34-.19.6-.45.78-.78.19-.33.28-.69.28-1.09v-1.09c-.04.08-.13.16-.29.22-.15.07-.37.12-.64.17l-1.22.21c-.49.08-.87.24-1.14.46-.28.22-.41.52-.41.92s.14.69.41.92c.27.23.63.35,1.06.35s.83-.1,1.16-.29Z"/>
      <path class="cls-5" d="M689.31,287.92h.88v1.2c.21-.39.51-.72.91-.99s.87-.41,1.41-.41c.5,0,.94.11,1.31.31.37.21.66.52.86.92.21.41.31.9.31,1.49v4.2h-.88v-4.1c0-.68-.13-1.2-.41-1.57-.27-.36-.71-.54-1.33-.54-.43,0-.81.11-1.14.32-.33.21-.59.5-.77.85-.18.35-.27.73-.27,1.13v3.91h-.88v-6.73Z"/>
      <path class="cls-5" d="M704.23,294.6c-.34-.16-.61-.4-.81-.7-.2-.3-.29-.65-.29-1.03,0-.59.2-1.05.59-1.38.4-.33.92-.55,1.58-.65l1.47-.22c.33-.05.57-.13.72-.25s.23-.3.23-.55c0-.42-.15-.76-.44-1.01s-.69-.38-1.2-.38c-.61,0-1.06.14-1.36.43-.3.29-.47.67-.5,1.13h-.88c.03-.41.15-.79.37-1.14.22-.35.53-.63.93-.83s.86-.31,1.39-.31c.55,0,1.02.1,1.4.3.38.2.67.48.87.84.2.36.29.78.29,1.25v4.54h-.85v-1.12c-.19.39-.48.71-.89.95-.41.24-.89.36-1.45.36-.44,0-.83-.08-1.17-.25ZM706.66,293.86c.34-.19.6-.45.78-.78.19-.33.28-.69.28-1.09v-1.09c-.04.08-.13.16-.29.22-.15.07-.37.12-.64.17l-1.22.21c-.49.08-.87.24-1.14.46-.28.22-.41.52-.41.92s.14.69.41.92c.27.23.63.35,1.06.35s.83-.1,1.16-.29Z"/>
      <path class="cls-5" d="M711.53,287.92h.88v1.47c.21-.48.53-.88.98-1.19.45-.31,1.01-.46,1.69-.46.21,0,.4.01.57.04v.84c-.3-.03-.51-.04-.63-.04-.55,0-1.02.11-1.41.32-.39.21-.69.52-.9.91-.21.39-.31.84-.31,1.34v3.5h-.88v-6.73Z"/>
      <path class="cls-5" d="M719.5,294.24c-.41-.36-.62-.93-.62-1.7v-3.86h-1.99v-.76h1.99v-2.14h.88v2.14h2.27v.76h-2.27v3.79c0,.55.14.94.41,1.18.28.23.68.35,1.21.35.25,0,.52-.03.81-.1v.77c-.31.07-.63.11-.98.11-.74,0-1.31-.18-1.72-.54Z"/>
      <path class="cls-5" d="M723.89,293.89h4.03v.76h-4.03v-.76ZM724.19,287.92h1.86v.76h-1.86v-.76ZM725.43,285.17h1.08v1.48h-1.08v-1.48ZM725.59,287.92h.87v6.73h-.87v-6.73Z"/>
      <path class="cls-5" d="M731.19,294.41c-.49-.29-.88-.7-1.16-1.25s-.43-1.18-.43-1.9c0-.68.14-1.29.43-1.83.29-.54.68-.96,1.18-1.26.5-.3,1.06-.46,1.69-.46.77,0,1.41.21,1.93.64.52.43.82,1,.9,1.72h-.9c-.07-.5-.28-.89-.63-1.2-.35-.3-.79-.45-1.32-.45-.48,0-.9.12-1.26.37-.36.25-.64.58-.84,1.01-.2.42-.29.91-.29,1.45,0,.57.1,1.07.3,1.5.2.43.48.77.83,1.01.35.24.76.36,1.23.36.57,0,1.03-.15,1.39-.44.36-.29.58-.7.65-1.22h.87c-.06.48-.21.89-.46,1.25-.25.36-.58.64-1.01.83-.42.2-.92.29-1.48.29-.61,0-1.15-.14-1.64-.43Z"/>
      <path class="cls-5" d="M737.54,293.89h4.06v.76h-4.06v-.76ZM737.82,284.85h1.86v.76h-1.86v-.76ZM739.25,284.85h.87v9.8h-.87v-9.8Z"/>
      <path class="cls-5" d="M744.76,294.43c-.48-.28-.85-.69-1.12-1.23-.27-.54-.4-1.19-.4-1.95,0-.67.14-1.28.41-1.81.28-.54.65-.96,1.13-1.26.48-.3,1.01-.46,1.6-.46.63,0,1.18.14,1.62.43.45.29.79.7,1.02,1.23s.35,1.14.35,1.84v.2h-5.25c0,.57.11,1.06.31,1.47.2.41.47.72.81.93.35.21.75.31,1.22.31.54,0,.99-.13,1.34-.38.35-.26.57-.64.64-1.14h.88c-.07.43-.22.81-.46,1.15-.24.34-.56.6-.97.8-.41.2-.9.29-1.46.29-.64,0-1.21-.14-1.69-.42ZM747.89,289.06c-.36-.42-.87-.63-1.51-.63s-1.12.22-1.53.65-.63.99-.69,1.66h4.28c0-.7-.2-1.26-.56-1.68Z"/>
      <path class="cls-5" d="M446.14,311.04c-.41-.36-.62-.93-.62-1.7v-3.86h-1.99v-.76h1.99v-2.14h.88v2.14h2.27v.76h-2.27v3.79c0,.55.14.94.41,1.18.28.23.68.35,1.21.35.25,0,.52-.03.81-.1v.77c-.31.07-.63.11-.98.11-.74,0-1.31-.18-1.72-.54Z"/>
      <path class="cls-5" d="M450.54,310.69h4.03v.76h-4.03v-.76ZM450.83,304.72h1.86v.76h-1.86v-.76ZM452.08,301.97h1.08v1.48h-1.08v-1.48ZM452.23,304.72h.87v6.73h-.87v-6.73Z"/>
      <path class="cls-5" d="M458.29,311.04c-.41-.36-.62-.93-.62-1.7v-3.86h-1.99v-.76h1.99v-2.14h.88v2.14h2.27v.76h-2.27v3.79c0,.55.14.94.41,1.18.28.23.68.35,1.21.35.25,0,.52-.03.81-.1v.77c-.31.07-.63.11-.98.11-.74,0-1.31-.18-1.72-.54Z"/>
      <path class="cls-5" d="M462.67,310.69h4.06v.76h-4.06v-.76ZM462.95,301.65h1.86v.76h-1.86v-.76ZM464.38,301.65h.87v9.8h-.87v-9.8Z"/>
      <path class="cls-5" d="M469.89,311.23c-.48-.28-.85-.69-1.12-1.23-.27-.54-.4-1.19-.4-1.95,0-.67.14-1.28.41-1.81.28-.54.65-.96,1.13-1.26.48-.3,1.01-.46,1.6-.46.63,0,1.18.15,1.62.43.45.29.79.7,1.02,1.22s.35,1.14.35,1.84v.2h-5.25c0,.57.11,1.06.31,1.47.2.41.47.72.81.93.35.21.75.32,1.22.32.54,0,.99-.13,1.34-.38.35-.26.57-.64.64-1.14h.88c-.07.43-.22.81-.46,1.15-.24.34-.56.6-.97.8s-.9.29-1.46.29c-.64,0-1.21-.14-1.69-.42ZM473.02,305.86c-.36-.42-.87-.63-1.51-.63s-1.12.22-1.53.65-.63.99-.69,1.66h4.28c0-.7-.2-1.26-.56-1.68Z"/>
      <path class="cls-5" d="M477.6,311.2c-.46-.29-.83-.71-1.09-1.25s-.4-1.17-.4-1.88.13-1.29.39-1.83c.26-.54.62-.96,1.09-1.27.47-.31,1.01-.46,1.62-.46.55,0,1.03.13,1.43.39.41.26.71.6.9,1.01v-4.27h.88v9.8h-.88v-1.23c-.22.46-.55.81-.97,1.06-.42.25-.89.37-1.4.37-.59,0-1.11-.15-1.58-.44ZM480.5,310.58c.35-.24.62-.57.81-1,.19-.43.29-.93.29-1.51,0-.86-.21-1.54-.62-2.06s-.97-.77-1.66-.77c-.46,0-.86.12-1.2.36-.35.24-.61.57-.81,1s-.29.92-.29,1.48.1,1.07.29,1.5c.19.43.46.76.8,1,.34.24.74.36,1.2.36s.85-.12,1.2-.36Z"/>
      <path class="cls-5" d="M490.79,301.65h3.79c.94,0,1.69.23,2.23.68s.82,1.08.82,1.88c0,.61-.19,1.12-.56,1.53-.37.42-.83.7-1.36.85.51.09.93.33,1.24.71.31.38.47.9.47,1.58v2.58h-.94v-2.42c0-.78-.17-1.3-.52-1.59-.35-.28-.9-.43-1.65-.43h-2.6v4.44h-.92v-9.8ZM495.59,305.99c.34-.15.61-.37.8-.66.19-.29.29-.63.29-1.04,0-.6-.2-1.06-.59-1.38-.4-.32-.96-.48-1.67-.48h-2.7v3.78h2.7c.45,0,.84-.07,1.18-.22Z"/>
      <path class="cls-5" d="M500.86,311.23c-.48-.28-.85-.69-1.12-1.23-.27-.54-.4-1.19-.4-1.95,0-.67.14-1.28.41-1.81.28-.54.65-.96,1.13-1.26.48-.3,1.01-.46,1.6-.46.63,0,1.18.15,1.62.43.45.29.79.7,1.02,1.22s.35,1.14.35,1.84v.2h-5.25c0,.57.11,1.06.31,1.47.2.41.47.72.81.93.35.21.75.32,1.22.32.54,0,.99-.13,1.34-.38.35-.26.57-.64.64-1.14h.88c-.07.43-.22.81-.46,1.15-.24.34-.56.6-.97.8s-.9.29-1.46.29c-.64,0-1.21-.14-1.69-.42ZM503.99,305.86c-.36-.42-.87-.63-1.51-.63s-1.12.22-1.53.65-.63.99-.69,1.66h4.28c0-.7-.2-1.26-.56-1.68Z"/>
      <path class="cls-5" d="M508.73,311.35c-.42-.2-.74-.47-.98-.81-.24-.35-.37-.76-.38-1.23h.87c.03.5.22.9.57,1.19.35.29.82.43,1.42.43.55,0,.98-.12,1.3-.35.32-.23.48-.55.48-.95,0-.33-.11-.58-.34-.76s-.58-.31-1.06-.41l-1.01-.2c-.63-.12-1.13-.34-1.48-.64-.35-.31-.52-.71-.52-1.19,0-.36.11-.69.32-.98s.51-.52.89-.69c.38-.17.81-.25,1.29-.25.77,0,1.39.18,1.84.55.45.37.71.88.78,1.53h-.88c-.05-.42-.23-.75-.55-1-.32-.25-.73-.37-1.25-.37-.48,0-.86.11-1.14.32-.29.21-.43.49-.43.84,0,.32.12.56.35.73s.57.29,1.02.38l1.06.21c.62.12,1.11.33,1.46.63s.52.7.52,1.22c0,.39-.11.75-.33,1.06-.22.32-.53.57-.93.75-.4.18-.87.27-1.41.27-.57,0-1.06-.1-1.48-.29Z"/>
      <path class="cls-5" d="M516.36,311.23c-.48-.28-.85-.69-1.12-1.23-.27-.54-.4-1.19-.4-1.95,0-.67.14-1.28.41-1.81.28-.54.65-.96,1.13-1.26.48-.3,1.01-.46,1.6-.46.63,0,1.18.15,1.62.43.45.29.79.7,1.02,1.22s.35,1.14.35,1.84v.2h-5.25c0,.57.11,1.06.31,1.47.2.41.47.72.81.93.35.21.75.32,1.22.32.54,0,.99-.13,1.34-.38.35-.26.57-.64.64-1.14h.88c-.07.43-.22.81-.46,1.15-.24.34-.56.6-.97.8s-.9.29-1.46.29c-.64,0-1.21-.14-1.69-.42ZM519.48,305.86c-.36-.42-.87-.63-1.51-.63s-1.12.22-1.53.65-.63.99-.69,1.66h4.28c0-.7-.2-1.26-.56-1.68Z"/>
      <path class="cls-5" d="M524,311.4c-.34-.16-.61-.4-.81-.7-.2-.3-.29-.65-.29-1.03,0-.59.2-1.05.59-1.38.4-.33.92-.55,1.58-.65l1.47-.22c.33-.05.57-.13.72-.24s.23-.3.23-.55c0-.42-.15-.76-.44-1.01s-.69-.38-1.2-.38c-.61,0-1.06.14-1.36.43-.3.29-.47.67-.5,1.13h-.88c.03-.41.15-.79.37-1.14.22-.35.53-.63.93-.83.4-.21.86-.31,1.39-.31.55,0,1.02.1,1.4.3.38.2.67.48.87.84s.29.78.29,1.25v4.54h-.85v-1.12c-.19.39-.48.71-.89.95-.41.24-.89.36-1.45.36-.44,0-.83-.08-1.17-.24ZM526.43,310.66c.34-.19.6-.45.78-.79.19-.33.28-.69.28-1.08v-1.09c-.04.08-.13.16-.29.22-.15.07-.37.12-.64.17l-1.22.21c-.49.08-.87.24-1.14.46-.28.22-.41.53-.41.92s.14.69.41.92c.27.23.63.35,1.06.35s.83-.1,1.16-.29Z"/>
      <path class="cls-5" d="M531.3,304.72h.88v1.47c.21-.49.53-.88.98-1.19.45-.31,1.01-.46,1.69-.46.21,0,.4.01.57.04v.84c-.3-.03-.51-.04-.63-.04-.55,0-1.02.11-1.41.32-.39.21-.69.52-.9.91s-.31.84-.31,1.34v3.5h-.88v-6.73Z"/>
      <path class="cls-5" d="M538.63,311.21c-.49-.29-.88-.71-1.16-1.25s-.43-1.18-.43-1.9c0-.68.14-1.29.43-1.83.29-.54.68-.96,1.18-1.26.5-.3,1.06-.46,1.69-.46.77,0,1.41.21,1.93.64.52.43.82,1,.9,1.72h-.9c-.07-.49-.28-.89-.63-1.2-.35-.3-.79-.46-1.32-.46-.48,0-.9.12-1.26.37-.36.25-.64.58-.84,1.01-.2.43-.29.91-.29,1.45,0,.57.1,1.07.3,1.51.2.43.48.77.83,1.01.35.24.76.36,1.23.36.57,0,1.03-.15,1.39-.44.36-.29.58-.7.65-1.23h.87c-.06.48-.21.89-.46,1.25s-.58.64-1.01.83-.92.29-1.48.29c-.61,0-1.15-.14-1.64-.43Z"/>
      <path class="cls-5" d="M545.36,301.65h.87v4.27c.21-.4.51-.74.92-1,.41-.27.88-.4,1.42-.4.5,0,.94.1,1.31.32.37.21.65.52.85.93.2.41.3.91.3,1.48v4.2h-.88v-4.1c0-.68-.14-1.2-.41-1.57-.27-.37-.71-.55-1.33-.55-.43,0-.81.11-1.14.32-.33.21-.59.5-.77.85-.18.36-.27.73-.27,1.13v3.91h-.87v-9.8Z"/>
      <path class="cls-5" d="M560.4,311.2c-.49-.3-.87-.72-1.15-1.26-.28-.54-.41-1.16-.41-1.86s.14-1.3.41-1.84c.28-.54.66-.96,1.15-1.26s1.05-.46,1.67-.46,1.18.15,1.67.45.87.72,1.15,1.27c.28.54.41,1.16.41,1.84s-.14,1.32-.41,1.86c-.28.54-.66.96-1.15,1.26-.49.3-1.05.45-1.67.45s-1.18-.15-1.67-.45ZM563.31,310.58c.35-.24.62-.57.81-1.01.19-.43.29-.93.29-1.49,0-.85-.21-1.54-.64-2.06s-.99-.78-1.7-.78c-.47,0-.88.12-1.23.36-.36.24-.63.57-.81.99-.19.42-.28.92-.28,1.49s.09,1.05.28,1.48.46.77.81,1.01c.35.24.76.36,1.23.36s.89-.12,1.24-.36Z"/>
      <path class="cls-5" d="M567.38,304.72h.88v1.2c.21-.39.51-.72.91-.99s.87-.41,1.41-.41c.5,0,.94.1,1.31.32.37.21.66.52.86.92s.31.9.31,1.49v4.2h-.88v-4.1c0-.68-.13-1.2-.41-1.57-.27-.37-.71-.55-1.33-.55-.43,0-.81.11-1.14.32-.33.21-.59.5-.77.85-.18.36-.27.73-.27,1.13v3.91h-.88v-6.73Z"/>
      <path class="cls-5" d="M583.03,311.04c-.41-.36-.62-.93-.62-1.7v-3.86h-1.99v-.76h1.99v-2.14h.88v2.14h2.27v.76h-2.27v3.79c0,.55.14.94.41,1.18.28.23.68.35,1.21.35.25,0,.52-.03.81-.1v.77c-.31.07-.63.11-.98.11-.74,0-1.31-.18-1.72-.54Z"/>
      <path class="cls-5" d="M587.79,301.65h.87v4.27c.21-.4.51-.74.92-1,.41-.27.88-.4,1.42-.4.5,0,.94.1,1.31.32.37.21.65.52.85.93.2.41.3.91.3,1.48v4.2h-.88v-4.1c0-.68-.14-1.2-.41-1.57-.27-.37-.71-.55-1.33-.55-.43,0-.81.11-1.14.32-.33.21-.59.5-.77.85-.18.36-.27.73-.27,1.13v3.91h-.87v-9.8Z"/>
      <path class="cls-5" d="M596.94,311.23c-.48-.28-.85-.69-1.12-1.23-.27-.54-.4-1.19-.4-1.95,0-.67.14-1.28.41-1.81.28-.54.65-.96,1.13-1.26.48-.3,1.01-.46,1.6-.46.63,0,1.18.15,1.62.43.45.29.79.7,1.02,1.22s.35,1.14.35,1.84v.2h-5.25c0,.57.11,1.06.31,1.47.2.41.47.72.81.93.35.21.75.32,1.22.32.54,0,.99-.13,1.34-.38.35-.26.57-.64.64-1.14h.88c-.07.43-.22.81-.46,1.15-.24.34-.56.6-.97.8s-.9.29-1.46.29c-.64,0-1.21-.14-1.69-.42ZM600.07,305.86c-.36-.42-.87-.63-1.51-.63s-1.12.22-1.53.65-.63.99-.69,1.66h4.28c0-.7-.2-1.26-.56-1.68Z"/>
      <path class="cls-5" d="M609.54,301.65h1.37l2.46,6.41c.09.26.23.64.42,1.13.13-.38.27-.76.41-1.13l2.44-6.41h1.36v9.8h-.87v-7.17c.01-.56.01-1.12.01-1.68l-2.87,7.63h-.99l-2.88-7.63c0,.46.01.99.01,1.6v7.25s-.87,0-.87,0v-9.8Z"/>
      <path class="cls-5" d="M621.53,311.23c-.48-.28-.85-.69-1.12-1.23-.27-.54-.4-1.19-.4-1.95,0-.67.14-1.28.41-1.81.28-.54.65-.96,1.13-1.26.48-.3,1.01-.46,1.6-.46.63,0,1.18.15,1.62.43.45.29.79.7,1.02,1.22s.35,1.14.35,1.84v.2h-5.25c0,.57.11,1.06.31,1.47.2.41.47.72.81.93.35.21.75.32,1.22.32.54,0,.99-.13,1.34-.38.35-.26.57-.64.64-1.14h.88c-.07.43-.22.81-.46,1.15-.24.34-.56.6-.97.8s-.9.29-1.46.29c-.64,0-1.21-.14-1.69-.42ZM624.66,305.86c-.36-.42-.87-.63-1.51-.63s-1.12.22-1.53.65-.63.99-.69,1.66h4.28c0-.7-.2-1.26-.56-1.68Z"/>
      <path class="cls-5" d="M629.57,311.21c-.49-.29-.88-.71-1.16-1.25s-.43-1.18-.43-1.9c0-.68.14-1.29.43-1.83.29-.54.68-.96,1.18-1.26.5-.3,1.06-.46,1.69-.46.77,0,1.41.21,1.93.64.52.43.82,1,.9,1.72h-.9c-.07-.49-.28-.89-.63-1.2-.35-.3-.79-.46-1.32-.46-.48,0-.9.12-1.26.37-.36.25-.64.58-.84,1.01-.2.43-.29.91-.29,1.45,0,.57.1,1.07.3,1.51.2.43.48.77.83,1.01.35.24.76.36,1.23.36.57,0,1.03-.15,1.39-.44.36-.29.58-.7.65-1.23h.87c-.06.48-.21.89-.46,1.25s-.58.64-1.01.83-.92.29-1.48.29c-.61,0-1.15-.14-1.64-.43Z"/>
      <path class="cls-5" d="M636.3,301.65h.87v4.27c.21-.4.51-.74.92-1,.41-.27.88-.4,1.42-.4.5,0,.94.1,1.31.32.37.21.65.52.85.93.2.41.3.91.3,1.48v4.2h-.88v-4.1c0-.68-.14-1.2-.41-1.57-.27-.37-.71-.55-1.33-.55-.43,0-.81.11-1.14.32-.33.21-.59.5-.77.85-.18.36-.27.73-.27,1.13v3.91h-.87v-9.8Z"/>
      <path class="cls-5" d="M645.15,311.4c-.34-.16-.61-.4-.81-.7-.2-.3-.29-.65-.29-1.03,0-.59.2-1.05.59-1.38.4-.33.92-.55,1.58-.65l1.47-.22c.33-.05.57-.13.72-.24s.23-.3.23-.55c0-.42-.15-.76-.44-1.01s-.69-.38-1.2-.38c-.61,0-1.06.14-1.36.43-.3.29-.47.67-.5,1.13h-.88c.03-.41.15-.79.37-1.14.22-.35.53-.63.93-.83.4-.21.86-.31,1.39-.31.55,0,1.02.1,1.4.3.38.2.67.48.87.84s.29.78.29,1.25v4.54h-.85v-1.12c-.19.39-.48.71-.89.95-.41.24-.89.36-1.45.36-.44,0-.83-.08-1.17-.24ZM647.58,310.66c.34-.19.6-.45.78-.79.19-.33.28-.69.28-1.08v-1.09c-.04.08-.13.16-.29.22-.15.07-.37.12-.64.17l-1.22.21c-.49.08-.87.24-1.14.46-.28.22-.41.53-.41.92s.14.69.41.92c.27.23.63.35,1.06.35s.83-.1,1.16-.29Z"/>
      <path class="cls-5" d="M652.02,304.72h.88v1.2c.21-.39.51-.72.91-.99s.87-.41,1.41-.41c.5,0,.94.1,1.31.32.37.21.66.52.86.92s.31.9.31,1.49v4.2h-.88v-4.1c0-.68-.13-1.2-.41-1.57-.27-.37-.71-.55-1.33-.55-.43,0-.81.11-1.14.32-.33.21-.59.5-.77.85-.18.36-.27.73-.27,1.13v3.91h-.88v-6.73Z"/>
      <path class="cls-5" d="M659.81,310.69h4.03v.76h-4.03v-.76ZM660.11,304.72h1.86v.76h-1.86v-.76ZM661.35,301.97h1.08v1.48h-1.08v-1.48ZM661.51,304.72h.87v6.73h-.87v-6.73Z"/>
      <path class="cls-5" d="M666.95,311.35c-.42-.2-.74-.47-.98-.81-.24-.35-.37-.76-.38-1.23h.87c.03.5.22.9.57,1.19.35.29.82.43,1.42.43.55,0,.98-.12,1.3-.35.32-.23.48-.55.48-.95,0-.33-.11-.58-.34-.76s-.58-.31-1.06-.41l-1.01-.2c-.63-.12-1.13-.34-1.48-.64-.35-.31-.52-.71-.52-1.19,0-.36.11-.69.32-.98s.51-.52.89-.69c.38-.17.81-.25,1.29-.25.77,0,1.39.18,1.84.55.45.37.71.88.78,1.53h-.88c-.05-.42-.23-.75-.55-1-.32-.25-.73-.37-1.25-.37-.48,0-.86.11-1.14.32-.29.21-.43.49-.43.84,0,.32.12.56.35.73s.57.29,1.02.38l1.06.21c.62.12,1.11.33,1.46.63s.52.7.52,1.22c0,.39-.11.75-.33,1.06-.22.32-.53.57-.93.75-.4.18-.87.27-1.41.27-.57,0-1.06-.1-1.48-.29Z"/>
      <path class="cls-5" d="M673.1,304.72h.85v1.19c.16-.41.39-.74.71-1,.31-.26.69-.39,1.14-.39.4,0,.76.13,1.06.38.31.25.52.62.63,1.09.19-.45.45-.8.78-1.07s.73-.4,1.2-.4c.38,0,.71.1.99.29.28.19.5.47.66.85.16.37.24.82.24,1.34v4.45h-.85v-4.29c0-.62-.1-1.09-.29-1.43s-.52-.5-.97-.5c-.33,0-.61.11-.85.32-.24.21-.43.49-.55.84s-.19.73-.19,1.13v3.93h-.85v-4.3c0-.62-.1-1.09-.29-1.42s-.51-.5-.95-.5c-.34,0-.64.12-.88.34-.24.23-.42.52-.55.88-.13.36-.19.74-.19,1.13v3.86h-.85v-6.73Z"/>
      <path class="cls-5" d="M690.55,311.2c-.49-.3-.87-.72-1.15-1.26-.28-.54-.41-1.16-.41-1.86s.14-1.3.41-1.84c.28-.54.66-.96,1.15-1.26s1.05-.46,1.67-.46,1.18.15,1.67.45.87.72,1.15,1.27c.28.54.41,1.16.41,1.84s-.14,1.32-.41,1.86c-.28.54-.66.96-1.15,1.26-.49.3-1.05.45-1.67.45s-1.18-.15-1.67-.45ZM693.46,310.58c.35-.24.62-.57.81-1.01.19-.43.29-.93.29-1.49,0-.85-.21-1.54-.64-2.06s-.99-.78-1.7-.78c-.47,0-.88.12-1.23.36-.36.24-.63.57-.81.99-.19.42-.28.92-.28,1.49s.09,1.05.28,1.48.46.77.81,1.01c.35.24.76.36,1.23.36s.89-.12,1.24-.36Z"/>
      <path class="cls-5" d="M698.61,305.47h-1.9v-.76h1.9v-1.02c0-.71.2-1.26.6-1.66.4-.4.96-.59,1.68-.59.33,0,.62.04.9.12v.76c-.27-.05-.52-.07-.74-.07-.56,0-.96.13-1.2.39s-.36.63-.36,1.13v.95h2.25v.76h-2.25v5.98h-.88v-5.98Z"/>
      <path class="cls-5" d="M709.6,301.65h.92v4.26h5.03v-4.26h.92v9.8h-.92v-4.75h-5.03v4.75h-.92v-9.8Z"/>
      <path class="cls-5" d="M720.01,311.2c-.49-.3-.87-.72-1.15-1.26-.28-.54-.41-1.16-.41-1.86s.14-1.3.41-1.84c.28-.54.66-.96,1.15-1.26s1.05-.46,1.67-.46,1.18.15,1.67.45.87.72,1.15,1.27c.28.54.41,1.16.41,1.84s-.14,1.32-.41,1.86c-.28.54-.66.96-1.15,1.26-.49.3-1.05.45-1.67.45s-1.18-.15-1.67-.45ZM722.92,310.58c.35-.24.62-.57.81-1.01.19-.43.29-.93.29-1.49,0-.85-.21-1.54-.64-2.06s-.99-.78-1.7-.78c-.47,0-.88.12-1.23.36-.36.24-.63.57-.81.99-.19.42-.28.92-.28,1.49s.09,1.05.28,1.48.46.77.81,1.01c.35.24.76.36,1.23.36s.89-.12,1.24-.36Z"/>
      <path class="cls-5" d="M726.09,304.72h.92l1.26,5.08c.07.22.13.45.18.67.08-.25.15-.48.2-.67l1.33-4.31h.98l1.34,4.31c.1.31.17.53.21.66.06-.22.11-.44.17-.66l1.26-5.08h.87l-1.82,6.73h-.98l-1.37-4.41c-.03-.12-.06-.23-.1-.32-.02-.07-.05-.17-.08-.28-.07.2-.13.39-.2.59l-1.37,4.42h-.97l-1.83-6.73Z"/>
      <path class="cls-5" d="M744.02,311.04c-.41-.36-.62-.93-.62-1.7v-3.86h-1.99v-.76h1.99v-2.14h.88v2.14h2.27v.76h-2.27v3.79c0,.55.14.94.41,1.18.28.23.68.35,1.21.35.25,0,.52-.03.81-.1v.77c-.31.07-.63.11-.98.11-.74,0-1.31-.18-1.72-.54Z"/>
      <path class="cls-5" d="M748.78,301.65h.87v4.27c.21-.4.51-.74.92-1,.41-.27.88-.4,1.42-.4.5,0,.94.1,1.31.32.37.21.65.52.85.93.2.41.3.91.3,1.48v4.2h-.88v-4.1c0-.68-.14-1.2-.41-1.57-.27-.37-.71-.55-1.33-.55-.43,0-.81.11-1.14.32-.33.21-.59.5-.77.85-.18.36-.27.73-.27,1.13v3.91h-.87v-9.8Z"/>
      <path class="cls-5" d="M757.93,311.23c-.48-.28-.85-.69-1.12-1.23-.27-.54-.4-1.19-.4-1.95,0-.67.14-1.28.41-1.81.28-.54.65-.96,1.13-1.26.48-.3,1.01-.46,1.6-.46.63,0,1.18.15,1.62.43.45.29.79.7,1.02,1.22s.35,1.14.35,1.84v.2h-5.25c0,.57.11,1.06.31,1.47.2.41.47.72.81.93.35.21.75.32,1.22.32.54,0,.99-.13,1.34-.38.35-.26.57-.64.64-1.14h.88c-.07.43-.22.81-.46,1.15-.24.34-.56.6-.97.8s-.9.29-1.46.29c-.64,0-1.21-.14-1.69-.42ZM761.06,305.86c-.36-.42-.87-.63-1.51-.63s-1.12.22-1.53.65-.63.99-.69,1.66h4.28c0-.7-.2-1.26-.56-1.68Z"/>
      <path class="cls-5" d="M444.27,318.45h3.79v.8h-3.79v-.8ZM444.27,327.44h3.79v.81h-3.79v-.81ZM445.69,318.45h.92v9.8h-.92v-9.8Z"/>
      <path class="cls-5" d="M450.44,321.52h.88v1.2c.21-.39.51-.72.91-.99.4-.27.87-.41,1.41-.41.5,0,.94.11,1.31.32.37.21.66.52.86.92.21.41.31.9.31,1.49v4.2h-.88v-4.1c0-.68-.13-1.2-.41-1.57-.27-.36-.71-.55-1.33-.55-.43,0-.81.11-1.14.32-.33.21-.59.5-.77.85-.18.36-.27.73-.27,1.13v3.91h-.88v-6.73Z"/>
      <path class="cls-5" d="M460.21,327.84c-.41-.36-.62-.93-.62-1.7v-3.86h-1.99v-.76h1.99v-2.14h.88v2.14h2.27v.76h-2.27v3.79c0,.55.14.94.41,1.18s.68.35,1.21.35c.25,0,.52-.03.81-.1v.77c-.31.07-.63.11-.98.11-.74,0-1.31-.18-1.72-.54Z"/>
      <path class="cls-5" d="M466.01,328.03c-.48-.28-.85-.69-1.12-1.23-.27-.54-.4-1.19-.4-1.95,0-.67.14-1.28.41-1.81s.65-.96,1.13-1.26c.48-.3,1.01-.46,1.6-.46.63,0,1.18.15,1.62.43.45.29.79.7,1.02,1.23s.35,1.14.35,1.84v.2h-5.25c0,.57.11,1.06.31,1.47.2.41.47.72.81.93.35.21.75.31,1.22.31.54,0,.99-.13,1.34-.38.35-.26.57-.64.64-1.14h.88c-.07.43-.22.81-.46,1.15-.24.34-.56.6-.97.8-.41.2-.9.29-1.46.29-.64,0-1.21-.14-1.69-.42ZM469.14,322.66c-.36-.42-.87-.63-1.51-.63s-1.12.22-1.53.65c-.4.43-.63.99-.69,1.66h4.28c0-.7-.2-1.26-.56-1.68Z"/>
      <path class="cls-5" d="M473.2,321.52h.88v1.47c.21-.48.53-.88.98-1.19.45-.31,1.01-.46,1.69-.46.21,0,.4.01.57.04v.84c-.3-.03-.51-.04-.63-.04-.55,0-1.02.11-1.41.32-.39.21-.69.52-.9.91-.21.39-.31.84-.31,1.34v3.5h-.88v-6.73Z"/>
      <path class="cls-5" d="M479.37,321.52h.88v1.2c.21-.39.51-.72.91-.99.4-.27.87-.41,1.41-.41.5,0,.94.11,1.31.32.37.21.66.52.86.92.21.41.31.9.31,1.49v4.2h-.88v-4.1c0-.68-.13-1.2-.41-1.57-.27-.36-.71-.55-1.33-.55-.43,0-.81.11-1.14.32-.33.21-.59.5-.77.85-.18.36-.27.73-.27,1.13v3.91h-.88v-6.73Z"/>
      <path class="cls-5" d="M488.62,328.03c-.48-.28-.85-.69-1.12-1.23-.27-.54-.4-1.19-.4-1.95,0-.67.14-1.28.41-1.81s.65-.96,1.13-1.26c.48-.3,1.01-.46,1.6-.46.63,0,1.18.15,1.62.43.45.29.79.7,1.02,1.23s.35,1.14.35,1.84v.2h-5.25c0,.57.11,1.06.31,1.47.2.41.47.72.81.93.35.21.75.31,1.22.31.54,0,.99-.13,1.34-.38.35-.26.57-.64.64-1.14h.88c-.07.43-.22.81-.46,1.15-.24.34-.56.6-.97.8-.41.2-.9.29-1.46.29-.64,0-1.21-.14-1.69-.42ZM491.75,322.66c-.36-.42-.87-.63-1.51-.63s-1.12.22-1.53.65c-.4.43-.63.99-.69,1.66h4.28c0-.7-.2-1.26-.56-1.68Z"/>
      <path class="cls-5" d="M497.07,327.84c-.41-.36-.62-.93-.62-1.7v-3.86h-1.99v-.76h1.99v-2.14h.88v2.14h2.27v.76h-2.27v3.79c0,.55.14.94.41,1.18s.68.35,1.21.35c.25,0,.52-.03.81-.1v.77c-.31.07-.63.11-.98.11-.74,0-1.31-.18-1.72-.54Z"/>
      <path class="cls-5" d="M507.86,318.45h6.2v.78h-5.28v3.63h5.04v.8h-5.04v4.59h-.92v-9.8Z"/>
      <path class="cls-5" d="M516.73,328.2c-.34-.16-.61-.4-.81-.7-.2-.3-.29-.65-.29-1.03,0-.59.2-1.05.59-1.38.4-.33.92-.55,1.58-.65l1.47-.22c.33-.05.57-.13.72-.24.15-.12.23-.3.23-.55,0-.42-.15-.76-.44-1.01s-.69-.38-1.2-.38c-.61,0-1.06.14-1.36.43-.3.29-.47.67-.5,1.13h-.88c.03-.41.15-.79.37-1.14s.53-.63.93-.83.86-.31,1.39-.31c.55,0,1.02.1,1.4.3s.67.48.87.84c.2.36.29.78.29,1.25v4.54h-.85v-1.12c-.19.39-.48.71-.89.95-.41.24-.89.36-1.45.36-.44,0-.83-.08-1.17-.25ZM519.16,327.46c.34-.19.6-.45.78-.78.19-.33.28-.69.28-1.08v-1.09c-.04.08-.13.16-.29.22-.15.07-.37.12-.64.17l-1.22.21c-.49.08-.87.24-1.14.46-.28.22-.41.52-.41.92s.14.69.41.92c.27.23.63.35,1.06.35s.83-.1,1.16-.29Z"/>
      <path class="cls-5" d="M524.88,328.01c-.49-.29-.88-.71-1.16-1.25-.29-.54-.43-1.18-.43-1.9,0-.68.14-1.29.43-1.83s.68-.96,1.18-1.26c.5-.3,1.06-.46,1.69-.46.77,0,1.41.21,1.93.64.52.43.82,1,.9,1.72h-.9c-.07-.5-.28-.89-.63-1.2s-.79-.46-1.32-.46c-.48,0-.9.12-1.26.37-.36.25-.64.58-.84,1.01-.2.42-.29.91-.29,1.45,0,.57.1,1.07.3,1.5.2.43.48.77.83,1.01.35.24.76.36,1.23.36.57,0,1.03-.15,1.39-.44.36-.29.58-.7.65-1.23h.87c-.06.48-.21.89-.46,1.25s-.58.64-1.01.83c-.42.2-.92.29-1.48.29-.61,0-1.15-.14-1.64-.43Z"/>
      <path class="cls-5" d="M531.24,327.49h4.03v.76h-4.03v-.76ZM531.54,321.52h1.86v.76h-1.86v-.76ZM532.78,318.77h1.08v1.48h-1.08v-1.48ZM532.94,321.52h.87v6.73h-.87v-6.73Z"/>
      <path class="cls-5" d="M536.98,327.49h4.06v.76h-4.06v-.76ZM537.26,318.45h1.86v.76h-1.86v-.76ZM538.69,318.45h.87v9.8h-.87v-9.8Z"/>
      <path class="cls-5" d="M542.75,327.49h4.03v.76h-4.03v-.76ZM543.05,321.52h1.86v.76h-1.86v-.76ZM544.29,318.77h1.08v1.48h-1.08v-1.48ZM544.45,321.52h.87v6.73h-.87v-6.73Z"/>
      <path class="cls-5" d="M550.51,327.84c-.41-.36-.62-.93-.62-1.7v-3.86h-1.99v-.76h1.99v-2.14h.88v2.14h2.27v.76h-2.27v3.79c0,.55.14.94.41,1.18s.68.35,1.21.35c.25,0,.52-.03.81-.1v.77c-.31.07-.63.11-.98.11-.74,0-1.31-.18-1.72-.54Z"/>
      <path class="cls-5" d="M556.06,328.2c-.34-.16-.61-.4-.81-.7-.2-.3-.29-.65-.29-1.03,0-.59.2-1.05.59-1.38.4-.33.92-.55,1.58-.65l1.47-.22c.33-.05.57-.13.72-.24.15-.12.23-.3.23-.55,0-.42-.15-.76-.44-1.01s-.69-.38-1.2-.38c-.61,0-1.06.14-1.36.43-.3.29-.47.67-.5,1.13h-.88c.03-.41.15-.79.37-1.14s.53-.63.93-.83.86-.31,1.39-.31c.55,0,1.02.1,1.4.3s.67.48.87.84c.2.36.29.78.29,1.25v4.54h-.85v-1.12c-.19.39-.48.71-.89.95-.41.24-.89.36-1.45.36-.44,0-.83-.08-1.17-.25ZM558.49,327.46c.34-.19.6-.45.78-.78.19-.33.28-.69.28-1.08v-1.09c-.04.08-.13.16-.29.22-.15.07-.37.12-.64.17l-1.22.21c-.49.08-.87.24-1.14.46-.28.22-.41.52-.41.92s.14.69.41.92c.27.23.63.35,1.06.35s.83-.1,1.16-.29Z"/>
      <path class="cls-5" d="M564.63,327.84c-.41-.36-.62-.93-.62-1.7v-3.86h-1.99v-.76h1.99v-2.14h.88v2.14h2.27v.76h-2.27v3.79c0,.55.14.94.41,1.18s.68.35,1.21.35c.25,0,.52-.03.81-.1v.77c-.31.07-.63.11-.98.11-.74,0-1.31-.18-1.72-.54Z"/>
      <path class="cls-5" d="M570.44,328.03c-.48-.28-.85-.69-1.12-1.23-.27-.54-.4-1.19-.4-1.95,0-.67.14-1.28.41-1.81s.65-.96,1.13-1.26c.48-.3,1.01-.46,1.6-.46.63,0,1.18.15,1.62.43.45.29.79.7,1.02,1.23s.35,1.14.35,1.84v.2h-5.25c0,.57.11,1.06.31,1.47.2.41.47.72.81.93.35.21.75.31,1.22.31.54,0,.99-.13,1.34-.38.35-.26.57-.64.64-1.14h.88c-.07.43-.22.81-.46,1.15-.24.34-.56.6-.97.8-.41.2-.9.29-1.46.29-.64,0-1.21-.14-1.69-.42ZM573.56,322.66c-.36-.42-.87-.63-1.51-.63s-1.12.22-1.53.65c-.4.43-.63.99-.69,1.66h4.28c0-.7-.2-1.26-.56-1.68Z"/>
      <path class="cls-5" d="M578.3,328.15c-.42-.2-.74-.47-.98-.81-.24-.34-.37-.76-.38-1.23h.87c.03.5.22.9.57,1.19.35.29.82.43,1.42.43.55,0,.98-.12,1.3-.35.32-.23.48-.55.48-.95,0-.33-.11-.58-.34-.76-.23-.18-.58-.31-1.06-.41l-1.01-.2c-.63-.12-1.13-.34-1.48-.64-.35-.31-.52-.71-.52-1.19,0-.36.11-.69.32-.98.21-.29.51-.52.89-.69.38-.17.81-.25,1.29-.25.77,0,1.39.19,1.84.55.45.37.71.88.78,1.53h-.88c-.05-.42-.23-.75-.55-1-.32-.25-.73-.37-1.25-.37-.48,0-.86.11-1.14.32-.29.21-.43.49-.43.84,0,.32.12.56.35.73s.57.29,1.02.38l1.06.21c.62.12,1.11.33,1.46.63s.52.71.52,1.22c0,.39-.11.75-.33,1.06-.22.32-.53.57-.93.75s-.87.27-1.41.27c-.57,0-1.06-.1-1.48-.29Z"/>
      <path class="cls-5" d="M592.34,327.84c-.41-.36-.62-.93-.62-1.7v-3.86h-1.99v-.76h1.99v-2.14h.88v2.14h2.27v.76h-2.27v3.79c0,.55.14.94.41,1.18s.68.35,1.21.35c.25,0,.52-.03.81-.1v.77c-.31.07-.63.11-.98.11-.74,0-1.31-.18-1.72-.54Z"/>
      <path class="cls-5" d="M597.1,318.45h.87v4.27c.21-.4.51-.73.92-1,.41-.27.88-.4,1.42-.4.5,0,.94.11,1.31.32.37.21.65.52.85.93.2.41.3.91.3,1.48v4.2h-.88v-4.1c0-.68-.14-1.2-.41-1.57-.27-.36-.71-.55-1.33-.55-.43,0-.81.11-1.14.32-.33.21-.59.5-.77.85-.18.36-.27.73-.27,1.13v3.91h-.87v-9.8Z"/>
      <path class="cls-5" d="M606.25,328.03c-.48-.28-.85-.69-1.12-1.23-.27-.54-.4-1.19-.4-1.95,0-.67.14-1.28.41-1.81s.65-.96,1.13-1.26c.48-.3,1.01-.46,1.6-.46.63,0,1.18.15,1.62.43.45.29.79.7,1.02,1.23s.35,1.14.35,1.84v.2h-5.25c0,.57.11,1.06.31,1.47.2.41.47.72.81.93.35.21.75.31,1.22.31.54,0,.99-.13,1.34-.38.35-.26.57-.64.64-1.14h.88c-.07.43-.22.81-.46,1.15-.24.34-.56.6-.97.8-.41.2-.9.29-1.46.29-.64,0-1.21-.14-1.69-.42ZM609.37,322.66c-.36-.42-.87-.63-1.51-.63s-1.12.22-1.53.65c-.4.43-.63.99-.69,1.66h4.28c0-.7-.2-1.26-.56-1.68Z"/>
      <path class="cls-5" d="M618.85,318.45h1.37l2.46,6.41c.09.26.23.64.42,1.13.13-.38.27-.76.41-1.13l2.44-6.41h1.36v9.8h-.87v-7.17c.01-.56.01-1.12.01-1.68l-2.87,7.63h-.99l-2.88-7.63c0,.46.01.99.01,1.6v7.25s-.87,0-.87,0v-9.8Z"/>
      <path class="cls-5" d="M630.55,328.2c-.34-.16-.61-.4-.81-.7-.2-.3-.29-.65-.29-1.03,0-.59.2-1.05.59-1.38.4-.33.92-.55,1.58-.65l1.47-.22c.33-.05.57-.13.72-.24.15-.12.23-.3.23-.55,0-.42-.15-.76-.44-1.01s-.69-.38-1.2-.38c-.61,0-1.06.14-1.36.43-.3.29-.47.67-.5,1.13h-.88c.03-.41.15-.79.37-1.14s.53-.63.93-.83.86-.31,1.39-.31c.55,0,1.02.1,1.4.3s.67.48.87.84c.2.36.29.78.29,1.25v4.54h-.85v-1.12c-.19.39-.48.71-.89.95-.41.24-.89.36-1.45.36-.44,0-.83-.08-1.17-.25ZM632.98,327.46c.34-.19.6-.45.78-.78.19-.33.28-.69.28-1.08v-1.09c-.04.08-.13.16-.29.22-.15.07-.37.12-.64.17l-1.22.21c-.49.08-.87.24-1.14.46-.28.22-.41.52-.41.92s.14.69.41.92c.27.23.63.35,1.06.35s.83-.1,1.16-.29Z"/>
      <path class="cls-5" d="M638.53,328.15c-.42-.2-.74-.47-.98-.81-.24-.34-.37-.76-.38-1.23h.87c.03.5.22.9.57,1.19.35.29.82.43,1.42.43.55,0,.98-.12,1.3-.35.32-.23.48-.55.48-.95,0-.33-.11-.58-.34-.76-.23-.18-.58-.31-1.06-.41l-1.01-.2c-.63-.12-1.13-.34-1.48-.64-.35-.31-.52-.71-.52-1.19,0-.36.11-.69.32-.98.21-.29.51-.52.89-.69.38-.17.81-.25,1.29-.25.77,0,1.39.19,1.84.55.45.37.71.88.78,1.53h-.88c-.05-.42-.23-.75-.55-1-.32-.25-.73-.37-1.25-.37-.48,0-.86.11-1.14.32-.29.21-.43.49-.43.84,0,.32.12.56.35.73s.57.29,1.02.38l1.06.21c.62.12,1.11.33,1.46.63s.52.71.52,1.22c0,.39-.11.75-.33,1.06-.22.32-.53.57-.93.75s-.87.27-1.41.27c-.57,0-1.06-.1-1.48-.29Z"/>
      <path class="cls-5" d="M646.09,328.15c-.42-.2-.74-.47-.98-.81-.24-.34-.37-.76-.38-1.23h.87c.03.5.22.9.57,1.19.35.29.82.43,1.42.43.55,0,.98-.12,1.3-.35.32-.23.48-.55.48-.95,0-.33-.11-.58-.34-.76-.23-.18-.58-.31-1.06-.41l-1.01-.2c-.63-.12-1.13-.34-1.48-.64-.35-.31-.52-.71-.52-1.19,0-.36.11-.69.32-.98.21-.29.51-.52.89-.69.38-.17.81-.25,1.29-.25.77,0,1.39.19,1.84.55.45.37.71.88.78,1.53h-.88c-.05-.42-.23-.75-.55-1-.32-.25-.73-.37-1.25-.37-.48,0-.86.11-1.14.32-.29.21-.43.49-.43.84,0,.32.12.56.35.73s.57.29,1.02.38l1.06.21c.62.12,1.11.33,1.46.63s.52.71.52,1.22c0,.39-.11.75-.33,1.06-.22.32-.53.57-.93.75s-.87.27-1.41.27c-.57,0-1.06-.1-1.48-.29Z"/>
      <path class="cls-5" d="M659.65,328.03c-.57-.28-1.02-.66-1.34-1.16s-.49-1.07-.52-1.72h.95c.03.49.17.92.41,1.3s.59.67,1.02.89c.43.21.92.32,1.48.32.51,0,.97-.08,1.38-.25.41-.17.72-.4.95-.71s.34-.66.34-1.07c0-.47-.17-.84-.5-1.12-.33-.28-.84-.5-1.53-.67l-1.6-.39c-.78-.2-1.41-.51-1.87-.93-.46-.42-.69-.97-.69-1.63,0-.49.15-.95.44-1.35.29-.41.7-.72,1.22-.95.52-.23,1.1-.34,1.76-.34s1.24.12,1.75.36c.51.24.92.59,1.23,1.03.3.44.47.95.51,1.5h-.94c-.03-.41-.16-.77-.39-1.09-.23-.32-.53-.56-.9-.74-.37-.18-.8-.27-1.27-.27s-.9.08-1.27.23c-.37.15-.66.37-.86.64s-.31.58-.31.92c0,.45.15.81.46,1.08.31.28.78.5,1.43.67l1.76.43c.8.21,1.43.52,1.87.94s.67.97.67,1.64c0,.55-.16,1.04-.47,1.47-.31.43-.75.77-1.3,1.02-.56.25-1.18.37-1.87.37-.76,0-1.42-.14-2-.41Z"/>
      <path class="cls-5" d="M667.1,321.52h.88v1.22c.22-.42.55-.76.97-1.02s.9-.39,1.42-.39c.62,0,1.16.15,1.62.46.47.31.82.73,1.07,1.26s.37,1.14.37,1.82-.13,1.31-.38,1.85-.62.97-1.08,1.27c-.47.31-1,.46-1.6.46-.5,0-.97-.12-1.4-.36-.43-.24-.76-.6-.99-1.06v4.16h-.88v-9.66ZM671.45,327.37c.35-.24.61-.57.8-1.01.19-.43.28-.94.28-1.5s-.09-1.04-.28-1.47c-.19-.43-.46-.76-.81-1-.35-.24-.75-.36-1.21-.36s-.84.12-1.19.35c-.35.23-.62.56-.81.99s-.29.92-.29,1.48.1,1.07.29,1.5c.2.43.47.77.81,1.01.34.24.75.36,1.2.36s.86-.12,1.2-.36Z"/>
      <path class="cls-5" d="M675.85,321.52h.88v1.47c.21-.48.53-.88.98-1.19.45-.31,1.01-.46,1.69-.46.21,0,.4.01.57.04v.84c-.3-.03-.51-.04-.63-.04-.55,0-1.02.11-1.41.32-.39.21-.69.52-.9.91-.21.39-.31.84-.31,1.34v3.5h-.88v-6.73Z"/>
      <path class="cls-5" d="M683.08,328.03c-.48-.28-.85-.69-1.12-1.23-.27-.54-.4-1.19-.4-1.95,0-.67.14-1.28.41-1.81s.65-.96,1.13-1.26c.48-.3,1.01-.46,1.6-.46.63,0,1.18.15,1.62.43.45.29.79.7,1.02,1.23s.35,1.14.35,1.84v.2h-5.25c0,.57.11,1.06.31,1.47.2.41.47.72.81.93.35.21.75.31,1.22.31.54,0,.99-.13,1.34-.38.35-.26.57-.64.64-1.14h.88c-.07.43-.22.81-.46,1.15-.24.34-.56.6-.97.8-.41.2-.9.29-1.46.29-.64,0-1.21-.14-1.69-.42ZM686.2,322.66c-.36-.42-.87-.63-1.51-.63s-1.12.22-1.53.65c-.4.43-.63.99-.69,1.66h4.28c0-.7-.2-1.26-.56-1.68Z"/>
      <path class="cls-5" d="M690.72,328.2c-.34-.16-.61-.4-.81-.7-.2-.3-.29-.65-.29-1.03,0-.59.2-1.05.59-1.38.4-.33.92-.55,1.58-.65l1.47-.22c.33-.05.57-.13.72-.24.15-.12.23-.3.23-.55,0-.42-.15-.76-.44-1.01s-.69-.38-1.2-.38c-.61,0-1.06.14-1.36.43-.3.29-.47.67-.5,1.13h-.88c.03-.41.15-.79.37-1.14s.53-.63.93-.83.86-.31,1.39-.31c.55,0,1.02.1,1.4.3s.67.48.87.84c.2.36.29.78.29,1.25v4.54h-.85v-1.12c-.19.39-.48.71-.89.95-.41.24-.89.36-1.45.36-.44,0-.83-.08-1.17-.25ZM693.15,327.46c.34-.19.6-.45.78-.78.19-.33.28-.69.28-1.08v-1.09c-.04.08-.13.16-.29.22-.15.07-.37.12-.64.17l-1.22.21c-.49.08-.87.24-1.14.46-.28.22-.41.52-.41.92s.14.69.41.92c.27.23.63.35,1.06.35s.83-.1,1.16-.29Z"/>
      <path class="cls-5" d="M698.54,328c-.46-.29-.83-.71-1.09-1.25-.27-.54-.4-1.17-.4-1.88s.13-1.29.39-1.83c.26-.54.62-.96,1.09-1.27.47-.31,1.01-.46,1.62-.46.55,0,1.03.13,1.43.39s.71.6.9,1.01v-4.27h.88v9.8h-.88v-1.23c-.22.46-.55.81-.97,1.06-.42.25-.89.37-1.4.37-.59,0-1.11-.15-1.58-.44ZM701.44,327.37c.35-.24.62-.57.81-1s.29-.93.29-1.51c0-.86-.21-1.54-.62-2.06-.42-.51-.97-.77-1.66-.77-.46,0-.86.12-1.2.36-.35.24-.61.57-.81,1-.19.43-.29.92-.29,1.48s.1,1.07.29,1.5.46.76.8,1,.74.36,1.2.36.85-.12,1.2-.36Z"/>
      <path class="cls-5" d="M712.91,328c-.49-.3-.87-.72-1.15-1.26-.28-.54-.41-1.16-.41-1.86s.14-1.3.41-1.84.66-.96,1.15-1.26c.49-.3,1.05-.46,1.67-.46s1.18.15,1.67.45.87.72,1.15,1.27.41,1.16.41,1.84-.14,1.32-.41,1.86c-.28.54-.66.96-1.15,1.26-.49.3-1.05.45-1.67.45s-1.18-.15-1.67-.45ZM715.82,327.37c.35-.24.62-.57.81-1.01.19-.43.29-.93.29-1.49,0-.85-.21-1.54-.64-2.06-.42-.52-.99-.78-1.7-.78-.47,0-.88.12-1.23.36-.36.24-.63.57-.81.99s-.28.92-.28,1.49.09,1.05.28,1.48.46.77.81,1.01c.35.24.76.36,1.23.36s.89-.12,1.24-.36Z"/>
      <path class="cls-5" d="M720.97,322.27h-1.9v-.76h1.9v-1.02c0-.71.2-1.26.6-1.66s.96-.59,1.68-.59c.33,0,.62.04.9.13v.76c-.27-.05-.52-.07-.74-.07-.56,0-.96.13-1.2.38-.24.26-.36.63-.36,1.13v.95h2.25v.76h-2.25v5.98h-.88v-5.98Z"/>
      <path class="cls-5" d="M731.87,318.45h1.37l2.46,6.41c.09.26.23.64.42,1.13.13-.38.27-.76.41-1.13l2.44-6.41h1.36v9.8h-.87v-7.17c.01-.56.01-1.12.01-1.68l-2.87,7.63h-.99l-2.88-7.63c0,.46.01.99.01,1.6v7.25s-.87,0-.87,0v-9.8Z"/>
      <path class="cls-5" d="M743.86,328.03c-.48-.28-.85-.69-1.12-1.23-.27-.54-.4-1.19-.4-1.95,0-.67.14-1.28.41-1.81s.65-.96,1.13-1.26c.48-.3,1.01-.46,1.6-.46.63,0,1.18.15,1.62.43.45.29.79.7,1.02,1.23s.35,1.14.35,1.84v.2h-5.25c0,.57.11,1.06.31,1.47.2.41.47.72.81.93.35.21.75.31,1.22.31.54,0,.99-.13,1.34-.38.35-.26.57-.64.64-1.14h.88c-.07.43-.22.81-.46,1.15-.24.34-.56.6-.97.8-.41.2-.9.29-1.46.29-.64,0-1.21-.14-1.69-.42ZM746.99,322.66c-.36-.42-.87-.63-1.51-.63s-1.12.22-1.53.65c-.4.43-.63.99-.69,1.66h4.28c0-.7-.2-1.26-.56-1.68Z"/>
      <path class="cls-5" d="M750.32,321.52h.85v1.19c.16-.41.39-.74.71-1,.31-.26.69-.39,1.14-.39.4,0,.76.13,1.06.38.31.25.52.62.63,1.09.19-.45.45-.8.78-1.07.33-.27.73-.4,1.2-.4.38,0,.71.1.99.29.28.19.5.47.66.85.16.37.24.82.24,1.34v4.45h-.85v-4.28c0-.62-.1-1.09-.29-1.43s-.52-.5-.97-.5c-.33,0-.61.11-.85.31-.24.21-.43.49-.55.84-.13.35-.19.73-.19,1.13v3.93h-.85v-4.3c0-.62-.1-1.09-.29-1.42-.19-.33-.51-.5-.95-.5-.34,0-.64.11-.88.34-.24.23-.42.52-.55.88s-.19.74-.19,1.13v3.86h-.85v-6.73Z"/>
      <path class="cls-5" d="M761.88,328.03c-.48-.28-.85-.69-1.12-1.23-.27-.54-.4-1.19-.4-1.95,0-.67.14-1.28.41-1.81s.65-.96,1.13-1.26c.48-.3,1.01-.46,1.6-.46.63,0,1.18.15,1.62.43.45.29.79.7,1.02,1.23s.35,1.14.35,1.84v.2h-5.25c0,.57.11,1.06.31,1.47.2.41.47.72.81.93.35.21.75.31,1.22.31.54,0,.99-.13,1.34-.38.35-.26.57-.64.64-1.14h.88c-.07.43-.22.81-.46,1.15-.24.34-.56.6-.97.8-.41.2-.9.29-1.46.29-.64,0-1.21-.14-1.69-.42ZM765.01,322.66c-.36-.42-.87-.63-1.51-.63s-1.12.22-1.53.65c-.4.43-.63.99-.69,1.66h4.28c0-.7-.2-1.26-.56-1.68Z"/>
      <path class="cls-5" d="M444.48,335.25h2.46c1.01,0,1.87.18,2.59.54.72.36,1.27.91,1.66,1.65s.58,1.65.58,2.73c0,1-.18,1.87-.53,2.6s-.87,1.3-1.55,1.69c-.68.4-1.51.6-2.49.6h-2.72v-9.8ZM449.11,343.8c.55-.3.97-.76,1.26-1.37.29-.61.43-1.37.43-2.28,0-1.32-.32-2.33-.96-3.04-.64-.71-1.59-1.07-2.85-1.07h-1.6v8.22h1.71c.78,0,1.45-.15,2-.46Z"/>
      <path class="cls-5" d="M453.41,344.29h4.03v.76h-4.03v-.76ZM453.7,338.32h1.86v.76h-1.86v-.76ZM454.95,335.57h1.08v1.48h-1.08v-1.48ZM455.1,338.32h.87v6.73h-.87v-6.73Z"/>
      <path class="cls-5" d="M460.54,344.95c-.42-.2-.74-.47-.98-.81-.24-.35-.37-.76-.38-1.23h.87c.03.5.22.9.57,1.19.35.29.82.43,1.42.43.55,0,.98-.12,1.3-.35s.48-.55.48-.95c0-.33-.11-.58-.34-.76s-.58-.31-1.06-.41l-1.01-.2c-.63-.12-1.13-.34-1.48-.64-.35-.31-.52-.7-.52-1.19,0-.36.11-.69.32-.98s.51-.52.89-.69.81-.25,1.29-.25c.77,0,1.39.18,1.84.55.45.37.71.88.78,1.53h-.88c-.05-.42-.23-.75-.55-1-.32-.25-.73-.37-1.25-.37-.48,0-.86.11-1.14.32-.29.21-.43.5-.43.84,0,.32.12.56.35.73s.57.29,1.02.38l1.06.21c.62.12,1.11.33,1.46.63s.52.7.52,1.22c0,.39-.11.75-.33,1.06-.22.32-.53.57-.93.75-.4.18-.87.27-1.41.27-.57,0-1.06-.1-1.48-.29Z"/>
      <path class="cls-5" d="M468.17,344.83c-.48-.28-.85-.69-1.12-1.23-.27-.54-.4-1.19-.4-1.95,0-.67.14-1.28.41-1.81s.65-.96,1.13-1.26c.48-.3,1.01-.46,1.6-.46.63,0,1.18.14,1.62.43.45.29.79.7,1.02,1.22s.35,1.14.35,1.84v.2h-5.25c0,.57.11,1.06.31,1.47.2.41.47.72.81.93.35.21.75.32,1.22.32.54,0,.99-.13,1.34-.38.35-.26.57-.64.64-1.14h.88c-.07.43-.22.81-.46,1.15-.24.34-.56.6-.97.8-.41.2-.9.29-1.46.29-.64,0-1.21-.14-1.69-.42ZM471.3,339.46c-.36-.42-.87-.63-1.51-.63s-1.12.22-1.53.65c-.4.43-.63.99-.69,1.66h4.28c0-.7-.2-1.26-.56-1.68Z"/>
      <path class="cls-5" d="M475.81,345c-.34-.16-.61-.4-.81-.7-.2-.3-.29-.65-.29-1.03,0-.59.2-1.05.59-1.38.4-.33.92-.55,1.58-.65l1.47-.22c.33-.05.57-.13.72-.25.15-.12.23-.3.23-.55,0-.42-.15-.76-.44-1.01s-.69-.38-1.2-.38c-.61,0-1.06.14-1.36.43-.3.29-.47.67-.5,1.13h-.88c.03-.41.15-.79.37-1.14s.53-.63.93-.83c.4-.21.86-.31,1.39-.31.55,0,1.02.1,1.4.3s.67.48.87.84.29.78.29,1.25v4.54h-.85v-1.12c-.19.39-.48.71-.89.95-.41.24-.89.36-1.45.36-.44,0-.83-.08-1.17-.24ZM478.24,344.26c.34-.19.6-.45.78-.78.19-.33.28-.69.28-1.08v-1.09c-.04.08-.13.16-.29.22-.15.06-.37.12-.64.17l-1.22.21c-.49.08-.87.24-1.14.46-.28.22-.41.53-.41.92s.14.69.41.92c.27.23.63.35,1.06.35s.83-.1,1.16-.29Z"/>
      <path class="cls-5" d="M483.79,344.95c-.42-.2-.74-.47-.98-.81-.24-.35-.37-.76-.38-1.23h.87c.03.5.22.9.57,1.19.35.29.82.43,1.42.43.55,0,.98-.12,1.3-.35s.48-.55.48-.95c0-.33-.11-.58-.34-.76s-.58-.31-1.06-.41l-1.01-.2c-.63-.12-1.13-.34-1.48-.64-.35-.31-.52-.7-.52-1.19,0-.36.11-.69.32-.98s.51-.52.89-.69.81-.25,1.29-.25c.77,0,1.39.18,1.84.55.45.37.71.88.78,1.53h-.88c-.05-.42-.23-.75-.55-1-.32-.25-.73-.37-1.25-.37-.48,0-.86.11-1.14.32-.29.21-.43.5-.43.84,0,.32.12.56.35.73s.57.29,1.02.38l1.06.21c.62.12,1.11.33,1.46.63s.52.7.52,1.22c0,.39-.11.75-.33,1.06-.22.32-.53.57-.93.75-.4.18-.87.27-1.41.27-.57,0-1.06-.1-1.48-.29Z"/>
      <path class="cls-5" d="M491.42,344.83c-.48-.28-.85-.69-1.12-1.23-.27-.54-.4-1.19-.4-1.95,0-.67.14-1.28.41-1.81s.65-.96,1.13-1.26c.48-.3,1.01-.46,1.6-.46.63,0,1.18.14,1.62.43.45.29.79.7,1.02,1.22s.35,1.14.35,1.84v.2h-5.25c0,.57.11,1.06.31,1.47.2.41.47.72.81.93.35.21.75.32,1.22.32.54,0,.99-.13,1.34-.38.35-.26.57-.64.64-1.14h.88c-.07.43-.22.81-.46,1.15-.24.34-.56.6-.97.8-.41.2-.9.29-1.46.29-.64,0-1.21-.14-1.69-.42ZM494.55,339.46c-.36-.42-.87-.63-1.51-.63s-1.12.22-1.53.65c-.4.43-.63.99-.69,1.66h4.28c0-.7-.2-1.26-.56-1.68Z"/>
      <path class="cls-5" d="M499.29,344.95c-.42-.2-.74-.47-.98-.81-.24-.35-.37-.76-.38-1.23h.87c.03.5.22.9.57,1.19.35.29.82.43,1.42.43.55,0,.98-.12,1.3-.35s.48-.55.48-.95c0-.33-.11-.58-.34-.76s-.58-.31-1.06-.41l-1.01-.2c-.63-.12-1.13-.34-1.48-.64-.35-.31-.52-.7-.52-1.19,0-.36.11-.69.32-.98s.51-.52.89-.69.81-.25,1.29-.25c.77,0,1.39.18,1.84.55.45.37.71.88.78,1.53h-.88c-.05-.42-.23-.75-.55-1-.32-.25-.73-.37-1.25-.37-.48,0-.86.11-1.14.32-.29.21-.43.5-.43.84,0,.32.12.56.35.73s.57.29,1.02.38l1.06.21c.62.12,1.11.33,1.46.63s.52.7.52,1.22c0,.39-.11.75-.33,1.06-.22.32-.53.57-.93.75-.4.18-.87.27-1.41.27-.57,0-1.06-.1-1.48-.29Z"/>
      <path class="cls-5" d="M506.72,343.55h1.3v1.5h-1.3v-1.5Z"/>
      <path class="cls-5" d="M519.69,335.25h1.08l3.68,9.8h-.99l-2.87-7.84c-.12-.36-.25-.7-.38-1.04-.12.34-.24.69-.36,1.04l-2.84,7.84h-.95l3.64-9.8ZM517.86,341.2h4.73v.78h-4.73v-.78Z"/>
      <path class="cls-5" d="M525.66,344.29h4.06v.76h-4.06v-.76ZM525.94,335.25h1.86v.76h-1.86v-.76ZM527.37,335.25h.87v9.8h-.87v-9.8Z"/>
      <path class="cls-5" d="M531.41,344.29h4.06v.76h-4.06v-.76ZM531.69,335.25h1.86v.76h-1.86v-.76ZM533.12,335.25h.87v9.8h-.87v-9.8Z"/>
      <path class="cls-5" d="M544.59,344.83c-.48-.28-.85-.69-1.12-1.23-.27-.54-.4-1.19-.4-1.95,0-.67.14-1.28.41-1.81s.65-.96,1.13-1.26c.48-.3,1.01-.46,1.6-.46.63,0,1.18.14,1.62.43.45.29.79.7,1.02,1.22s.35,1.14.35,1.84v.2h-5.25c0,.57.11,1.06.31,1.47.2.41.47.72.81.93.35.21.75.32,1.22.32.54,0,.99-.13,1.34-.38.35-.26.57-.64.64-1.14h.88c-.07.43-.22.81-.46,1.15-.24.34-.56.6-.97.8-.41.2-.9.29-1.46.29-.64,0-1.21-.14-1.69-.42ZM547.72,339.46c-.36-.42-.87-.63-1.51-.63s-1.12.22-1.53.65c-.4.43-.63.99-.69,1.66h4.28c0-.7-.2-1.26-.56-1.68Z"/>
      <path class="cls-5" d="M551.05,338.32h.85v1.19c.16-.41.39-.74.71-1,.31-.26.69-.38,1.14-.38.4,0,.76.12,1.06.38.31.25.52.62.63,1.09.19-.45.45-.81.78-1.07s.73-.4,1.2-.4c.38,0,.71.1.99.29s.5.47.66.85c.16.37.24.82.24,1.34v4.45h-.85v-4.28c0-.62-.1-1.09-.29-1.43s-.52-.5-.97-.5c-.33,0-.61.1-.85.32-.24.21-.43.49-.55.84-.13.35-.19.73-.19,1.13v3.93h-.85v-4.3c0-.62-.1-1.09-.29-1.42-.19-.33-.51-.5-.95-.5-.34,0-.64.11-.88.34-.24.23-.42.52-.55.88-.13.36-.19.74-.19,1.13v3.86h-.85v-6.73Z"/>
      <path class="cls-5" d="M561.37,338.32h.88v1.22c.22-.42.55-.76.97-1.02.42-.26.9-.39,1.42-.39.62,0,1.16.15,1.62.46s.82.73,1.07,1.26.37,1.14.37,1.82-.13,1.31-.38,1.85c-.26.54-.62.97-1.08,1.27-.47.31-1,.46-1.6.46-.5,0-.97-.12-1.4-.36-.43-.24-.76-.6-.99-1.06v4.16h-.88v-9.66ZM565.73,344.17c.35-.24.61-.57.8-1.01.19-.43.28-.94.28-1.51s-.09-1.04-.28-1.47c-.19-.43-.46-.76-.81-1-.35-.24-.75-.36-1.21-.36s-.84.12-1.19.35c-.35.23-.62.57-.81.99-.2.43-.29.92-.29,1.48s.1,1.07.29,1.51.47.77.81,1.01c.34.24.75.36,1.2.36s.86-.12,1.2-.36Z"/>
      <path class="cls-5" d="M569.41,344.29h4.06v.76h-4.06v-.76ZM569.69,335.25h1.86v.76h-1.86v-.76ZM571.12,335.25h.87v9.8h-.87v-9.8Z"/>
      <path class="cls-5" d="M576.55,344.8c-.49-.3-.87-.72-1.15-1.26s-.41-1.16-.41-1.86.14-1.3.41-1.84.66-.96,1.15-1.26c.49-.3,1.05-.46,1.67-.46s1.18.15,1.67.45.87.72,1.15,1.27c.28.55.41,1.16.41,1.84s-.14,1.32-.41,1.86-.66.96-1.15,1.26-1.05.45-1.67.45-1.18-.15-1.67-.45ZM579.47,344.17c.35-.24.62-.57.81-1.01s.29-.93.29-1.49c0-.85-.21-1.54-.64-2.06-.42-.52-.99-.78-1.7-.78-.47,0-.88.12-1.23.36-.36.24-.63.57-.81.99-.19.42-.28.92-.28,1.49s.09,1.05.28,1.48c.19.43.46.77.81,1.01.35.24.76.36,1.23.36s.89-.12,1.24-.36Z"/>
      <path class="cls-5" d="M585.6,344.87l-2.73-6.55h.97l1.78,4.44c.15.35.3.71.45,1.08.03-.09.05-.17.08-.22.02-.06.05-.13.09-.22.06-.15.1-.26.13-.33.03-.07.08-.17.14-.32l1.67-4.42h.91l-3.81,9.66h-.92l1.26-3.11Z"/>
      <path class="cls-5" d="M592.11,344.83c-.48-.28-.85-.69-1.12-1.23-.27-.54-.4-1.19-.4-1.95,0-.67.14-1.28.41-1.81s.65-.96,1.13-1.26c.48-.3,1.01-.46,1.6-.46.63,0,1.18.14,1.62.43.45.29.79.7,1.02,1.22s.35,1.14.35,1.84v.2h-5.25c0,.57.11,1.06.31,1.47.2.41.47.72.81.93.35.21.75.32,1.22.32.54,0,.99-.13,1.34-.38.35-.26.57-.64.64-1.14h.88c-.07.43-.22.81-.46,1.15-.24.34-.56.6-.97.8-.41.2-.9.29-1.46.29-.64,0-1.21-.14-1.69-.42ZM595.24,339.46c-.36-.42-.87-.63-1.51-.63s-1.12.22-1.53.65c-.4.43-.63.99-.69,1.66h4.28c0-.7-.2-1.26-.56-1.68Z"/>
      <path class="cls-5" d="M600.05,344.83c-.48-.28-.85-.69-1.12-1.23-.27-.54-.4-1.19-.4-1.95,0-.67.14-1.28.41-1.81s.65-.96,1.13-1.26c.48-.3,1.01-.46,1.6-.46.63,0,1.18.14,1.62.43.45.29.79.7,1.02,1.22s.35,1.14.35,1.84v.2h-5.25c0,.57.11,1.06.31,1.47.2.41.47.72.81.93.35.21.75.32,1.22.32.54,0,.99-.13,1.34-.38.35-.26.57-.64.64-1.14h.88c-.07.43-.22.81-.46,1.15-.24.34-.56.6-.97.8-.41.2-.9.29-1.46.29-.64,0-1.21-.14-1.69-.42ZM603.17,339.46c-.36-.42-.87-.63-1.51-.63s-1.12.22-1.53.65c-.4.43-.63.99-.69,1.66h4.28c0-.7-.2-1.26-.56-1.68Z"/>
      <path class="cls-5" d="M607.91,344.95c-.42-.2-.74-.47-.98-.81-.24-.35-.37-.76-.38-1.23h.87c.03.5.22.9.57,1.19.35.29.82.43,1.42.43.55,0,.98-.12,1.3-.35s.48-.55.48-.95c0-.33-.11-.58-.34-.76s-.58-.31-1.06-.41l-1.01-.2c-.63-.12-1.13-.34-1.48-.64-.35-.31-.52-.7-.52-1.19,0-.36.11-.69.32-.98s.51-.52.89-.69.81-.25,1.29-.25c.77,0,1.39.18,1.84.55.45.37.71.88.78,1.53h-.88c-.05-.42-.23-.75-.55-1-.32-.25-.73-.37-1.25-.37-.48,0-.86.11-1.14.32-.29.21-.43.5-.43.84,0,.32.12.56.35.73s.57.29,1.02.38l1.06.21c.62.12,1.11.33,1.46.63s.52.7.52,1.22c0,.39-.11.75-.33,1.06-.22.32-.53.57-.93.75-.4.18-.87.27-1.41.27-.57,0-1.06-.1-1.48-.29Z"/>
      <path class="cls-5" d="M621.21,345c-.34-.16-.61-.4-.81-.7-.2-.3-.29-.65-.29-1.03,0-.59.2-1.05.59-1.38.4-.33.92-.55,1.58-.65l1.47-.22c.33-.05.57-.13.72-.25.15-.12.23-.3.23-.55,0-.42-.15-.76-.44-1.01s-.69-.38-1.2-.38c-.61,0-1.06.14-1.36.43-.3.29-.47.67-.5,1.13h-.88c.03-.41.15-.79.37-1.14s.53-.63.93-.83c.4-.21.86-.31,1.39-.31.55,0,1.02.1,1.4.3s.67.48.87.84.29.78.29,1.25v4.54h-.85v-1.12c-.19.39-.48.71-.89.95-.41.24-.89.36-1.45.36-.44,0-.83-.08-1.17-.24ZM623.64,344.26c.34-.19.6-.45.78-.78.19-.33.28-.69.28-1.08v-1.09c-.04.08-.13.16-.29.22-.15.06-.37.12-.64.17l-1.22.21c-.49.08-.87.24-1.14.46-.28.22-.41.53-.41.92s.14.69.41.92c.27.23.63.35,1.06.35s.83-.1,1.16-.29Z"/>
      <path class="cls-5" d="M628.51,338.32h.88v1.47c.21-.49.53-.88.98-1.19.45-.31,1.01-.46,1.69-.46.21,0,.4.01.57.04v.84c-.3-.03-.51-.04-.63-.04-.55,0-1.02.11-1.41.32-.39.21-.69.52-.9.91-.21.39-.31.84-.31,1.34v3.5h-.88v-6.73Z"/>
      <path class="cls-5" d="M635.74,344.83c-.48-.28-.85-.69-1.12-1.23-.27-.54-.4-1.19-.4-1.95,0-.67.14-1.28.41-1.81s.65-.96,1.13-1.26c.48-.3,1.01-.46,1.6-.46.63,0,1.18.14,1.62.43.45.29.79.7,1.02,1.22s.35,1.14.35,1.84v.2h-5.25c0,.57.11,1.06.31,1.47.2.41.47.72.81.93.35.21.75.32,1.22.32.54,0,.99-.13,1.34-.38.35-.26.57-.64.64-1.14h.88c-.07.43-.22.81-.46,1.15-.24.34-.56.6-.97.8-.41.2-.9.29-1.46.29-.64,0-1.21-.14-1.69-.42ZM638.87,339.46c-.36-.42-.87-.63-1.51-.63s-1.12.22-1.53.65c-.4.43-.63.99-.69,1.66h4.28c0-.7-.2-1.26-.56-1.68Z"/>
      <path class="cls-5" d="M649.5,344.94c-.36-.21-.63-.51-.83-.91-.19-.4-.29-.89-.29-1.47v-4.24h.88v4.09c0,.69.13,1.22.4,1.58.27.36.71.55,1.32.55.42,0,.79-.12,1.1-.34.31-.23.55-.54.71-.94.16-.4.24-.84.24-1.32v-3.61h.87v6.73h-.87v-1.23c-.19.42-.47.76-.86,1.03-.39.27-.85.4-1.38.4s-.95-.1-1.31-.31Z"/>
      <path class="cls-5" d="M656.9,338.32h.88v1.47c.21-.49.53-.88.98-1.19.45-.31,1.01-.46,1.69-.46.21,0,.4.01.57.04v.84c-.3-.03-.51-.04-.63-.04-.55,0-1.02.11-1.41.32-.39.21-.69.52-.9.91-.21.39-.31.84-.31,1.34v3.5h-.88v-6.73Z"/>
      <path class="cls-5" d="M664.23,347.88c-.43-.2-.76-.48-1.01-.85-.24-.37-.37-.79-.38-1.28h.87c.02.51.21.93.57,1.25.36.32.84.48,1.43.48.71,0,1.26-.19,1.65-.58.39-.39.59-.96.59-1.71v-1.55c-.19.42-.49.76-.92,1.03-.42.27-.92.4-1.49.4s-1.1-.14-1.56-.43-.82-.7-1.08-1.23c-.26-.53-.39-1.13-.39-1.81s.14-1.28.41-1.8c.27-.52.64-.93,1.11-1.22s.98-.43,1.55-.43c.6,0,1.09.14,1.48.41.39.28.68.61.89.99v-1.21h.87v6.61c0,1.06-.27,1.87-.81,2.42-.54.55-1.3.83-2.3.83-.56,0-1.05-.1-1.48-.29ZM666.91,343.99c.35-.23.62-.56.8-.98s.28-.9.28-1.44c0-.79-.21-1.45-.62-1.96-.42-.51-.97-.77-1.66-.77-.45,0-.84.11-1.19.34-.35.23-.61.55-.81.97s-.29.89-.29,1.43.1,1.02.29,1.44c.19.42.46.74.81.97.34.23.74.35,1.18.35s.86-.12,1.21-.35Z"/>
      <path class="cls-5" d="M672.4,344.83c-.48-.28-.85-.69-1.12-1.23-.27-.54-.4-1.19-.4-1.95,0-.67.14-1.28.41-1.81s.65-.96,1.13-1.26c.48-.3,1.01-.46,1.6-.46.63,0,1.18.14,1.62.43.45.29.79.7,1.02,1.22s.35,1.14.35,1.84v.2h-5.25c0,.57.11,1.06.31,1.47.2.41.47.72.81.93.35.21.75.32,1.22.32.54,0,.99-.13,1.34-.38.35-.26.57-.64.64-1.14h.88c-.07.43-.22.81-.46,1.15-.24.34-.56.6-.97.8-.41.2-.9.29-1.46.29-.64,0-1.21-.14-1.69-.42ZM675.52,339.46c-.36-.42-.87-.63-1.51-.63s-1.12.22-1.53.65c-.4.43-.63.99-.69,1.66h4.28c0-.7-.2-1.26-.56-1.68Z"/>
      <path class="cls-5" d="M680.11,344.8c-.46-.29-.83-.71-1.09-1.25s-.4-1.17-.4-1.88.13-1.29.39-1.83c.26-.54.62-.96,1.09-1.27.47-.31,1.01-.46,1.62-.46.55,0,1.03.13,1.43.39.41.26.71.6.9,1.01v-4.27h.88v9.8h-.88v-1.23c-.22.46-.55.81-.97,1.06s-.89.37-1.4.37c-.59,0-1.11-.15-1.58-.44ZM683.01,344.17c.35-.24.62-.57.81-1s.29-.93.29-1.51c0-.86-.21-1.54-.62-2.06-.42-.51-.97-.77-1.66-.77-.46,0-.86.12-1.2.36-.35.24-.61.57-.81,1-.19.43-.29.92-.29,1.48s.1,1.07.29,1.5.46.76.8,1,.74.36,1.2.36.85-.12,1.2-.36Z"/>
      <path class="cls-5" d="M694.98,344.64c-.41-.36-.62-.93-.62-1.7v-3.87h-1.99v-.76h1.99v-2.14h.88v2.14h2.27v.76h-2.27v3.79c0,.55.14.94.41,1.18s.68.35,1.21.35c.25,0,.52-.03.81-.1v.77c-.31.07-.63.11-.98.11-.74,0-1.31-.18-1.72-.54Z"/>
      <path class="cls-5" d="M700.72,344.8c-.49-.3-.87-.72-1.15-1.26s-.41-1.16-.41-1.86.14-1.3.41-1.84.66-.96,1.15-1.26c.49-.3,1.05-.46,1.67-.46s1.18.15,1.67.45.87.72,1.15,1.27c.28.55.41,1.16.41,1.84s-.14,1.32-.41,1.86-.66.96-1.15,1.26-1.05.45-1.67.45-1.18-.15-1.67-.45ZM703.63,344.17c.35-.24.62-.57.81-1.01s.29-.93.29-1.49c0-.85-.21-1.54-.64-2.06-.42-.52-.99-.78-1.7-.78-.47,0-.88.12-1.23.36-.36.24-.63.57-.81.99-.19.42-.28.92-.28,1.49s.09,1.05.28,1.48c.19.43.46.77.81,1.01.35.24.76.36,1.23.36s.89-.12,1.24-.36Z"/>
      <path class="cls-5" d="M713.6,338.32h.88v1.22c.22-.42.55-.76.97-1.02.42-.26.9-.39,1.42-.39.62,0,1.16.15,1.62.46s.82.73,1.07,1.26.37,1.14.37,1.82-.13,1.31-.38,1.85c-.26.54-.62.97-1.08,1.27-.47.31-1,.46-1.6.46-.5,0-.97-.12-1.4-.36-.43-.24-.76-.6-.99-1.06v4.16h-.88v-9.66ZM717.96,344.17c.35-.24.61-.57.8-1.01.19-.43.28-.94.28-1.51s-.09-1.04-.28-1.47c-.19-.43-.46-.76-.81-1-.35-.24-.75-.36-1.21-.36s-.84.12-1.19.35c-.35.23-.62.57-.81.99-.2.43-.29.92-.29,1.48s.1,1.07.29,1.51.47.77.81,1.01c.34.24.75.36,1.2.36s.86-.12,1.2-.36Z"/>
      <path class="cls-5" d="M722.35,338.32h.88v1.47c.21-.49.53-.88.98-1.19.45-.31,1.01-.46,1.69-.46.21,0,.4.01.57.04v.84c-.3-.03-.51-.04-.63-.04-.55,0-1.02.11-1.41.32-.39.21-.69.52-.9.91-.21.39-.31.84-.31,1.34v3.5h-.88v-6.73Z"/>
      <path class="cls-5" d="M729.51,344.8c-.49-.3-.87-.72-1.15-1.26s-.41-1.16-.41-1.86.14-1.3.41-1.84.66-.96,1.15-1.26c.49-.3,1.05-.46,1.67-.46s1.18.15,1.67.45.87.72,1.15,1.27c.28.55.41,1.16.41,1.84s-.14,1.32-.41,1.86-.66.96-1.15,1.26-1.05.45-1.67.45-1.18-.15-1.67-.45ZM732.42,344.17c.35-.24.62-.57.81-1.01s.29-.93.29-1.49c0-.85-.21-1.54-.64-2.06-.42-.52-.99-.78-1.7-.78-.47,0-.88.12-1.23.36-.36.24-.63.57-.81.99-.19.42-.28.92-.28,1.49s.09,1.05.28,1.48c.19.43.46.77.81,1.01.35.24.76.36,1.23.36s.89-.12,1.24-.36Z"/>
      <path class="cls-5" d="M736.2,338.32h.85v1.19c.16-.41.39-.74.71-1,.31-.26.69-.38,1.14-.38.4,0,.76.12,1.06.38.31.25.52.62.63,1.09.19-.45.45-.81.78-1.07s.73-.4,1.2-.4c.38,0,.71.1.99.29s.5.47.66.85c.16.37.24.82.24,1.34v4.45h-.85v-4.28c0-.62-.1-1.09-.29-1.43s-.52-.5-.97-.5c-.33,0-.61.1-.85.32-.24.21-.43.49-.55.84-.13.35-.19.73-.19,1.13v3.93h-.85v-4.3c0-.62-.1-1.09-.29-1.42-.19-.33-.51-.5-.95-.5-.34,0-.64.11-.88.34-.24.23-.42.52-.55.88-.13.36-.19.74-.19,1.13v3.86h-.85v-6.73Z"/>
      <path class="cls-5" d="M746.52,338.32h.88v1.22c.22-.42.55-.76.97-1.02.42-.26.9-.39,1.42-.39.62,0,1.16.15,1.62.46s.82.73,1.07,1.26.37,1.14.37,1.82-.13,1.31-.38,1.85c-.26.54-.62.97-1.08,1.27-.47.31-1,.46-1.6.46-.5,0-.97-.12-1.4-.36-.43-.24-.76-.6-.99-1.06v4.16h-.88v-9.66ZM750.87,344.17c.35-.24.61-.57.8-1.01.19-.43.28-.94.28-1.51s-.09-1.04-.28-1.47c-.19-.43-.46-.76-.81-1-.35-.24-.75-.36-1.21-.36s-.84.12-1.19.35c-.35.23-.62.57-.81.99-.2.43-.29.92-.29,1.48s.1,1.07.29,1.51.47.77.81,1.01c.34.24.75.36,1.2.36s.86-.12,1.2-.36Z"/>
      <path class="cls-5" d="M756.53,344.64c-.41-.36-.62-.93-.62-1.7v-3.87h-1.99v-.76h1.99v-2.14h.88v2.14h2.27v.76h-2.27v3.79c0,.55.14.94.41,1.18s.68.35,1.21.35c.25,0,.52-.03.81-.1v.77c-.31.07-.63.11-.98.11-.74,0-1.31-.18-1.72-.54Z"/>
      <path class="cls-5" d="M761.58,340.89h3.6v.76h-3.6v-.76Z"/>
      <path class="cls-5" d="M444.13,361.09h4.06v.76h-4.06v-.76ZM444.4,352.05h1.86v.76h-1.86v-.76ZM445.83,352.05h.87v9.8h-.87v-9.8Z"/>
      <path class="cls-5" d="M452.31,361.67l-2.73-6.55h.97l1.78,4.44c.15.36.3.71.45,1.08.03-.09.05-.17.08-.22s.05-.13.09-.22c.06-.15.1-.26.13-.33.03-.07.08-.17.14-.31l1.67-4.42h.91l-3.81,9.66h-.92l1.26-3.11Z"/>
      <path class="cls-5" d="M464.68,361.75c-.42-.2-.74-.47-.98-.81-.24-.35-.37-.76-.38-1.23h.87c.03.5.22.9.57,1.19.35.29.82.43,1.42.43.55,0,.98-.12,1.3-.35.32-.23.48-.55.48-.95,0-.33-.11-.58-.34-.76s-.58-.31-1.06-.41l-1.01-.2c-.63-.12-1.13-.34-1.48-.64-.35-.31-.52-.71-.52-1.19,0-.36.11-.69.32-.98s.51-.52.89-.69c.38-.17.81-.25,1.29-.25.77,0,1.39.18,1.84.55.45.37.71.88.78,1.53h-.88c-.05-.42-.23-.75-.55-1-.32-.25-.73-.37-1.25-.37-.48,0-.86.11-1.14.32-.29.21-.43.49-.43.84,0,.32.12.56.35.73s.57.29,1.02.38l1.06.21c.62.12,1.11.33,1.46.63s.52.7.52,1.22c0,.39-.11.75-.33,1.06-.22.32-.53.57-.93.75-.4.18-.87.27-1.41.27-.57,0-1.06-.1-1.48-.29Z"/>
      <path class="cls-5" d="M471.23,352.05h.87v4.27c.21-.4.51-.74.92-1,.41-.27.88-.4,1.42-.4.5,0,.94.1,1.31.32.37.21.65.52.85.93.2.41.3.91.3,1.48v4.2h-.88v-4.1c0-.68-.14-1.2-.41-1.57-.27-.37-.71-.55-1.33-.55-.43,0-.81.11-1.14.32-.33.21-.59.5-.77.85-.18.36-.27.73-.27,1.13v3.91h-.87v-9.8Z"/>
      <path class="cls-5" d="M480.08,361.8c-.34-.16-.61-.4-.81-.7-.2-.3-.29-.65-.29-1.03,0-.59.2-1.05.59-1.38.4-.33.92-.55,1.58-.65l1.47-.22c.33-.05.57-.13.72-.24s.23-.3.23-.55c0-.42-.15-.76-.44-1.01s-.69-.38-1.2-.38c-.61,0-1.06.14-1.36.43-.3.29-.47.67-.5,1.13h-.88c.03-.41.15-.79.37-1.14.22-.35.53-.63.93-.83.4-.21.86-.31,1.39-.31.55,0,1.02.1,1.4.3.38.2.67.48.87.84s.29.78.29,1.25v4.54h-.85v-1.12c-.19.39-.48.71-.89.95-.41.24-.89.36-1.45.36-.44,0-.83-.08-1.17-.24ZM482.51,361.06c.34-.19.6-.45.78-.79.19-.33.28-.69.28-1.08v-1.09c-.04.08-.13.16-.29.22-.15.07-.37.12-.64.17l-1.22.21c-.49.08-.87.24-1.14.46-.28.22-.41.53-.41.92s.14.69.41.92c.27.23.63.35,1.06.35s.83-.1,1.16-.29Z"/>
      <path class="cls-5" d="M487.38,355.12h.88v1.47c.21-.49.53-.88.98-1.19.45-.31,1.01-.46,1.69-.46.21,0,.4.01.57.04v.84c-.3-.03-.51-.04-.63-.04-.55,0-1.02.11-1.41.32-.39.21-.69.52-.9.91s-.31.84-.31,1.34v3.5h-.88v-6.73Z"/>
      <path class="cls-5" d="M494.61,361.63c-.48-.28-.85-.69-1.12-1.23-.27-.54-.4-1.19-.4-1.95,0-.67.14-1.28.41-1.81.28-.54.65-.96,1.13-1.26.48-.3,1.01-.46,1.6-.46.63,0,1.18.15,1.62.43.45.29.79.7,1.02,1.22s.35,1.14.35,1.84v.2h-5.25c0,.57.11,1.06.31,1.47.2.41.47.72.81.93.35.21.75.32,1.22.32.54,0,.99-.13,1.34-.38.35-.26.57-.64.64-1.14h.88c-.07.43-.22.81-.46,1.15-.24.34-.56.6-.97.8s-.9.29-1.46.29c-.64,0-1.21-.14-1.69-.42ZM497.74,356.26c-.36-.42-.87-.63-1.51-.63s-1.12.22-1.53.65-.63.99-.69,1.66h4.28c0-.7-.2-1.26-.56-1.68Z"/>
      <path class="cls-5" d="M508.96,361.44c-.41-.36-.62-.93-.62-1.7v-3.86h-1.99v-.76h1.99v-2.14h.88v2.14h2.27v.76h-2.27v3.79c0,.55.14.94.41,1.18.28.23.68.35,1.21.35.25,0,.52-.03.81-.1v.77c-.31.07-.63.11-.98.11-.74,0-1.31-.18-1.72-.54Z"/>
      <path class="cls-5" d="M513.72,352.05h.87v4.27c.21-.4.51-.74.92-1,.41-.27.88-.4,1.42-.4.5,0,.94.1,1.31.32.37.21.65.52.85.93.2.41.3.91.3,1.48v4.2h-.88v-4.1c0-.68-.14-1.2-.41-1.57-.27-.37-.71-.55-1.33-.55-.43,0-.81.11-1.14.32-.33.21-.59.5-.77.85-.18.36-.27.73-.27,1.13v3.91h-.87v-9.8Z"/>
      <path class="cls-5" d="M521.42,361.09h4.03v.76h-4.03v-.76ZM521.71,355.12h1.86v.76h-1.86v-.76ZM522.96,352.37h1.08v1.48h-1.08v-1.48ZM523.11,355.12h.87v6.73h-.87v-6.73Z"/>
      <path class="cls-5" d="M528.55,361.75c-.42-.2-.74-.47-.98-.81-.24-.35-.37-.76-.38-1.23h.87c.03.5.22.9.57,1.19.35.29.82.43,1.42.43.55,0,.98-.12,1.3-.35.32-.23.48-.55.48-.95,0-.33-.11-.58-.34-.76s-.58-.31-1.06-.41l-1.01-.2c-.63-.12-1.13-.34-1.48-.64-.35-.31-.52-.71-.52-1.19,0-.36.11-.69.32-.98s.51-.52.89-.69c.38-.17.81-.25,1.29-.25.77,0,1.39.18,1.84.55.45.37.71.88.78,1.53h-.88c-.05-.42-.23-.75-.55-1-.32-.25-.73-.37-1.25-.37-.48,0-.86.11-1.14.32-.29.21-.43.49-.43.84,0,.32.12.56.35.73s.57.29,1.02.38l1.06.21c.62.12,1.11.33,1.46.63s.52.7.52,1.22c0,.39-.11.75-.33,1.06-.22.32-.53.57-.93.75-.4.18-.87.27-1.41.27-.57,0-1.06-.1-1.48-.29Z"/>
      <path class="cls-5" d="M541.85,361.8c-.34-.16-.61-.4-.81-.7-.2-.3-.29-.65-.29-1.03,0-.59.2-1.05.59-1.38.4-.33.92-.55,1.58-.65l1.47-.22c.33-.05.57-.13.72-.24s.23-.3.23-.55c0-.42-.15-.76-.44-1.01s-.69-.38-1.2-.38c-.61,0-1.06.14-1.36.43-.3.29-.47.67-.5,1.13h-.88c.03-.41.15-.79.37-1.14.22-.35.53-.63.93-.83.4-.21.86-.31,1.39-.31.55,0,1.02.1,1.4.3.38.2.67.48.87.84s.29.78.29,1.25v4.54h-.85v-1.12c-.19.39-.48.71-.89.95-.41.24-.89.36-1.45.36-.44,0-.83-.08-1.17-.24ZM544.28,361.06c.34-.19.6-.45.78-.79.19-.33.28-.69.28-1.08v-1.09c-.04.08-.13.16-.29.22-.15.07-.37.12-.64.17l-1.22.21c-.49.08-.87.24-1.14.46-.28.22-.41.53-.41.92s.14.69.41.92c.27.23.63.35,1.06.35s.83-.1,1.16-.29Z"/>
      <path class="cls-5" d="M549.83,361.75c-.42-.2-.74-.47-.98-.81-.24-.35-.37-.76-.38-1.23h.87c.03.5.22.9.57,1.19.35.29.82.43,1.42.43.55,0,.98-.12,1.3-.35.32-.23.48-.55.48-.95,0-.33-.11-.58-.34-.76s-.58-.31-1.06-.41l-1.01-.2c-.63-.12-1.13-.34-1.48-.64-.35-.31-.52-.71-.52-1.19,0-.36.11-.69.32-.98s.51-.52.89-.69c.38-.17.81-.25,1.29-.25.77,0,1.39.18,1.84.55.45.37.71.88.78,1.53h-.88c-.05-.42-.23-.75-.55-1-.32-.25-.73-.37-1.25-.37-.48,0-.86.11-1.14.32-.29.21-.43.49-.43.84,0,.32.12.56.35.73s.57.29,1.02.38l1.06.21c.62.12,1.11.33,1.46.63s.52.7.52,1.22c0,.39-.11.75-.33,1.06-.22.32-.53.57-.93.75-.4.18-.87.27-1.41.27-.57,0-1.06-.1-1.48-.29Z"/>
      <path class="cls-5" d="M563.35,361.75c-.42-.2-.74-.47-.98-.81-.24-.35-.37-.76-.38-1.23h.87c.03.5.22.9.57,1.19.35.29.82.43,1.42.43.55,0,.98-.12,1.3-.35.32-.23.48-.55.48-.95,0-.33-.11-.58-.34-.76s-.58-.31-1.06-.41l-1.01-.2c-.63-.12-1.13-.34-1.48-.64-.35-.31-.52-.71-.52-1.19,0-.36.11-.69.32-.98s.51-.52.89-.69c.38-.17.81-.25,1.29-.25.77,0,1.39.18,1.84.55.45.37.71.88.78,1.53h-.88c-.05-.42-.23-.75-.55-1-.32-.25-.73-.37-1.25-.37-.48,0-.86.11-1.14.32-.29.21-.43.49-.43.84,0,.32.12.56.35.73s.57.29,1.02.38l1.06.21c.62.12,1.11.33,1.46.63s.52.7.52,1.22c0,.39-.11.75-.33,1.06-.22.32-.53.57-.93.75-.4.18-.87.27-1.41.27-.57,0-1.06-.1-1.48-.29Z"/>
      <path class="cls-5" d="M570.91,361.6c-.49-.3-.87-.72-1.15-1.26-.28-.54-.41-1.16-.41-1.86s.14-1.3.41-1.84c.28-.54.66-.96,1.15-1.26s1.05-.46,1.67-.46,1.18.15,1.67.45.87.72,1.15,1.27c.28.54.41,1.16.41,1.84s-.14,1.32-.41,1.86c-.28.54-.66.96-1.15,1.26-.49.3-1.05.45-1.67.45s-1.18-.15-1.67-.45ZM573.82,360.98c.35-.24.62-.57.81-1.01.19-.43.29-.93.29-1.49,0-.85-.21-1.54-.64-2.06s-.99-.78-1.7-.78c-.47,0-.88.12-1.23.36-.36.24-.63.57-.81.99-.19.42-.28.92-.28,1.49s.09,1.05.28,1.48.46.77.81,1.01c.35.24.76.36,1.23.36s.89-.12,1.24-.36Z"/>
      <path class="cls-5" d="M579,361.6c-.49-.3-.87-.72-1.15-1.26-.28-.54-.41-1.16-.41-1.86s.14-1.3.41-1.84c.28-.54.66-.96,1.15-1.26s1.05-.46,1.67-.46,1.18.15,1.67.45.87.72,1.15,1.27c.28.54.41,1.16.41,1.84s-.14,1.32-.41,1.86c-.28.54-.66.96-1.15,1.26-.49.3-1.05.45-1.67.45s-1.18-.15-1.67-.45ZM581.91,360.98c.35-.24.62-.57.81-1.01.19-.43.29-.93.29-1.49,0-.85-.21-1.54-.64-2.06s-.99-.78-1.7-.78c-.47,0-.88.12-1.23.36-.36.24-.63.57-.81.99-.19.42-.28.92-.28,1.49s.09,1.05.28,1.48.46.77.81,1.01c.35.24.76.36,1.23.36s.89-.12,1.24-.36Z"/>
      <path class="cls-5" d="M585.98,355.12h.88v1.2c.21-.39.51-.72.91-.99s.87-.41,1.41-.41c.5,0,.94.1,1.31.32.37.21.66.52.86.92s.31.9.31,1.49v4.2h-.88v-4.1c0-.68-.13-1.2-.41-1.57-.27-.37-.71-.55-1.33-.55-.43,0-.81.11-1.14.32-.33.21-.59.5-.77.85-.18.36-.27.73-.27,1.13v3.91h-.88v-6.73Z"/>
      <path class="cls-5" d="M600.9,361.8c-.34-.16-.61-.4-.81-.7-.2-.3-.29-.65-.29-1.03,0-.59.2-1.05.59-1.38.4-.33.92-.55,1.58-.65l1.47-.22c.33-.05.57-.13.72-.24s.23-.3.23-.55c0-.42-.15-.76-.44-1.01s-.69-.38-1.2-.38c-.61,0-1.06.14-1.36.43-.3.29-.47.67-.5,1.13h-.88c.03-.41.15-.79.37-1.14.22-.35.53-.63.93-.83.4-.21.86-.31,1.39-.31.55,0,1.02.1,1.4.3.38.2.67.48.87.84s.29.78.29,1.25v4.54h-.85v-1.12c-.19.39-.48.71-.89.95-.41.24-.89.36-1.45.36-.44,0-.83-.08-1.17-.24ZM603.33,361.06c.34-.19.6-.45.78-.79.19-.33.28-.69.28-1.08v-1.09c-.04.08-.13.16-.29.22-.15.07-.37.12-.64.17l-1.22.21c-.49.08-.87.24-1.14.46-.28.22-.41.53-.41.92s.14.69.41.92c.27.23.63.35,1.06.35s.83-.1,1.16-.29Z"/>
      <path class="cls-5" d="M608.88,361.75c-.42-.2-.74-.47-.98-.81-.24-.35-.37-.76-.38-1.23h.87c.03.5.22.9.57,1.19.35.29.82.43,1.42.43.55,0,.98-.12,1.3-.35.32-.23.48-.55.48-.95,0-.33-.11-.58-.34-.76s-.58-.31-1.06-.41l-1.01-.2c-.63-.12-1.13-.34-1.48-.64-.35-.31-.52-.71-.52-1.19,0-.36.11-.69.32-.98s.51-.52.89-.69c.38-.17.81-.25,1.29-.25.77,0,1.39.18,1.84.55.45.37.71.88.78,1.53h-.88c-.05-.42-.23-.75-.55-1-.32-.25-.73-.37-1.25-.37-.48,0-.86.11-1.14.32-.29.21-.43.49-.43.84,0,.32.12.56.35.73s.57.29,1.02.38l1.06.21c.62.12,1.11.33,1.46.63s.52.7.52,1.22c0,.39-.11.75-.33,1.06-.22.32-.53.57-.93.75-.4.18-.87.27-1.41.27-.57,0-1.06-.1-1.48-.29Z"/>
      <path class="cls-5" d="M622.91,361.44c-.41-.36-.62-.93-.62-1.7v-3.86h-1.99v-.76h1.99v-2.14h.88v2.14h2.27v.76h-2.27v3.79c0,.55.14.94.41,1.18.28.23.68.35,1.21.35.25,0,.52-.03.81-.1v.77c-.31.07-.63.11-.98.11-.74,0-1.31-.18-1.72-.54Z"/>
      <path class="cls-5" d="M627.67,352.05h.87v4.27c.21-.4.51-.74.92-1,.41-.27.88-.4,1.42-.4.5,0,.94.1,1.31.32.37.21.65.52.85.93.2.41.3.91.3,1.48v4.2h-.88v-4.1c0-.68-.14-1.2-.41-1.57-.27-.37-.71-.55-1.33-.55-.43,0-.81.11-1.14.32-.33.21-.59.5-.77.85-.18.36-.27.73-.27,1.13v3.91h-.87v-9.8Z"/>
      <path class="cls-5" d="M636.82,361.63c-.48-.28-.85-.69-1.12-1.23-.27-.54-.4-1.19-.4-1.95,0-.67.14-1.28.41-1.81.28-.54.65-.96,1.13-1.26.48-.3,1.01-.46,1.6-.46.63,0,1.18.15,1.62.43.45.29.79.7,1.02,1.22s.35,1.14.35,1.84v.2h-5.25c0,.57.11,1.06.31,1.47.2.41.47.72.81.93.35.21.75.32,1.22.32.54,0,.99-.13,1.34-.38.35-.26.57-.64.64-1.14h.88c-.07.43-.22.81-.46,1.15-.24.34-.56.6-.97.8s-.9.29-1.46.29c-.64,0-1.21-.14-1.69-.42ZM639.95,356.26c-.36-.42-.87-.63-1.51-.63s-1.12.22-1.53.65-.63.99-.69,1.66h4.28c0-.7-.2-1.26-.56-1.68Z"/>
      <path class="cls-5" d="M645.66,361.67l-2.73-6.55h.97l1.78,4.44c.15.36.3.71.45,1.08.03-.09.05-.17.08-.22s.05-.13.09-.22c.06-.15.1-.26.13-.33.03-.07.08-.17.14-.31l1.67-4.42h.91l-3.81,9.66h-.92l1.26-3.11Z"/>
      <path class="cls-5" d="M658.03,361.75c-.42-.2-.74-.47-.98-.81-.24-.35-.37-.76-.38-1.23h.87c.03.5.22.9.57,1.19.35.29.82.43,1.42.43.55,0,.98-.12,1.3-.35.32-.23.48-.55.48-.95,0-.33-.11-.58-.34-.76s-.58-.31-1.06-.41l-1.01-.2c-.63-.12-1.13-.34-1.48-.64-.35-.31-.52-.71-.52-1.19,0-.36.11-.69.32-.98s.51-.52.89-.69c.38-.17.81-.25,1.29-.25.77,0,1.39.18,1.84.55.45.37.71.88.78,1.53h-.88c-.05-.42-.23-.75-.55-1-.32-.25-.73-.37-1.25-.37-.48,0-.86.11-1.14.32-.29.21-.43.49-.43.84,0,.32.12.56.35.73s.57.29,1.02.38l1.06.21c.62.12,1.11.33,1.46.63s.52.7.52,1.22c0,.39-.11.75-.33,1.06-.22.32-.53.57-.93.75-.4.18-.87.27-1.41.27-.57,0-1.06-.1-1.48-.29Z"/>
      <path class="cls-5" d="M665.66,361.63c-.48-.28-.85-.69-1.12-1.23-.27-.54-.4-1.19-.4-1.95,0-.67.14-1.28.41-1.81.28-.54.65-.96,1.13-1.26.48-.3,1.01-.46,1.6-.46.63,0,1.18.15,1.62.43.45.29.79.7,1.02,1.22s.35,1.14.35,1.84v.2h-5.25c0,.57.11,1.06.31,1.47.2.41.47.72.81.93.35.21.75.32,1.22.32.54,0,.99-.13,1.34-.38.35-.26.57-.64.64-1.14h.88c-.07.43-.22.81-.46,1.15-.24.34-.56.6-.97.8s-.9.29-1.46.29c-.64,0-1.21-.14-1.69-.42ZM668.79,356.26c-.36-.42-.87-.63-1.51-.63s-1.12.22-1.53.65-.63.99-.69,1.66h4.28c0-.7-.2-1.26-.56-1.68Z"/>
      <path class="cls-5" d="M673.6,361.63c-.48-.28-.85-.69-1.12-1.23-.27-.54-.4-1.19-.4-1.95,0-.67.14-1.28.41-1.81.28-.54.65-.96,1.13-1.26.48-.3,1.01-.46,1.6-.46.63,0,1.18.15,1.62.43.45.29.79.7,1.02,1.22s.35,1.14.35,1.84v.2h-5.25c0,.57.11,1.06.31,1.47.2.41.47.72.81.93.35.21.75.32,1.22.32.54,0,.99-.13,1.34-.38.35-.26.57-.64.64-1.14h.88c-.07.43-.22.81-.46,1.15-.24.34-.56.6-.97.8s-.9.29-1.46.29c-.64,0-1.21-.14-1.69-.42ZM676.73,356.26c-.36-.42-.87-.63-1.51-.63s-1.12.22-1.53.65-.63.99-.69,1.66h4.28c0-.7-.2-1.26-.56-1.68Z"/>
      <path class="cls-5" d="M687.94,361.44c-.41-.36-.62-.93-.62-1.7v-3.86h-1.99v-.76h1.99v-2.14h.88v2.14h2.27v.76h-2.27v3.79c0,.55.14.94.41,1.18.28.23.68.35,1.21.35.25,0,.52-.03.81-.1v.77c-.31.07-.63.11-.98.11-.74,0-1.31-.18-1.72-.54Z"/>
      <path class="cls-5" d="M692.7,352.05h.87v4.27c.21-.4.51-.74.92-1,.41-.27.88-.4,1.42-.4.5,0,.94.1,1.31.32.37.21.65.52.85.93.2.41.3.91.3,1.48v4.2h-.88v-4.1c0-.68-.14-1.2-.41-1.57-.27-.37-.71-.55-1.33-.55-.43,0-.81.11-1.14.32-.33.21-.59.5-.77.85-.18.36-.27.73-.27,1.13v3.91h-.87v-9.8Z"/>
      <path class="cls-5" d="M700.4,361.09h4.03v.76h-4.03v-.76ZM700.69,355.12h1.86v.76h-1.86v-.76ZM701.94,352.37h1.08v1.48h-1.08v-1.48ZM702.09,355.12h.87v6.73h-.87v-6.73Z"/>
      <path class="cls-5" d="M707.53,361.75c-.42-.2-.74-.47-.98-.81-.24-.35-.37-.76-.38-1.23h.87c.03.5.22.9.57,1.19.35.29.82.43,1.42.43.55,0,.98-.12,1.3-.35.32-.23.48-.55.48-.95,0-.33-.11-.58-.34-.76s-.58-.31-1.06-.41l-1.01-.2c-.63-.12-1.13-.34-1.48-.64-.35-.31-.52-.71-.52-1.19,0-.36.11-.69.32-.98s.51-.52.89-.69c.38-.17.81-.25,1.29-.25.77,0,1.39.18,1.84.55.45.37.71.88.78,1.53h-.88c-.05-.42-.23-.75-.55-1-.32-.25-.73-.37-1.25-.37-.48,0-.86.11-1.14.32-.29.21-.43.49-.43.84,0,.32.12.56.35.73s.57.29,1.02.38l1.06.21c.62.12,1.11.33,1.46.63s.52.7.52,1.22c0,.39-.11.75-.33,1.06-.22.32-.53.57-.93.75-.4.18-.87.27-1.41.27-.57,0-1.06-.1-1.48-.29Z"/>
      <path class="cls-5" d="M719.94,355.12h.88v1.2c.21-.39.51-.72.91-.99s.87-.41,1.41-.41c.5,0,.94.1,1.31.32.37.21.66.52.86.92s.31.9.31,1.49v4.2h-.88v-4.1c0-.68-.13-1.2-.41-1.57-.27-.37-.71-.55-1.33-.55-.43,0-.81.11-1.14.32-.33.21-.59.5-.77.85-.18.36-.27.73-.27,1.13v3.91h-.88v-6.73Z"/>
      <path class="cls-5" d="M729.12,361.6c-.49-.3-.87-.72-1.15-1.26-.28-.54-.41-1.16-.41-1.86s.14-1.3.41-1.84c.28-.54.66-.96,1.15-1.26s1.05-.46,1.67-.46,1.18.15,1.67.45.87.72,1.15,1.27c.28.54.41,1.16.41,1.84s-.14,1.32-.41,1.86c-.28.54-.66.96-1.15,1.26-.49.3-1.05.45-1.67.45s-1.18-.15-1.67-.45ZM732.03,360.98c.35-.24.62-.57.81-1.01.19-.43.29-.93.29-1.49,0-.85-.21-1.54-.64-2.06s-.99-.78-1.7-.78c-.47,0-.88.12-1.23.36-.36.24-.63.57-.81.99-.19.42-.28.92-.28,1.49s.09,1.05.28,1.48.46.77.81,1.01c.35.24.76.36,1.23.36s.89-.12,1.24-.36Z"/>
      <path class="cls-5" d="M737.78,361.44c-.41-.36-.62-.93-.62-1.7v-3.86h-1.99v-.76h1.99v-2.14h.88v2.14h2.27v.76h-2.27v3.79c0,.55.14.94.41,1.18.28.23.68.35,1.21.35.25,0,.52-.03.81-.1v.77c-.31.07-.63.11-.98.11-.74,0-1.31-.18-1.72-.54Z"/>
      <path class="cls-5" d="M742.17,361.09h4.03v.76h-4.03v-.76ZM742.47,355.12h1.86v.76h-1.86v-.76ZM743.71,352.37h1.08v1.48h-1.08v-1.48ZM743.87,355.12h.87v6.73h-.87v-6.73Z"/>
      <path class="cls-5" d="M749.47,361.61c-.49-.29-.88-.71-1.16-1.25s-.43-1.18-.43-1.9c0-.68.14-1.29.43-1.83.29-.54.68-.96,1.18-1.26.5-.3,1.06-.46,1.69-.46.77,0,1.41.21,1.93.64.52.43.82,1,.9,1.72h-.9c-.07-.49-.28-.89-.63-1.2-.35-.3-.79-.46-1.32-.46-.48,0-.9.12-1.26.37-.36.25-.64.58-.84,1.01-.2.43-.29.91-.29,1.45,0,.57.1,1.07.3,1.51.2.43.48.77.83,1.01.35.24.76.36,1.23.36.57,0,1.03-.15,1.39-.44.36-.29.58-.7.65-1.23h.87c-.06.48-.21.89-.46,1.25s-.58.64-1.01.83-.92.29-1.48.29c-.61,0-1.15-.14-1.64-.43Z"/>
      <path class="cls-5" d="M757.29,361.63c-.48-.28-.85-.69-1.12-1.23-.27-.54-.4-1.19-.4-1.95,0-.67.14-1.28.41-1.81.28-.54.65-.96,1.13-1.26.48-.3,1.01-.46,1.6-.46.63,0,1.18.15,1.62.43.45.29.79.7,1.02,1.22s.35,1.14.35,1.84v.2h-5.25c0,.57.11,1.06.31,1.47.2.41.47.72.81.93.35.21.75.32,1.22.32.54,0,.99-.13,1.34-.38.35-.26.57-.64.64-1.14h.88c-.07.43-.22.81-.46,1.15-.24.34-.56.6-.97.8s-.9.29-1.46.29c-.64,0-1.21-.14-1.69-.42ZM760.41,356.26c-.36-.42-.87-.63-1.51-.63s-1.12.22-1.53.65-.63.99-.69,1.66h4.28c0-.7-.2-1.26-.56-1.68Z"/>
      <path class="cls-5" d="M765.02,360.35h1.3v1.5h-1.3v-1.5Z"/>
    </g>
    <g>
      <path class="cls-5" d="M549.43,245.83h2.42l6.72,14.95v-14.95h1.56v16.8h-2.35l-6.79-15.17v15.17h-1.56v-16.8Z"/>
      <path class="cls-5" d="M566,261.93c-.9-.69-1.6-1.69-2.1-3-.5-1.31-.74-2.88-.74-4.7s.25-3.4.74-4.72c.5-1.32,1.2-2.32,2.1-3.01.9-.69,1.96-1.03,3.18-1.03s2.28.34,3.18,1.03c.9.69,1.6,1.69,2.1,3.01.5,1.32.74,2.89.74,4.72s-.25,3.39-.74,4.7c-.5,1.31-1.2,2.31-2.1,3-.9.69-1.96,1.03-3.18,1.03s-2.28-.34-3.18-1.03ZM571.46,260.74c.66-.58,1.17-1.43,1.54-2.54.37-1.11.55-2.44.55-3.97s-.18-2.88-.55-4c-.37-1.11-.88-1.96-1.54-2.53-.66-.58-1.42-.86-2.28-.86s-1.63.29-2.29.86c-.66.58-1.18,1.42-1.54,2.53-.36,1.11-.54,2.44-.54,4s.18,2.86.54,3.97c.36,1.11.87,1.96,1.54,2.54.66.58,1.43.88,2.29.88s1.62-.29,2.28-.88Z"/>
      <path class="cls-5" d="M582.79,247.17h-5.66v-1.34h12.91v1.34h-5.66v15.46h-1.58v-15.46Z"/>
      <path class="cls-5" d="M592.25,245.83h11.47v1.37h-11.47v-1.37ZM592.25,261.24h11.47v1.39h-11.47v-1.39ZM597.19,245.83h1.58v16.8h-1.58v-16.8Z"/>
      <path class="cls-5" d="M609.41,261.86c-.98-.74-1.72-1.77-2.24-3.1-.52-1.33-.78-2.87-.78-4.63s.27-3.18.82-4.49c.54-1.31,1.32-2.34,2.32-3.07,1-.74,2.15-1.1,3.44-1.1,1.07,0,2,.24,2.8.72.79.48,1.42,1.14,1.87,1.99.46.85.73,1.81.83,2.88h-1.7c-.18-1.3-.6-2.32-1.27-3.08s-1.54-1.14-2.59-1.14c-.99,0-1.85.3-2.58.91-.73.61-1.28,1.46-1.67,2.56s-.58,2.37-.58,3.83.19,2.77.58,3.9c.38,1.13.94,2,1.66,2.63.72.62,1.56.94,2.52.94,1.15,0,2.07-.36,2.75-1.09.68-.73,1.12-1.76,1.33-3.11h1.66c-.21,1.73-.8,3.09-1.79,4.08-.98.99-2.29,1.49-3.92,1.49-1.31,0-2.46-.37-3.43-1.1Z"/>
      <path class="cls-5" d="M621.81,245.83h10.56v1.34h-8.98v6.22h8.57v1.37h-8.57v6.5h9.26v1.37h-10.85v-16.8Z"/>
      <path class="cls-5" d="M639.98,251.78h2.4v2.74h-2.4v-2.74ZM639.98,259.89h2.4v2.74h-2.4v-2.74Z"/>
    </g>
  </g>
</svg>