<?xml version="1.0" encoding="UTF-8"?>
<svg id="_图层_2" data-name="图层_2" xmlns="http://www.w3.org/2000/svg" viewBox="0 0 704.25 450.25">
  <defs>
    <style>
      .cls-1 {
        fill: #89d800;
        stroke: red;
        stroke-miterlimit: 10;
        stroke-width: .25px;
      }
    </style>
  </defs>
  <g id="_图层_1-2" data-name="图层_1">
    <g>
      <g>
        <rect class="cls-1" x="56.12" y=".12" width="7" height="320"/>
        <g>
          <rect class="cls-1" x="31.12" y="318.12" width="55" height="25"/>
          <rect class="cls-1" x="15.12" y="433.12" width="89" height="17"/>
          <rect class="cls-1" x="56.12" y="343.12" width="7" height="81"/>
          <g>
            <g>
              <rect class="cls-1" x="15.12" y="423.12" width="7" height="22"/>
              <rect class="cls-1" x="15.12" y="411.13" width="7" height="7"/>
            </g>
            <g>
              <rect class="cls-1" x="28.79" y="423.12" width="7" height="22"/>
              <rect class="cls-1" x="28.79" y="411.13" width="7" height="7"/>
            </g>
            <g>
              <rect class="cls-1" x="42.46" y="423.12" width="7" height="22"/>
              <rect class="cls-1" x="42.46" y="411.13" width="7" height="7"/>
            </g>
            <g>
              <rect class="cls-1" x="56.12" y="423.12" width="7" height="22"/>
              <rect class="cls-1" x="56.12" y="411.13" width="7" height="7"/>
            </g>
            <g>
              <rect class="cls-1" x="69.79" y="423.12" width="7" height="22"/>
              <rect class="cls-1" x="69.79" y="411.13" width="7" height="7"/>
            </g>
            <g>
              <rect class="cls-1" x="83.46" y="423.12" width="7" height="22"/>
              <rect class="cls-1" x="83.46" y="411.13" width="7" height="7"/>
            </g>
            <g>
              <rect class="cls-1" x="97.12" y="423.12" width="7" height="22"/>
              <rect class="cls-1" x="97.12" y="411.12" width="7" height="7"/>
            </g>
          </g>
          <g>
            <g>
              <rect class="cls-1" x="32.12" y="313.12" width="7" height="22"/>
              <rect class="cls-1" x="32.12" y="301.13" width="7" height="7"/>
            </g>
            <g>
              <rect class="cls-1" x="44.12" y="313.12" width="7" height="22"/>
              <rect class="cls-1" x="44.12" y="301.13" width="7" height="7"/>
            </g>
            <g>
              <rect class="cls-1" x="56.12" y="313.12" width="7" height="22"/>
              <rect class="cls-1" x="56.12" y="301.13" width="7" height="7"/>
            </g>
            <g>
              <rect class="cls-1" x="68.12" y="313.12" width="7" height="22"/>
              <rect class="cls-1" x="68.12" y="301.13" width="7" height="7"/>
            </g>
            <g>
              <rect class="cls-1" x="80.12" y="313.12" width="7" height="22"/>
              <rect class="cls-1" x="80.12" y="301.12" width="7" height="7"/>
            </g>
          </g>
          <rect class="cls-1" x=".12" y="384.12" width="121" height="17"/>
          <g>
            <g>
              <rect class="cls-1" x=".12" y="370.12" width="7" height="22"/>
              <rect class="cls-1" x=".12" y="358.13" width="7" height="7"/>
            </g>
            <g>
              <rect class="cls-1" x="12.79" y="370.12" width="7" height="22"/>
              <rect class="cls-1" x="12.79" y="358.13" width="7" height="7"/>
            </g>
            <g>
              <rect class="cls-1" x="25.46" y="370.12" width="7" height="22"/>
              <rect class="cls-1" x="25.46" y="358.13" width="7" height="7"/>
            </g>
            <g>
              <rect class="cls-1" x="38.13" y="370.12" width="7" height="22"/>
              <rect class="cls-1" x="38.13" y="358.13" width="7" height="7"/>
            </g>
            <g>
              <rect class="cls-1" x="50.79" y="370.12" width="7" height="22"/>
              <rect class="cls-1" x="50.79" y="358.13" width="7" height="7"/>
            </g>
            <g>
              <rect class="cls-1" x="63.46" y="370.12" width="7" height="22"/>
              <rect class="cls-1" x="63.46" y="358.13" width="7" height="7"/>
            </g>
            <g>
              <rect class="cls-1" x="76.12" y="370.12" width="7" height="22"/>
              <rect class="cls-1" x="76.12" y="358.13" width="7" height="7"/>
            </g>
            <g>
              <rect class="cls-1" x="88.79" y="370.12" width="7" height="22"/>
              <rect class="cls-1" x="88.79" y="358.13" width="7" height="7"/>
            </g>
            <g>
              <rect class="cls-1" x="101.46" y="370.12" width="7" height="22"/>
              <rect class="cls-1" x="101.46" y="358.13" width="7" height="7"/>
            </g>
            <g>
              <rect class="cls-1" x="114.12" y="370.12" width="7" height="22"/>
              <rect class="cls-1" x="114.12" y="358.12" width="7" height="7"/>
            </g>
          </g>
        </g>
      </g>
      <g>
        <rect class="cls-1" x="639.12" y=".12" width="7" height="320"/>
        <g>
          <rect class="cls-1" x="614.12" y="318.12" width="55" height="25"/>
          <rect class="cls-1" x="598.12" y="433.12" width="89" height="17"/>
          <rect class="cls-1" x="639.12" y="343.12" width="7" height="81"/>
          <g>
            <g>
              <rect class="cls-1" x="598.12" y="423.12" width="7" height="22"/>
              <rect class="cls-1" x="598.12" y="411.13" width="7" height="7"/>
            </g>
            <g>
              <rect class="cls-1" x="611.79" y="423.12" width="7" height="22"/>
              <rect class="cls-1" x="611.79" y="411.13" width="7" height="7"/>
            </g>
            <g>
              <rect class="cls-1" x="625.46" y="423.12" width="7" height="22"/>
              <rect class="cls-1" x="625.46" y="411.13" width="7" height="7"/>
            </g>
            <g>
              <rect class="cls-1" x="639.12" y="423.12" width="7" height="22"/>
              <rect class="cls-1" x="639.12" y="411.13" width="7" height="7"/>
            </g>
            <g>
              <rect class="cls-1" x="652.79" y="423.12" width="7" height="22"/>
              <rect class="cls-1" x="652.79" y="411.13" width="7" height="7"/>
            </g>
            <g>
              <rect class="cls-1" x="666.46" y="423.12" width="7" height="22"/>
              <rect class="cls-1" x="666.46" y="411.13" width="7" height="7"/>
            </g>
            <g>
              <rect class="cls-1" x="680.12" y="423.12" width="7" height="22"/>
              <rect class="cls-1" x="680.12" y="411.12" width="7" height="7"/>
            </g>
          </g>
          <g>
            <g>
              <rect class="cls-1" x="615.12" y="313.12" width="7" height="22"/>
              <rect class="cls-1" x="615.12" y="301.13" width="7" height="7"/>
            </g>
            <g>
              <rect class="cls-1" x="627.12" y="313.12" width="7" height="22"/>
              <rect class="cls-1" x="627.12" y="301.13" width="7" height="7"/>
            </g>
            <g>
              <rect class="cls-1" x="639.12" y="313.12" width="7" height="22"/>
              <rect class="cls-1" x="639.12" y="301.13" width="7" height="7"/>
            </g>
            <g>
              <rect class="cls-1" x="651.12" y="313.12" width="7" height="22"/>
              <rect class="cls-1" x="651.12" y="301.13" width="7" height="7"/>
            </g>
            <g>
              <rect class="cls-1" x="663.12" y="313.12" width="7" height="22"/>
              <rect class="cls-1" x="663.12" y="301.12" width="7" height="7"/>
            </g>
          </g>
          <rect class="cls-1" x="583.12" y="384.12" width="121" height="17"/>
          <g>
            <g>
              <rect class="cls-1" x="583.12" y="370.12" width="7" height="22"/>
              <rect class="cls-1" x="583.12" y="358.13" width="7" height="7"/>
            </g>
            <g>
              <rect class="cls-1" x="595.79" y="370.12" width="7" height="22"/>
              <rect class="cls-1" x="595.79" y="358.13" width="7" height="7"/>
            </g>
            <g>
              <rect class="cls-1" x="608.46" y="370.12" width="7" height="22"/>
              <rect class="cls-1" x="608.46" y="358.13" width="7" height="7"/>
            </g>
            <g>
              <rect class="cls-1" x="621.13" y="370.12" width="7" height="22"/>
              <rect class="cls-1" x="621.13" y="358.13" width="7" height="7"/>
            </g>
            <g>
              <rect class="cls-1" x="633.79" y="370.12" width="7" height="22"/>
              <rect class="cls-1" x="633.79" y="358.13" width="7" height="7"/>
            </g>
            <g>
              <rect class="cls-1" x="646.46" y="370.12" width="7" height="22"/>
              <rect class="cls-1" x="646.46" y="358.13" width="7" height="7"/>
            </g>
            <g>
              <rect class="cls-1" x="659.12" y="370.12" width="7" height="22"/>
              <rect class="cls-1" x="659.12" y="358.13" width="7" height="7"/>
            </g>
            <g>
              <rect class="cls-1" x="671.79" y="370.12" width="7" height="22"/>
              <rect class="cls-1" x="671.79" y="358.13" width="7" height="7"/>
            </g>
            <g>
              <rect class="cls-1" x="684.46" y="370.12" width="7" height="22"/>
              <rect class="cls-1" x="684.46" y="358.13" width="7" height="7"/>
            </g>
            <g>
              <rect class="cls-1" x="697.12" y="370.12" width="7" height="22"/>
              <rect class="cls-1" x="697.12" y="358.12" width="7" height="7"/>
            </g>
          </g>
        </g>
      </g>
    </g>
  </g>
</svg>